<!-- Generator: Adobe Illustrator 17.0.0, SVG Export Plug-In  -->
<svg version="1.1"
	 xmlns="http://www.w3.org/2000/svg" xmlnsXlink="http://www.w3.org/1999/xlink" xmlnss="http://ns.adobe.com/AdobeSVGViewerExtensions/3.0/"
	 x="0px" y="0px" width="100%" height="100%" viewBox="0 0 196.152 198" enable-background="new 0 0 196.152 198"
	 xmlSpace="preserve">
<defs>
</defs>
<g id="Layer_x0020_1_1_">
	<path d="M124.476,196.284L116.952,198H81.576l-5.148-1.716c-8.976,1.98-23.1-6.336-42.372-24.948
		c-19.272-18.48-29.832-33.66-31.812-45.408C0.792,116.292,0,107.844,0,100.452c0-28.116,10.428-52.8,31.152-73.92
		C44.484,17.028,54.78,10.56,62.172,7.128C72.468,2.376,83.16,0,94.248,0c9.768,0,20.988,1.716,33.66,5.28
		c17.424,6.204,32.736,16.896,46.068,32.34c11.616,13.464,18.612,26.136,20.856,38.28c0.924,5.544,1.32,11.616,1.32,18.084
		c0,22.176-4.884,41.844-14.784,59.268c-12.54,22.308-31.548,36.564-56.892,42.9V196.284z M175.56,49.368
		c0.396-2.244-2.112-6.072-7.788-11.748c-0.264-0.264-6.732-6.204-19.404-17.688c-3.96-2.112-7.92-4.092-11.748-6.204
		c-4.488-2.112-8.316-3.3-11.748-3.828l-7.788,7.524l19.668,26.928c11.088,2.376,20.988,6.864,29.7,13.464
		c2.904-1.452,4.62-2.376,5.148-2.64c2.244-1.452,3.564-3.432,3.96-5.94V49.368z M188.892,76.164
		c-1.188-4.092-2.508-8.052-3.828-12.012c-1.584-4.752-3.564-7.392-5.808-7.92l-8.844,5.148c1.98,7.524,2.904,14.52,2.904,20.856
		c0,5.148-0.66,9.768-1.98,13.728L184.14,122.1l6.864-7.128c0-1.584,0.132-6.072,0.264-13.332c0.132-5.016,0.132-9.108,0-12.408
		C191.004,84.612,190.212,80.256,188.892,76.164z M131.736,46.068c-0.528-2.112-3.564-6.732-9.108-13.992
		c-6.336-8.58-11.352-12.804-15.048-12.804c-13.332,0-20.46,0-21.648,0c-1.056,0.132-3.696,0.792-8.184,1.716
		c-2.244-0.264-4.224,1.452-5.94,5.28C67.584,34.98,63.36,42.372,59.4,48.444c1.452,3.96,4.884,8.844,10.164,14.52
		c5.28,5.676,9.504,8.58,12.408,8.58c3.96-0.924,7.92-1.32,12.012-1.32c2.376,0,5.94,0.264,10.692,0.66
		c4.752,0.396,8.712,0.66,11.616,0.66L131.736,46.068z M179.256,126.192c-1.188-4.224-1.98-6.864-2.376-7.788
		c-0.396-0.924-3.168-6.072-8.58-15.444c-2.772,0-6.996,0.528-12.408,1.716c-5.412,1.188-9.768,1.716-12.804,1.716
		c-1.056,0-4.752,5.94-11.088,17.82s-9.504,18.348-9.24,19.404c0.132,3.432,1.98,7.788,5.28,13.2
		c3.432,5.412,5.808,8.052,7.128,8.052c8.712,0,15.708-0.528,20.988-1.716c6.996-3.564,14.652-15.84,22.968-36.96H179.256z
		 M69.96,19.536c-3.036-4.224-5.94-6.468-8.58-6.468c-2.376,0-7.788,3.168-16.368,9.504c-4.224,3.432-8.58,6.732-13.068,10.164
		c-3.036,3.96-6.204,7.92-9.24,11.748c-3.3,4.62-5.148,8.712-5.808,12.408c3.036,3.3,5.544,5.016,7.524,5.28l26.796-14.124
		C57.42,42.768,63.624,33.264,69.96,19.536z M135.432,106.92c0-4.62-2.112-10.692-6.204-18.348
		c-4.752-8.712-9.504-13.068-14.124-13.068H82.632c-4.62,0-9.636,4.752-15.048,14.388c-4.884,8.58-7.26,15.048-7.26,19.404
		c0,2.904,2.904,8.976,8.58,18.084c4.224,6.732,7.524,11.484,9.768,14.124c4.752,0.924,9.24,1.32,13.728,1.32
		c2.508,0,6.336-0.264,11.352-0.66c5.148-0.396,9.372-0.66,12.672-0.66c1.98,0,5.676-5.676,11.22-17.028
		c5.148-10.428,7.788-16.368,7.788-17.688V106.92z M160.644,168.432c-0.132-0.132-1.188-0.66-3.036-1.584
		c-7.128,2.772-15.312,4.224-24.816,4.224c-3.96,5.016-8.976,8.844-14.784,11.484c-4.884,2.244-9.768,4.488-14.652,6.864v4.62
		c9.24,0,19.8-2.508,31.548-7.524C146.652,181.5,155.232,175.428,160.644,168.432z M21.516,105.336V67.98l-7.26-5.808L7.788,75.9
		c-0.924,2.112-1.584,4.884-2.112,8.58c-0.528,3.696-1.056,6.468-1.452,8.184v16.368c0.792,3.696,1.452,7.26,2.244,10.824
		c1.32,4.488,3.564,6.336,6.864,5.808L21.516,105.336z M75.504,147.312v-4.224c-3.3-2.64-10.824-13.596-22.572-33
		c-11.088,0-19.932-1.056-26.796-3.036l-8.448,20.592v6.6c4.752,11.748,7.392,18.48,8.184,19.932
		c4.224,7.26,9.768,11.352,16.368,12.408c10.296,1.584,17.82,2.376,22.308,2.376c3.3,0,6.864-7.26,10.824-21.648H75.504z
		 M97.152,194.172v-4.884l-34.32-16.632c-5.94,0-9.24,0-10.032-0.132s-5.148-1.056-13.2-3.036
		c2.772,3.036,8.448,7.392,17.028,12.804c10.428,6.732,18.084,10.296,22.836,10.428c5.412,0,11.352,0.396,17.688,1.32V194.172z"/>
</g>
</svg>
