<!-- Generator: Adobe Illustrator 22.0.1, SVG Export Plug-In  -->
<svg version="1.1"
	 xmlns="http://www.w3.org/2000/svg" xmlnsXlink="http://www.w3.org/1999/xlink" xmlnss="http://ns.adobe.com/AdobeSVGViewerExtensions/3.0/"
	 x="0px" y="0px" width="100%" height="100%" viewBox="0 0 179.2 200" enable-background="new 0 0 179.2 200"
	 xmlSpace="preserve">
<defs>
</defs>
<g>
	<path fill-rule="evenodd" clip-rule="evenodd" fill="#F3CD9F" d="M169.8,178.1c-6.5-1.4-13.6,0-20.1-2.9c-2.9-2.2-5.7-5.1-8.6-8
		c-2.9-2.9-5.1-5.8-8.6-8c-4.3-4.3-10.8-7.2-17.3-7.2c-6.5,0-9.4,5.1-10,10.9c-1.4,6.6-3,13.8-7.9,18.9c-2.9,2.1-6.5,2.9-9.4,2.1
		c-4.3-0.7-3.6-5.8-2.9-9.4c0.7-3.6,2.9-6.4,4.3-10.1c2.2-3.7,2.9-7.2,2.9-10.9c0.8-7.2-1.4-14.4-7.2-18.1c-2.2-1.4-4.3-1.4-7.3-2.2
		c1.5-3.6,2.2-6.4,3.6-10.1c1.4-2.9,2.9-6.6,3.6-9.4c1.4-3.7,2.9-6.6,4.3-10.1c2.2-5.9,2.2-13.1,1.4-19.7c-0.8-3.6-2.2-6.4-3.6-9.3
		c-1.4-3.7-1.4-7.3-1.4-10.9c0.8,0.7,2.2,1.4,2.9,2.1c2.2,2.2,5.1,2.2,7.9,2.2c2.2,0,4.3-0.8,5.7-2.2c2.2-2.1,5.1-3.6,6.5-6.6
		c4.3-5,2.2-12.3,2.9-18.8c0.8-4.4,0.8-8,0.8-11.7c-0.8-1.4-0.8-3.6-1.4-4.3c-0.8-0.7-2.2-1.4-1.4-2.9c0-1.4,1.4-2.2,2.1-2.9
		c0.8-0.8,1.4-1.4,1.4-2.2c1.4-1.4,1.4-3.6,2.2-5.8c0-2.9-3.6-8.7-6.5-10.1c-4.3-1.4-8.6,1.4-11.4,4.3c-2.9,2.1-5.1,1.4-8.7,2.1
		c-1.4,0-3.5,0.8-5,0.8s-2.9,0-4.3,0c-3,0-5.8,0.7-8.7,0.7c-2.1,0-5.7-3.6-7.9-5c-4.3-2.2-9.2-0.8-12.2,2.1c-3.5,2.2-4.3,8-3.5,12.3
		c0,2.2,0.7,4.3,2.9,5.9c1.4,2.1,2.9,2.9,2.9,5.8c0,2.9-1.4,7.2-2.2,10.1c-1.4,4.3-4.3,7.2-7.8,10.2c-5.8,5.8-12.2,10.1-17.3,16.7
		c-5.1,5.8-7.2,15.2-8.6,23.2c-0.8,7.9-1.5,16.7-0.8,25.3c0,3.7,0.8,7.2,0,11.7c-1.4,3.6-4.3,6.4-7.2,8.7c-2.2,2.2-4.3,4.3-5.8,6.6
		c-1.4,3.6-2.1,6.4-2.9,10.1c-0.7,7.2,0,13.8,3.6,20.3c1.4,2.9,4.3,5.1,6.5,8c1.4,0.7,2.9,1.4,4.3,2.9s3.6,2.9,5.1,3.6
		c5,3,10,7.3,15.1,9.4c5.7,2.2,11.4,2.9,17.9,2.9s13.6-2.9,20.1-2.1c6.5,0,12.2,3.7,18.7,2.9c6.4-1.4,10.7-5.8,14.3-10.9
		c4.3-5.8,9.4-12.3,17.3-8.7c3.5,1.4,6.5,3.6,9.4,5c4.3,2.2,7.8,3.7,12.2,5.9c7.2,3.6,15.1,6.4,23,5c5-0.7,11.4-3.6,11.4-9.4
		C179.2,181.8,174.1,178.9,169.8,178.1L169.8,178.1z"/>
	<path fill-rule="evenodd" clip-rule="evenodd" fill="#201306" d="M101.6,51.8c-0.8,1.4-1.4,2.9-2.2,4.3l-0.7-1.4
		c-1.4-0.7-2.2-1.4-2.9-2.1c-0.8,0-0.8-2.9-0.8-4.4c-0.7-0.7-0.7-2.9-2.1-3.6c-2.2-2.9-3-6.6-5.8-8c-1.4-0.8-2.9-0.8-3.5-1.4
		c-1.4,0-3.6,0.7-5.1,0.7c-0.8,0-0.8,1.6,0,1.6c2.2-0.8,3.6-0.8,5.7,0c1.4,0.7,2.9,1.4,4.3,2.9c0.8,1.4,1.4,2.9,2.2,4.3
		c1.4,1.4,2.9,2.9,2.9,5.8c0,2.2,0.8,3.7,2.9,5.1c1.4,0.7,1.4,2.9,2.9,3.6c0.8,0,1.4,0,1.4-0.7c0.8-1.4,1.4-3.7,2.2-5.8
		C103.8,51.2,101.6,51.2,101.6,51.8L101.6,51.8z"/>
	<path fill-rule="evenodd" clip-rule="evenodd" fill="#201306" d="M105.2,30.8c0,0,0,0-0.8,0.7l-1.4,2.2c-0.8,1.4-1.4,3.7-1.4,5.8
		c0,2.2,0,4.3,0,6.6c0,2.1,1.4,4.3,0,7.2l0.7,0.8c1.5-1.4,1.5-2.9,1.5-4.3c0-1.6-0.8-1.6-0.8-3c0-1.4,0.8-2.9,0.8-3.6
		c0-2.9,0-6.6,1.4-9.4c0.7-0.8,0.7-1.4,1.4-2.9C106.6,30.8,105.9,30.1,105.2,30.8L105.2,30.8z"/>
	<path fill-rule="evenodd" clip-rule="evenodd" fill="#201306" d="M101.6,50.4c-1.4,0-3.6,0-5.1,0.8c-0.7,0.7-2.1,0.7-2.1,2.1
		c0,0.8,1.4,0.8,1.4,0l0,0c0,0,0,0,0,0.8c0.7,0,0.7,0.7,1.4,0.7l0.7,0.8l0,0c0,0.7,0,0.7,0.8,0.7c0,0.8,0,0.8,0.7,0.8
		c0,0.7,0.8,0.7,0.8,0.7c0.7,0,1.4-0.7,1.4-1.4l0,0c0,0,0,0,0-0.7c0-0.8,0-1.4,0-1.4c0-0.8,0-0.8-0.8-0.8v-0.7h0.8
		c0-0.8,0.7-0.8,0.7-0.8C103,51.2,102.2,50.4,101.6,50.4L101.6,50.4z"/>
	<path fill-rule="evenodd" clip-rule="evenodd" fill="#201306" d="M101.6,176c-0.8,0-1.4,0.7-1.4,0.7l-0.8,0.8
		c0,0.7-1.4,1.4-2.1,2.1c-1.4,2.2-2.2,4.3-5.1,4.3c-1.4,0-3.6-0.7-5.1-0.7c-2.1,0-4.3,0.7-6.4,0.7c-1.4,0-3.6-0.7-5.8-0.7
		c-1.4,0-3.5-0.8-5.7-0.8c-3.5,0-5.7,2.9-8.6,3.7c-0.8,0-0.8,0.7,0,0.7c1.4,0,2.9,0,4.3-1.4c1.4-0.7,2.9-0.7,5.1-0.7
		c2.9,0,5-0.8,7.8,0c2.2,0.7,4.4,0.7,6.5,0.7c2.9-0.7,5.1,0,7.3,0c1.4,0,2.9,0,4.3-0.7c1.4-0.8,2.1-2.2,2.9-3.7
		c0.7-1.4,2.1-1.4,2.1-2.9c0.8,0,0.8,0,0.8-0.7c0,0,0,0,0-0.8C102.2,176.7,101.6,175.2,101.6,176L101.6,176z"/>
	<path fill-rule="evenodd" clip-rule="evenodd" fill="#201306" d="M88.6,137.5c-2.1-2.2-5.7-3.7-8.6-4.4c-3.6,0-6.5,1.4-9.4,3.7
		c-2.9,2.2-5.7,3.7-7.9,6.6c-2.9,2.9-4.3,5.8-4.3,10.1c0,0.8,1.4,0.8,1.4,0c1.4-3.6,2.2-6.6,4.3-9.4c2.2-2.9,5.1-4.3,7.9-6.4
		c2.9-3,7.3-3.7,10.8-1.6c1.4,0.8,2.9,1.6,4.3,3c1.4,1.4,2.2,2.9,2.9,5c1.5,3.7,1.5,7.3,0,10.9c-0.7,3.7-1.4,7.2-2.1,10.9
		c-0.8,2.2-2.2,2.9-2.9,5.1c-0.8,0.7-0.8,2.9-1.4,4.3c0,3.7,0,5.8,1.4,8.7c0,0.8,1.4,0.8,1.4-0.7c-1.4-3.7-2.2-9.4,1.4-13.1
		c2.1-2.9,2.9-8,4.3-11.6C93.7,151.3,94.4,143.3,88.6,137.5L88.6,137.5z"/>
	<path fill-rule="evenodd" clip-rule="evenodd" fill="#201306" d="M77.8,83.7c0-1.4-1.4-1.4-1.4,0c0,5.1,0,10.9,0,16
		c0,2.9-0.7,5.8-1.4,8.7c-0.7,2.9-1.4,5.9-2.1,9.4c0,1.4-1.4,2.9-0.8,5.1c0,2.2-0.7,5.1-0.7,7.2c0,1.4,0,5.1,1.4,5.8
		c1.4,0.8,2.1-0.7,0.7-1.4c-1.4,0-0.7-7.9,0-8.7c0-2.2-0.7-3.7,0-5.8c1.4-2.2,1.4-4.3,2.2-7.2c0.7-2.2,0.7-3.7,1.4-5.9
		c0-2.9,0.7-5,0.7-8C77.8,94,77.8,88.9,77.8,83.7L77.8,83.7z"/>
	<path fill-rule="evenodd" clip-rule="evenodd" fill="#201306" d="M67.8,123c0-0.8,0-1.4-0.7-2.2c0-0.7-1.4-0.7-2.2,0
		c-0.8,0-0.8,0-0.8,0c0,0.8-0.7,0.8-0.7,0.8c-0.8,1.4-0.8,3.7,0,5.1c1.4,1.4,3.6,0,3.6-1.4c0.7,0,0.7-0.8,0.7-1.6V123L67.8,123z"/>
	<path fill-rule="evenodd" clip-rule="evenodd" fill="#201306" d="M51.3,107c-0.8-0.7-2.2-0.7-2.9-0.7c-2.9,0-3.6,3.6-3.6,5.8
		c0,0.8,0,0.8,0.8,1.4c0,0,0,0,0.7,0.8H47c0.7,0.7,1.4,0,2.1,0c1.4-0.8,2.2-2.2,2.2-4.4C51.3,109.2,51.9,107.8,51.3,107L51.3,107z"
		/>
	<path fill-rule="evenodd" clip-rule="evenodd" fill="#201306" d="M64.9,106.3c0-0.8,0-1.4-0.8-1.4c0-0.8-0.7-0.8-1.4-0.8
		c-2.1,0-2.9,3.7-2.1,5.1c0,0.7,0.7,0.7,1.4,0.7c0.7,0,1.4,0,2.1-0.7C64.9,108.4,64.9,107,64.9,106.3L64.9,106.3z"/>
	<path fill-rule="evenodd" clip-rule="evenodd" fill="#201306" d="M69.2,112.1L69.2,112.1c0,0,0-0.8-0.7-0.8c-0.8-0.7-0.8,0-0.8,0
		c-0.7,0-0.7,0-0.7,0c-0.8,0-0.8,0.8-0.8,1.6c0,0,0,0.7,0,1.4c0,0,0,0,0.8,0c0,0,0,0.7,0.7,0.7c0.8,0,1.4-0.7,1.4-0.7
		C69.2,113.5,70,112.9,69.2,112.1L69.2,112.1z"/>
	<path fill-rule="evenodd" clip-rule="evenodd" fill="#201306" d="M85.1,91.1c-0.8-0.8-2.2-1.4-2.9-1.4c-1.4,0.7-2.2,3.6-2.2,5
		c0.8,0.8,0.8,0.8,0.8,1.4c0.7,0.8,1.4,0.8,2.1,0.8c2.2,0,2.9-2.2,2.9-4.3C85.7,91.7,85.7,91.1,85.1,91.1L85.1,91.1z"/>
	<path fill-rule="evenodd" clip-rule="evenodd" fill="#201306" d="M80,114.3c0,0-1.4,0-1.4,0.7c-0.8,0.8-0.8,0.8-0.8,1.4
		c0,0.8,0,0.8,0,1.4v0.8v0.7C80.8,120.8,82.2,115.8,80,114.3L80,114.3z"/>
	<path fill-rule="evenodd" clip-rule="evenodd" fill="#201306" d="M84.3,104.1c-0.7-0.7-2.1-0.7-2.9,0v0.8c-0.7,1.4-0.7,2.1,0,2.9
		c0.8,0.7,1.4,0.7,2.2,0c0,0,0,0,0-0.8c0.7,0,0.7,0,0.7,0v-0.7C84.3,105.5,85.1,104.9,84.3,104.1L84.3,104.1z"/>
	<path fill-rule="evenodd" clip-rule="evenodd" fill="#201306" d="M77.8,127.3c-0.7-0.7-0.7-0.7-1.4-0.7c-0.7,0-0.7,0-0.7,0.7l0,0
		c-0.8,0-0.8,0.8-0.8,0.8l0,0v0.7c0,0.8,0,0.8,0.8,1.4c0.7,0,1.4-0.7,2.1-1.4C77.8,128.1,77.8,127.3,77.8,127.3L77.8,127.3z"/>
	<path fill-rule="evenodd" clip-rule="evenodd" fill="#201306" d="M67.8,160.7c0-0.7-0.7-1.4-1.4-1.4c-0.7-0.7-2.2-0.7-2.9,0
		c-1.4,0-1.4,1.4-1.4,2.2c0,0.7,0,1.4,0,2.2c0,0,0,0.7,0.7,0.7c0,0.8,0.8,1.4,2.2,1.4C67.1,165.1,67.8,162.9,67.8,160.7L67.8,160.7z
		"/>
	<path fill-rule="evenodd" clip-rule="evenodd" fill="#201306" d="M72.9,145.4c0-0.7,0-0.7,0-0.7c0-0.8,0-1.4-0.8-2.2
		c-0.7-0.7-1.4-0.7-2.1-0.7c-0.8,0.7-1.4,0.7-1.4,1.4c-0.8,0.7,0,1.4,0,1.4c0,0.7,0,1.4,0,2.1c0,0.8,0,1.4,0.7,2.2
		c1.4,0.8,2.2,0.8,2.9,0C72.9,148.3,72.9,146.2,72.9,145.4L72.9,145.4z"/>
	<path fill-rule="evenodd" clip-rule="evenodd" fill="#201306" d="M77.1,149.9c0,0,0,0-0.8,0h-0.7c-0.8,0-1.4,0-1.4,0
		c-0.8,0.7-0.8,1.4-0.8,2.1c0,0.8,0.8,1.4,2.2,1.4c0.7,0.8,2.9,0,2.9-1.4C78.6,151.3,78.6,150.5,77.1,149.9L77.1,149.9z"/>
	<path fill-rule="evenodd" clip-rule="evenodd" fill="#201306" d="M80,139.7c-0.7-0.7-2.9-0.7-3.6,0.8c0,0.7,0,2.1,0,2.9
		c0,0.7,0,1.4,0,1.4c0.8,1.4,2.2,2.1,3,1.4C82.2,145.4,82.2,141.1,80,139.7L80,139.7z M78.6,144.8c0,0,0,0,0-0.8h0.8
		C79.3,144,79.3,144,78.6,144.8L78.6,144.8z"/>
	<path fill-rule="evenodd" clip-rule="evenodd" fill="#201306" d="M89.4,147.7c0-1.4-1.4-2.9-2.9-2.9s-2.2,0-2.9,1.4
		c-0.8,0.7,0,2.9,0.7,2.9l0.8,0.8c0,0,0,0,0,0.7c0,0.8,0.7,0.8,2.1,0.8S89.4,149.1,89.4,147.7L89.4,147.7z"/>
	<path fill-rule="evenodd" clip-rule="evenodd" fill="#201306" d="M85.7,157.8c-0.7-0.7-1.4-1.4-2.1-0.7c-1.4,0-2.2,1.4-2.9,2.1
		c-0.8,1.4-0.8,4.4,1.4,4.4c1.4,0,2.1-1.6,2.1-2.2c0,0,0,0,0-0.8c0.8,0,0.8,0,0.8,0C85.7,159.2,85.7,158.5,85.7,157.8L85.7,157.8z"
		/>
	<path fill-rule="evenodd" clip-rule="evenodd" fill="#201306" d="M77.1,163.7c0-0.8-0.8-2.2-1.4-2.2l0,0c0,0,0,0-0.8,0
		c-0.7,0-1.4,0.7-1.4,1.4c-0.7,0-0.7,0.8-0.7,1.4c0,0.8,0,1.4,0.7,2.2c0.8,0.7,1.4,0.7,2.2,0.7c1.4-0.7,1.4-1.4,1.4-2.1
		C77.1,164.3,77.1,164.3,77.1,163.7L77.1,163.7z"/>
	<path fill-rule="evenodd" clip-rule="evenodd" fill="#201306" d="M68.6,174.4c-0.8-0.7-2.2-0.7-2.9-0.7c-1.5,0-2.2,0.7-3.6,1.4
		c0,0,0,0,0,0.8l0,0c-0.8,1.4,0,2.1,0.7,2.9c0.8,0.7,2.2,0.7,3,0C67.8,178.9,69.2,176.7,68.6,174.4L68.6,174.4z"/>
	<path fill-rule="evenodd" clip-rule="evenodd" fill="#201306" d="M77.8,173c0,0,0-0.7-0.7-0.7c0-0.8-0.8-1.4-2.2-1.4
		c-1.4,0.7-2.1,2.1-2.1,4.3l0,0c0,0.8,0,1.4,0.7,1.4c0.8,2.9,3.6,1.4,4.3-0.7C77.8,175.2,77.8,173.8,77.8,173L77.8,173z"/>
	<path fill-rule="evenodd" clip-rule="evenodd" fill="#201306" d="M82.9,166.5c-0.7-0.8-2.1-0.8-2.9,0c0,0.7,0,0.7,0,1.4
		c0,0-0.7,0-0.7,0.7v1.4c0.7,0.8,1.4,1.4,2.1,0.8C82.9,170.1,83.6,168,82.9,166.5L82.9,166.5z"/>
	<path fill-rule="evenodd" clip-rule="evenodd" fill="#201306" d="M82.2,179.6c-0.8-1.4-2.9-1.4-3.6-0.7c-0.8,0-0.8,1.4,0,1.4
		c0,0.7,0,0.7,0,0.7c0,0.8,0,1.4,1.4,1.4C81.4,182.4,82.9,181,82.2,179.6L82.2,179.6z"/>
	<path fill-rule="evenodd" clip-rule="evenodd" fill="#201306" d="M67.1,152c0,0-1.4-0.7-2.2,0c-0.8,0-0.8,0.8-0.8,1.4v0.8
		c0,0.7,0,0.7,0,0c0,0.7,0.8,0.7,0.8,0.7l0,0c0,0.8,0.8,0.8,1.4,0.8c0.8-0.8,1.4-0.8,1.4-1.4C67.8,153.4,67.8,152.8,67.1,152
		L67.1,152z"/>
	<path fill-rule="evenodd" clip-rule="evenodd" fill="#201306" d="M29.1,79.4c-0.8-2.1-3.6-2.9-5.1-0.7c-0.8,1.4-0.8,2.9-0.8,4.3
		c0,0.7,0,2.1,0.8,2.9c0.7,0.8,2.1,0.8,2.9,0c0.7,0,1.4-1.4,2.2-2.2c0-0.7,0-0.7,0-1.4C29.1,81.6,29.7,80.9,29.1,79.4L29.1,79.4z"/>
	<path fill-rule="evenodd" clip-rule="evenodd" fill="#201306" d="M37.6,85.2c-1.4-0.7-2.9,0.8-2.9,2.2c-0.8,0.8-0.8,2.9,0.7,3.7
		c0.8,0,0.8,0,1.4,0c1.4,0,1.4-2.2,2.2-2.9C39.1,86.7,39.1,85.2,37.6,85.2L37.6,85.2z"/>
	<path fill-rule="evenodd" clip-rule="evenodd" fill="#201306" d="M32.6,65.6c-0.7,0.8-0.7,1.4-0.7,2.2c-0.8,0.7-0.8,2.1,0,2.9
		c0,0.7,0.7,0.7,0.7,0.7c0.8,0.8,1.4,0.8,2.2,0c0.7-1.4,1.4-2.9,1.4-4.3C36.2,64.2,34,64.2,32.6,65.6L32.6,65.6z"/>
	<path fill-rule="evenodd" clip-rule="evenodd" fill="#201306" d="M37.6,76.5c0-1.4-0.8-1.4-1.4-0.7c-0.8,0-0.8,0.7-0.8,1.4
		c0,0.7,0,0.7,0,1.4c0,0,0,0,0.8,0C37.6,79.4,38.3,77.3,37.6,76.5L37.6,76.5z"/>
	<path fill-rule="evenodd" clip-rule="evenodd" fill="#201306" d="M28.3,71.4c0-0.7-0.8-0.7-1.4-0.7c-0.8,0-1.4,0.7-1.4,1.4
		c-0.8,0-0.8,0.7-0.8,1.4c0,0.8,0.8,1.4,0.8,1.4c1.4,0.8,2.9-0.7,2.9-2.2C29.1,72.2,29.1,72.2,28.3,71.4L28.3,71.4z"/>
	<path fill-rule="evenodd" clip-rule="evenodd" fill="#201306" d="M20.4,86.7c-2.1-0.8-2.1,1.4-2.1,2.9l0,0c0,0,0,0,0,0.7
		c0,0.8,0,1.4,0.7,1.4c0.8,0.8,1.4,0,1.4-0.7c0.8,0,0.8-0.8,0.8-0.8l0,0c0-0.7,0-0.7,0-0.7C21.1,88.9,21.8,86.7,20.4,86.7L20.4,86.7
		z"/>
	<path fill-rule="evenodd" clip-rule="evenodd" fill="#201306" d="M29.7,92.5c-0.7-1.4-2.9-0.8-3.6,0c0,0.7,0,1.4-0.7,2.1
		c0,0.8,0,2.2,0,2.9c0,0.8,0.7,1.4,1.4,2.2c1.4,0.8,2.2-1.4,2.9-2.2C30.5,96.1,31.1,94,29.7,92.5L29.7,92.5z"/>
	<path fill-rule="evenodd" clip-rule="evenodd" fill="#201306" d="M21.1,96.9c-1.4-0.8-2.2,0.7-2.9,2.1c0,1.6,0,3,1.4,3.7
		c0,0.8,0,0.8,1.4,0.8c1.4,0,1.4-1.4,1.4-2.9C23.2,99,22.6,97.5,21.1,96.9L21.1,96.9z"/>
	<path fill-rule="evenodd" clip-rule="evenodd" fill="#201306" d="M33.3,106.3c-0.8-2.2-2.9-2.2-4.3,0c0,0.7-0.8,1.4-0.8,2.1
		c0,0.8,0,2.2,1.4,2.2c0,0.7,0.8,0.7,0.8,0.7c0.7,0,0.7,0,1.4-0.7C33.3,109.9,33.3,107.8,33.3,106.3L33.3,106.3z"/>
	<path fill-rule="evenodd" clip-rule="evenodd" fill="#201306" d="M37.6,97.5c0-1.4-1.4-2.9-2.2-2.1c-1.4,0-2.1,1.4-2.1,2.9
		c0,0.7,0.7,2.2,1.4,2.2c0,0.7,0.7,0.7,1.4,0.7C37.6,100.5,37.6,99,37.6,97.5L37.6,97.5z"/>
	<path fill-rule="evenodd" clip-rule="evenodd" fill="#201306" d="M40.5,109.2c0-0.8-0.8-0.8-1.4-0.8c-0.8,0-0.8,0-1.4,0
		c0,0.8,0,0.8,0,0.8l0,0c0,0.7,0,0.7,0,0.7l0,0c0,0.8-0.8,0.8-0.8,1.4c0.8,0.8,0.8,1.6,2.2,1.6c0,0,0.7-0.8,0.7-1.6
		C40.5,110.6,40.5,109.9,40.5,109.2L40.5,109.2z"/>
	<path fill-rule="evenodd" clip-rule="evenodd" fill="#201306" d="M44.8,91.1c-0.7-0.8-2.1-0.8-2.9-0.8c-0.7,0.8-1.4,1.4-1.4,2.9
		c0,0.8,0,2.2,0,2.9c0,0,0,0,0,0.8c0,0.7,0.8,1.4,2.2,1.4c1.4,0,2.1-2.9,2.9-4.3C45.6,93.2,45.6,91.7,44.8,91.1L44.8,91.1z"/>
	<path fill-rule="evenodd" clip-rule="evenodd" fill="#201306" d="M42.7,101.2c-0.8,0-0.8,0.8-0.8,0.8c-0.7,0-0.7,0-0.7,0.7
		c0,0,0,0-0.8,0l0,0l0,0c0,0.8,0,0.8,0,0.8c0.8,0.7,0.8,1.4,1.4,0.7c0.8,0,1.4-0.7,1.4-1.4C43.4,102,42.7,101.2,42.7,101.2
		L42.7,101.2z"/>
	<path fill-rule="evenodd" clip-rule="evenodd" fill="#201306" d="M40.5,117.9c-2.2,0.8-2.9,4.3-2.2,5.8c0.8,0.8,0.8,1.6,1.4,1.6
		c0,0.7,0.8,0.7,0.8,0.7c2.2,2.2,3.6-0.7,3.6-2.2C44.8,120.8,43.4,117.9,40.5,117.9L40.5,117.9z"/>
	<path fill-rule="evenodd" clip-rule="evenodd" fill="#201306" d="M28.3,119.3c-0.8-1.4-1.4-2.9-2.2-2.9c-1.4,0-2.1,1.4-2.1,2.2
		c-0.8,1.4-1.4,4.3-0.8,5.8c0.8,0.8,0.8,0.8,1.4,0.8h0.8c0.7,0,2.1-0.8,2.9-1.6C28.3,122.2,28.3,120.1,28.3,119.3L28.3,119.3z"/>
	<path fill-rule="evenodd" clip-rule="evenodd" fill="#201306" d="M23.2,107c0-0.7-0.7-1.4-2.1-1.4c-0.8,0-2.2,1.4-2.9,2.2
		c-0.8,1.4-0.8,2.9-0.8,4.3c0,0.8,0.8,2.2,1.4,2.2c2.2,0,2.9-0.8,2.9-2.2c0-0.8,0-0.8,0.8-0.8C23.2,109.9,23.2,108.4,23.2,107
		L23.2,107z"/>
	<path fill-rule="evenodd" clip-rule="evenodd" fill="#201306" d="M35.4,115.8c-0.7-0.8-0.7-1.4-2.1-1.4c-0.8,0-0.8,0.7-1.4,1.4
		c0,0.7,0,0.7,0,0.7c0,0.8,0,1.4,0,2.2c0,0.7,0.7,1.4,1.4,0.7c0.7,0,1.4-0.7,1.4-1.4C34.8,117.2,35.4,116.4,35.4,115.8L35.4,115.8z"
		/>
	<path fill-rule="evenodd" clip-rule="evenodd" fill="#201306" d="M21.1,126.6c-0.8-0.8-1.4-0.8-2.2,0c-0.7,0-0.7,0-0.7,0
		c0,0.7,0,0.7,0,0.7l0,0c-0.8,0.8-1.4,2.2-1.4,2.9c0,0,0,0,0,0.8c0,1.4,0.7,2.1,2.1,1.4c0.8,0,1.4-0.8,2.2-2.2c0,0,0-0.7,0-1.4
		C21.1,128.1,21.1,127.3,21.1,126.6L21.1,126.6z"/>
	<path fill-rule="evenodd" clip-rule="evenodd" fill="#201306" d="M27.5,128.8c0,0-0.7,0-0.7,0.8c0,0.7-1.4,5,1.4,5
		c2.2,0,2.9-2.9,2.9-5C31.1,128.1,29.1,128.1,27.5,128.8L27.5,128.8z"/>
	<path fill-rule="evenodd" clip-rule="evenodd" fill="#201306" d="M34,124.4h-0.7l0,0c-0.8,0-0.8,0-0.8,0.8c0,0,0,0,0,0.7l0,0
		c-0.7,0-0.7,0.8,0,0.8l0,0c0,0,0,0.7,0.8,0.7H34c0.8,0,0.8-1.4,0.8-2.1C34.8,124.4,34.8,124.4,34,124.4L34,124.4z"/>
	<path fill-rule="evenodd" clip-rule="evenodd" fill="#201306" d="M40.5,130.2c0-0.7-1.4-1.4-2.2-1.4c-2.1-0.7-2.1,2.9-2.1,4.3
		c0,0.8,0,1.4,0.7,1.4c0,0.8,0,1.4,0.8,2.2c1.4,0.8,2.9-1.4,3.6-3.7C41.3,132.4,41.3,131,40.5,130.2L40.5,130.2z"/>
	<path fill-rule="evenodd" clip-rule="evenodd" fill="#201306" d="M31.9,143.3c0-0.8,0-0.8-0.8-0.8c-0.7-0.7-2.1,0-2.9,0.8
		c-0.8,0.7-0.8,1.4-0.8,2.1c0,1.4,0,2.2,0.8,2.9c0.8,0.8,2.2,0.8,3.6,0C33.3,147.7,33.3,144,31.9,143.3L31.9,143.3z"/>
	<path fill-rule="evenodd" clip-rule="evenodd" fill="#201306" d="M16.8,149.1c-0.8-2.9-4.4-2.9-5.8-1.4c-0.7,1.4-0.7,2.2-0.7,3.7
		c-0.8,0.7-0.8,2.1,0,2.9c0.7,0,0.7,0.7,1.4,0.7h0.7C15.3,154.9,16.8,151.3,16.8,149.1L16.8,149.1z"/>
	<path fill-rule="evenodd" clip-rule="evenodd" fill="#201306" d="M24,135.3c-1.4-0.8-2.9-0.8-3.6,0.7c-0.7,1.6-1.4,3-0.7,4.4v0.7
		l0,0c0,0,0,0.8,0.7,0.8C23.2,143.3,26.1,137.5,24,135.3L24,135.3z"/>
	<path fill-rule="evenodd" clip-rule="evenodd" fill="#201306" d="M13.2,136c-0.8,0-1.4,0-2.2,1.6c0,0.7,0,1.4,0,2.1
		c0,0.8,0.8,0.8,1.4,0.8c0,0,0.8,0,0.8-0.8c0.7,0,0.7,0,0.7,0l0,0C14.6,138.2,15.3,136,13.2,136L13.2,136z"/>
	<path fill-rule="evenodd" clip-rule="evenodd" fill="#201306" d="M9.6,141.1c-0.7-0.7-2.1-0.7-3.5,0c0,0.8-0.8,2.2,0,2.9
		c0,1.4,0,2.2,1.4,2.2c0.7,0,1.4,0,1.4,0c0.7-0.8,0.7-1.4,1.4-2.2C10.4,143.3,11,141.9,9.6,141.1L9.6,141.1z"/>
	<path fill-rule="evenodd" clip-rule="evenodd" fill="#201306" d="M17.5,142.5L17.5,142.5C17.5,141.9,17.5,141.9,17.5,142.5
		c0-0.7,0-0.7,0-0.7c-0.7,0-0.7,0-0.7,0c-0.8,0-1.5,0-2.2,0c-0.8,0.7-0.8,1.4,0,2.1v0.8h0.7c0,0.7,0,0.7,0.8,0.7c0,0,0,0,0.8,0
		C17.5,144.8,18.3,143.3,17.5,142.5L17.5,142.5z"/>
	<path fill-rule="evenodd" clip-rule="evenodd" fill="#201306" d="M25.4,149.9c-0.8,0-1.4,0-2.2,0c-0.7,0.7-1.4,2.1-0.7,2.9v0.7
		c0,0.8,0,0.8,0,0.8c0.7,1.4,1.4,1.4,2.9,1.4c0.7-0.8,1.4-2.2,1.4-2.9C26.9,151.3,26.9,150.5,25.4,149.9L25.4,149.9z"/>
	<path fill-rule="evenodd" clip-rule="evenodd" fill="#201306" d="M21.8,158.5c-0.7-2.9-4.3-2.9-5-0.8c-0.8,0.8-0.8,2.9-0.8,3.7h0.8
		c0,1.4,0,2.9,1.4,2.9c1.4,0,2.1-0.7,2.9-1.4C21.8,161.4,21.8,159.2,21.8,158.5L21.8,158.5z"/>
	<path fill-rule="evenodd" clip-rule="evenodd" fill="#201306" d="M7.5,160c-1.4,0-2.9,2.1-2.2,3.7c0,0.7,0.8,1.4,1.4,1.4l0,0
		c0.8,0,0.8,0,1.4,0.7c1.4,0,2.9-2.1,2.9-3.7C11,160,8.9,160,7.5,160L7.5,160z"/>
	<path fill-rule="evenodd" clip-rule="evenodd" fill="#201306" d="M5.3,150.5c-1.4-0.7-4.3,0.8-4.3,2.9c-0.8,0.8-0.8,1.4,0,2.2
		c0.7,0.7,2.1,1.4,2.9,1.4c1.4,0,2.2-0.8,2.2-2.2c0,0,0.7-1.4,0.7-2.1C6.7,152,6.7,151.3,5.3,150.5L5.3,150.5z"/>
	<path fill-rule="evenodd" clip-rule="evenodd" fill="#201306" d="M13.9,165.8c-1.4-1.4-3.5,1.4-2.9,2.9l0,0c0,0.8,0,0.8,0,1.4
		c0.8,0.8,2.2,1.4,2.9,0.8c0.8-0.8,0.8-1.4,0.8-2.2C14.6,167.2,14.6,166.5,13.9,165.8L13.9,165.8z"/>
	<path fill-rule="evenodd" clip-rule="evenodd" fill="#201306" d="M7.5,170.1c-0.8-0.7-1.4,0-1.4,0.8c-0.8,0-0.8,0-0.8,0
		s-0.7,0.7-0.7,1.4c0.7,0.7,0.7,0.7,1.4,0.7c0.7,0,1.4,0,1.4-0.7c0.7-0.8,0.7-1.4,0.7-1.4C8.1,170.1,7.5,170.1,7.5,170.1L7.5,170.1z
		"/>
	<path fill-rule="evenodd" clip-rule="evenodd" fill="#201306" d="M21.8,120.1c0-0.8-0.7-0.8-0.7-0.8c-0.8,0-0.8,0-0.8,0l0,0
		c0-0.7-0.7-0.7-1.4,0c0,0.8,0,0.8,0,0.8v0.7c0,0.8,0.8,0.8,0.8,0.8c0.7,0.7,0.7,0,1.4,0C21.1,121.5,21.8,120.8,21.8,120.1
		L21.8,120.1z"/>
	<path fill-rule="evenodd" clip-rule="evenodd" fill="#201306" d="M81.4,35.8c-0.7,0-1.4,0-1.4,0.8l0,0c-0.7-0.8-1.4-0.8-1.4,0
		c0,0.8,0,1.4,0.8,2.2l0,0c0.7,0,0.7,0.7,0.7,0.7h0.8c0,0,0,0,0.7,0c0,0,0,0.8,0.8,0c0.7,0,1.4-1.4,1.4-2.1
		C83.6,36.6,82.9,35.8,81.4,35.8L81.4,35.8z"/>
	<path fill-rule="evenodd" clip-rule="evenodd" fill="#201306" d="M106.6,30.8c-1.4,0-1.4,0.7-1.4,1.4c-0.8,0.7-0.8,1.4-0.8,1.4
		c0,0.7-0.7,0.7-0.7,0.7c0,0.8,0.7,1.4,1.4,1.4l0,0l0,0l0,0c0,0,0,0,0.7,0c0.8,0,1.4-0.7,1.4-1.4c0.8-0.7,0.8-1.4,0.8-2.1
		C108.1,30.8,107.3,30.8,106.6,30.8L106.6,30.8z"/>
	<path fill-rule="evenodd" clip-rule="evenodd" fill="#201306" d="M82.9,79.4l-0.7-0.7c-0.8,0-1.4,0-1.4,0.7l0,0l0,0l0,0
		c0,0.8,0,0.8,0,0.8l0,0l0,0l0,0c-0.8,0.7-0.8,0.7,0,1.4c0,0,0.7,0,1.4,0C82.9,81.6,82.9,80.2,82.9,79.4L82.9,79.4z"/>
	<path fill-rule="evenodd" clip-rule="evenodd" fill="#201306" d="M87.9,85.2v-0.7l0,0c0-0.8-0.8-0.8-0.8-1.4c0-0.8-0.7-0.8-1.4,0
		c-1.4,0-1.4,2.1-1.4,2.9c0.8,1.4,2.2,2.2,3.6,1.4C87.9,86.7,87.9,86,87.9,85.2L87.9,85.2z"/>
	<path fill-rule="evenodd" clip-rule="evenodd" fill="#201306" d="M88.6,98.3c0-0.8-0.7,0-1.4,0c0,0,0,0.7-0.7,1.4l0,0l0,0
		c0,0.8-0.8,0.8,0,0.8c0,0.7,0,0.7,0,1.4c0.7,0,1.4,0,2.1-0.8c0,0.8,0,0,0,0l0,0l0.8-0.7v-0.8C89.4,99,89.4,98.3,88.6,98.3
		L88.6,98.3z"/>
	<path fill-rule="evenodd" clip-rule="evenodd" fill="#201306" d="M67.1,64.2c-1.4,0-3,0.8-3,2.2c0,0.7,0,2.1,1.5,2.9l0,0
		c0.7,0,0.7,0.7,1.4,0.7c1.4-0.7,2.1-2.1,2.1-3.6C69.2,65,68.6,64.2,67.1,64.2L67.1,64.2z"/>
	<path fill-rule="evenodd" clip-rule="evenodd" fill="#201306" d="M74.9,49.7c0-0.8-0.7-0.8-0.7-0.8l-0.8-0.8c-1.4,0-2.1,2.2-1.4,3
		c0,0.7,0,1.4,0.8,1.4c0,0.7,1.4,0,2.1,0c0-0.8,0-1.4,0-1.4l0,0C75.7,50.4,74.9,49.7,74.9,49.7L74.9,49.7z"/>
	<path fill-rule="evenodd" clip-rule="evenodd" fill="#201306" d="M80.8,64.2c0-0.7-0.8-2.1-1.4-2.1l0,0c-0.8-0.8-1.5-1.6-2.2-1.6
		c-2.2,1.6,0,4.4,0.7,5.9C79.3,67.9,80.8,65.6,80.8,64.2L80.8,64.2z"/>
	<path fill-rule="evenodd" clip-rule="evenodd" fill="#201306" d="M74.9,70c0,0-0.7,0-0.7,0.8l0,0c-0.8,0-0.8,0-0.8,0.7v0.8l0,0l0,0
		c0,0.7,0.8,1.4,0.8,1.4c1.4,0.8,2.1-0.8,2.1-1.4C76.4,71.4,76.4,70,74.9,70L74.9,70z"/>
	<path fill-rule="evenodd" clip-rule="evenodd" fill="#201306" d="M62.1,80.2c-1.4,0-2.2,0-2.9,0.7c-0.8,0.8-0.8,2.2-0.8,2.9l0,0
		c0,0.8,0,1.4,0.8,2.2c0.7,0.8,2.1,0,2.9-0.8C62.7,84.5,63.5,81.6,62.1,80.2L62.1,80.2z"/>
	<path fill-rule="evenodd" clip-rule="evenodd" fill="#201306" d="M48.4,57.6c0-0.7-0.8-1.4-1.4-0.7l0,0c-0.8,0-0.8,0-0.8,0.7
		c-1.4,0.8-2.1,3.7,0,4.4c0.8,0,2.2-0.8,2.2-1.6C49.1,59.8,49.1,58.4,48.4,57.6L48.4,57.6z"/>
	<path fill-rule="evenodd" clip-rule="evenodd" fill="#201306" d="M38.3,58.4c0-0.8-1.4-0.8-2.1,0c-0.8,0-1.4,1.4-0.8,2.1
		c0.8,0.8,1.4,0.8,1.4,0c0.8,0,0.8,0,0.8-0.7l0,0c0,0,0.7,0,0.7-0.8C39.1,59.1,39.1,58.4,38.3,58.4L38.3,58.4z"/>
	<path fill-rule="evenodd" clip-rule="evenodd" fill="#201306" d="M44.8,65c-0.7,0-0.7,0-0.7-0.8c-0.8,0-0.8,0-0.8,0
		c-0.7-0.7-1.4-0.7-2.1,0c-0.8,0.8-1.5,1.4-0.8,2.2c0,0.7,0,1.4,0.8,2.1c0,0.8,1.4,0.8,2.1,0.8c0.8-0.8,1.4-0.8,1.4-1.4
		C45.6,66.4,45.6,65.6,44.8,65L44.8,65z"/>
	<path fill-rule="evenodd" clip-rule="evenodd" fill="#201306" d="M47,78.7L47,78.7V78c0,0,0,0-0.8,0c-0.7-0.7-1.4-0.7-2.1-0.7
		c-2.2,0-2.2,2.1-0.8,2.9c0.8,0.7,0.8,0.7,1.4,0.7c0.8,0,1.4,0,1.4,0C47,80.2,47,79.4,47,78.7L47,78.7z"/>
	<path fill-rule="evenodd" clip-rule="evenodd" fill="#201306" d="M53.5,86c-1.5-1.4-4.4,0-4.4,2.2c0,0.7,0,0.7,0.8,0.7
		c0,0.8-0.8,0.8-0.8,1.4c0,0.8,1.4,1.4,2.2,1.4c1.4-0.7,2.2-1.4,2.9-2.1C54.1,88.2,54.1,86.7,53.5,86L53.5,86z"/>
	<path fill-rule="evenodd" clip-rule="evenodd" fill="#201306" d="M44.1,82.3c0,0,0,0-0.8,0c0,0.8,0,0.8,0,0.8s0,0-0.7,0.7
		c0,0,0,0.8,0.7,1.4c0.8,0.8,1.4,0,2.2-0.7C45.6,83.7,45.6,83.1,44.1,82.3L44.1,82.3z"/>
	<path fill-rule="evenodd" clip-rule="evenodd" fill="#201306" d="M54.1,70c0-1.4-1.4-2.9-2.9-2.1c-0.8,0-2.2,1.4-1.4,2.9
		c0,0.7,0,1.4,0.7,1.4c0.8,0,0.8,0.7,1.4,0.7C54.1,72.2,54.9,71.4,54.1,70L54.1,70z"/>
	<path fill-rule="evenodd" clip-rule="evenodd" fill="#201306" d="M54.1,77.3c-0.7-0.8-1.4,0-1.4,0l0,0c-0.8,0-0.8,0.7-0.8,0.7
		c0,0.8,0,1.4,0,1.4c0.8,0.8,1.5,0.8,2.2,0.8c0.8-0.8,0.8-1.4,0.8-2.2C54.9,77.3,54.1,77.3,54.1,77.3L54.1,77.3z"/>
	<path fill-rule="evenodd" clip-rule="evenodd" fill="#201306" d="M57,57.6C56.3,57,55.6,57,54.9,57c-0.8,0-1.4,0.7-1.4,1.4
		c-0.8,0.7-1.5,2.1,0,3.7c0,0,0.7,0.7,1.4,0.7c0,0,0,0,0.7,0c0.8,0,2.2-0.7,2.2-2.2C58.4,59.1,58.4,57.6,57,57.6L57,57.6z"/>
	<path fill-rule="evenodd" clip-rule="evenodd" fill="#201306" d="M53.5,46.7c0-1.4-1.5-1.4-2.2-1.4c-1.4,0-2.2,1.4-2.9,2.2v0.7
		c0,0.8-0.8,0.8-0.8,0.8c0,0.8,0,2.2,0.8,2.9c0.7,0.8,1.4,0.8,2.1,0C52.7,51.2,54.1,48.2,53.5,46.7L53.5,46.7z"/>
	<path fill-rule="evenodd" clip-rule="evenodd" fill="#201306" d="M44.8,53.3c-0.7-1.4-2.1-1.4-2.9-0.7c-0.7,0-1.4,1.4-1.4,2.1
		c0,1.4,0.8,1.4,1.4,1.4c0.8,0,1.4-0.7,1.4-0.7C44.1,54.7,44.8,54.1,44.8,53.3L44.8,53.3z"/>
	<path fill-rule="evenodd" clip-rule="evenodd" fill="#201306" d="M59.2,49c-0.8-0.8-1.4-0.8-2.2-0.8c-0.7,0.8-1.4,0.8-1.4,1.6
		c0,0.7,0,1.4,0.8,2.1c0,0.8,0,0.8,0.7,1.4c0.8,1.4,2.2,0,2.9-0.7c0.8-0.8,0.8-1.4,0.8-2.2C60.6,49,59.9,49,59.2,49L59.2,49z"/>
	<path fill-rule="evenodd" clip-rule="evenodd" fill="#201306" d="M67.1,54.7c0,0,0,0,0-0.7c-0.8,0-0.8,0-0.8,0s0,0,0-0.8h-0.7l0,0
		c-0.8-0.7-1.5,0-1.5,0c-2.1,0-2.1,2.2-1.4,2.9c0.8,1.4,3,1.4,3.6,0.8C67.1,56.2,67.8,56.2,67.1,54.7L67.1,54.7z"/>
	<path fill-rule="evenodd" clip-rule="evenodd" fill="#201306" d="M87.2,64.2c-0.7-0.7-1.4-1.4-2.1-2.1c0-0.8-0.8-0.8-1.4-0.8
		c-0.8-1.4-0.8-2.2-1.4-2.9c-1.4-1.4-2.9-0.8-2.9-2.9c-0.8-0.8-0.8-2.2-2.2-2.2c-0.8,0-0.8,1.4,0,1.4c0.7,0,0.7,2.2,1.4,2.9
		c0,0.8,0.8,1.4,2.2,1.4c0.7,0.8,1.4,3,2.9,3.7c1.4,0,1.4,1.4,2.9,2.2C86.5,65.6,87.9,65,87.2,64.2L87.2,64.2z"/>
	<path fill-rule="evenodd" clip-rule="evenodd" fill="#201306" d="M86.5,63.5c-0.8,0-0.8,0.7,0,0.7C87.2,64.2,87.2,63.5,86.5,63.5
		L86.5,63.5z"/>
	<path fill-rule="evenodd" clip-rule="evenodd" fill="#201306" d="M96.5,66.4c-2.9,0-7.2,0.7-8.6-2.2c-0.8-0.7-0.8-0.7-0.8-0.7
		c-0.7,0-0.7,0-0.7,0c-0.8,0.7-0.8,1.4,0,1.4l0,0l0.7,0.7c0.8,0.8,1.4,1.4,2.2,1.4c2.2,1.4,5.1,0.8,7.2,0.8
		C97.3,67.9,97.3,66.4,96.5,66.4L96.5,66.4z"/>
	<path fill-rule="evenodd" clip-rule="evenodd" fill="#201306" d="M99.4,62.1c0-0.8-0.7-0.8-1.4-0.8c-0.7,0-0.7,0-1.4,0
		c-0.7,0.8-0.7,0.8-1.4,1.4c0,0-0.7,0-0.7,0.8l0,0c0,0.7,0.7,1.4,1.4,1.4l0,0l0,0l0,0c0.7,0,1.4,0,2.1,0
		C98.7,64.2,100.1,63.5,99.4,62.1L99.4,62.1z"/>
	<path fill-rule="evenodd" clip-rule="evenodd" fill="#201306" d="M91.6,58.4c-0.8-0.8-1.5-0.8-2.2-0.8c-0.8,0-1.4,0.8-1.4,0.8
		c-0.8,0.7-0.8,2.1,0,2.1c0.7,0.8,0.7,0.8,0.7,0.8s0,0,0.8,0c0.7,0,1.4,0,2.2-0.8C92.2,59.8,92.2,59.1,91.6,58.4L91.6,58.4z"/>
	<path fill-rule="evenodd" clip-rule="evenodd" fill="#201306" d="M89.4,46.7c-0.8-0.7-0.8-0.7-1.4-0.7c0,0-0.8,0-1.4,0l0,0
		c-0.8,0.7-0.8,0.7-0.8,1.4c0,0.7,0.8,1.4,1.4,1.4l0.8-0.8c0.7,0,0.7,0,1.4,0C89.4,47.5,89.4,46.7,89.4,46.7L89.4,46.7z"/>
	<path fill-rule="evenodd" clip-rule="evenodd" fill="#201306" d="M87.2,52.6c-0.7-0.8-1.4-1.4-2.1-1.4c-0.8,0.7-1.4,0.7-2.2,1.4
		c0,0,0,0.7,0,1.4c0.8,0,0.8,0,0.8,0v0.7c0,0,0.7,0,1.4,0C85.7,54.7,87.2,54.1,87.2,52.6L87.2,52.6z"/>
	<path fill-rule="evenodd" clip-rule="evenodd" fill="#201306" d="M95.1,35.8c0-0.7-0.7-0.7-0.7,0c0,0,0,0-0.8,0
		c0,0.8,1.4,1.6,1.4,0.8l0,0C95.9,36.6,95.9,35.8,95.1,35.8L95.1,35.8z"/>
	<path fill-rule="evenodd" clip-rule="evenodd" fill="#201306" d="M97.3,39.5c0-0.7-0.8-0.7-1.4,0l0,0l0,0c0,0.8,0,0.8,0,0.8V41h0.7
		l0,0c0.8,0,0.8,0,0.8,0C97.9,40.3,97.9,39.5,97.3,39.5L97.3,39.5z"/>
	<path fill-rule="evenodd" clip-rule="evenodd" fill="#201306" d="M98.7,30.8h-0.8c-0.7,0-0.7,0.7-0.7,0.7s-0.8,0.8-0.8,1.4
		c0.8,0.8,1.4,1.4,2.2,0.8c0.7,0,0.7-0.8,0.7-1.4C99.4,31.5,99.4,30.8,98.7,30.8L98.7,30.8z"/>
	<polygon fill-rule="evenodd" clip-rule="evenodd" fill="#201306" points="88.6,34.4 88.6,34.4 88.6,34.4 	"/>
	<path fill-rule="evenodd" clip-rule="evenodd" fill="#201306" d="M90.8,32.3c-0.8-0.8-0.8-0.8-1.4,0c-0.8,0-0.8,0-0.8,0.7l0,0v0.8
		v0.7h0.8l0,0H90c0.8,0,0.8,0,0.8,0c0.8,0,0.8-0.7,0.8-0.7C92.2,33,91.6,32.3,90.8,32.3L90.8,32.3z"/>
	<path fill-rule="evenodd" clip-rule="evenodd" fill="#201306" d="M93,23.6c-0.8-0.8-1.4-0.8-2.2-0.8h-1.4c-0.8,0-1.4,1.4-1.4,2.2
		c0.7,0.7,1.4,1.4,2.1,1.4c0,0,0,0,0.8,0c0.8,0.7,1.4,0,2.2-0.8C93.7,25.1,93.7,24.3,93,23.6L93,23.6z"/>
	<path fill-rule="evenodd" clip-rule="evenodd" fill="#201306" d="M84.3,27.2c-0.7-0.7-1.4-0.7-2.1-0.7c-0.8,0.7-1.4,1.4-1.4,2.1
		c0,0.8,0,1.4,0,1.4l0.7,0.8c0,0.7,1.4,0.7,2.2,0.7c0.7-0.7,1.4-1.4,1.4-2.1C85.1,28.6,85.1,27.9,84.3,27.2L84.3,27.2z"/>
	<path fill-rule="evenodd" clip-rule="evenodd" fill="#201306" d="M74.3,30.1c-0.8-0.7-0.8-0.7-1.4-0.7h-0.8l0,0
		c-0.7,0-0.7,0.7-0.7,0c-0.8,0.7-0.8,2.1-0.8,2.9c0,0,0,0.7,0.8,0.7c-0.8,0-0.8,0,0,0.8c0,0,0,0.7,0.7,0.7c0,0,0.8,0,1.4,0
		c0.8-0.7,0.8-1.4,0.8-2.1C74.3,31.5,74.9,30.1,74.3,30.1L74.3,30.1z"/>
	<path fill-rule="evenodd" clip-rule="evenodd" fill="#201306" d="M59.2,18.5c0,0,0-0.8,0-1.4c0-0.8-1.4-1.4-2.2-1.4
		c-0.7,0.7-0.7,0.7-0.7,1.4c-0.8,0-1.4,0.7-1.4,2.1c0,0.8,0.7,2.2,1.4,2.9c0.7,0,2.1-0.7,2.9-1.4C59.2,19.9,59.2,19.2,59.2,18.5
		L59.2,18.5z"/>
	<path fill-rule="evenodd" clip-rule="evenodd" fill="#201306" d="M64.9,6.8c0-0.7-0.8-1.4-1.4-1.4c-1.4,0-3.6,0.8-3.6,2.9l0.8,0.8
		c0,0.7,0.7,0.7,1.4,1.4c0.7,0,1.4,0,2.1-0.8C64.9,9.1,65.7,7.6,64.9,6.8L64.9,6.8z"/>
	<path fill-rule="evenodd" clip-rule="evenodd" fill="#201306" d="M51.3,10.5c-0.8,0-1.4,1.4-2.2,1.4c0,1.4-0.7,2.2,0,2.9
		c0.8,1.4,2.2,0.8,2.2,0c0.7,0,0.7-0.7,0.7-1.4c0.8-0.7,0.8-0.7,0.8-0.7C52.7,11.3,51.9,10.5,51.3,10.5L51.3,10.5z"/>
	<path fill-rule="evenodd" clip-rule="evenodd" fill="#201306" d="M57.8,25.7c-0.8-0.7-0.8-0.7-1.4-0.7c-0.8,0-0.8-0.8-1.4,0
		c0,0,0,0,0,0.7v0.8c-0.8,0.7,0,0.7,0,0.7c0,0.8,0.7,1.4,2.1,0.8c0,0,0-0.8,0.8-0.8C57.8,26.5,57.8,25.7,57.8,25.7L57.8,25.7z"/>
	<path fill-rule="evenodd" clip-rule="evenodd" fill="#201306" d="M56.3,35.8c-0.8,0-1.4,0.8-2.2,1.6l0,0c0,0.7,0,1.4,0,1.4
		s0,0,0.8,0.7l0,0h0.7c0.8,0,0.8-0.7,0.8-0.7C57,37.4,57,36.6,56.3,35.8L56.3,35.8z"/>
	<path fill-rule="evenodd" clip-rule="evenodd" fill="#201306" d="M54.9,39.5c-0.8,0-0.8,0-0.8-0.7C54.9,39.5,54.9,39.5,54.9,39.5
		L54.9,39.5z"/>
	<path fill-rule="evenodd" clip-rule="evenodd" fill="#201306" d="M62.7,40.3c-1.4-0.8-2.9-0.8-3.5,0.7c-0.8,0-0.8,1.4-0.8,2.2
		c0,0.7,0.8,0.7,0.8,0.7l0,0c0.7,0.8,1.4,0.8,2.1,0.8c0.8,0,1.4-0.8,2.2-1.4C63.5,41.7,63.5,41,62.7,40.3L62.7,40.3z"/>
	<path fill-rule="evenodd" clip-rule="evenodd" fill="#201306" d="M62.7,28.6c-0.7,0-1.4-0.7-2.9,0c0,0-0.7,0.8-0.7,1.4
		c0,0.8,0.7,1.4,0.7,1.4c0,0.8,0,1.4,0.8,1.4l0,0c1.4,0.8,2.1,0.8,2.9,0c0.7-0.7,1.4-1.4,1.4-2.1C64.9,29.4,64.2,28.6,62.7,28.6
		L62.7,28.6z"/>
	<path fill-rule="evenodd" clip-rule="evenodd" fill="#201306" d="M71.4,38.8c-0.8-1.4-2.9-0.8-2.9,0.7c0,0.8,0,1.4,0,2.2v0.7
		c0,1.4,1.4,1.4,2.1,1.4c0.8-0.7,1.4-1.4,1.4-2.1C72.1,41,72.1,39.5,71.4,38.8L71.4,38.8z"/>
	<path fill-rule="evenodd" clip-rule="evenodd" fill="#201306" d="M55.6,5.4c-0.7-1.4-2.9-1.4-3.6,0v0.8c0,1.4,0.8,2.1,2.2,2.1
		c0.8,0,0.8-0.7,1.4-0.7C56.3,6.8,56.3,6.2,55.6,5.4L55.6,5.4z"/>
	<path fill-rule="evenodd" clip-rule="evenodd" fill="#201306" d="M68.6,17.7c0-0.7,0.7-1.4,0-2.1c-1.4-1.4-2.9,0.7-3.6,2.1
		c-0.8,0.8-0.8,2.2,0,2.9c0,0.8,0.8,1.4,2.2,1.4c0.7-0.7,1.4-0.7,2.1-2.1C69.2,19.2,68.6,18.5,68.6,17.7L68.6,17.7z"/>
	<path fill-rule="evenodd" clip-rule="evenodd" fill="#201306" d="M79.3,16.3c0-1.4-0.8-2.1-1.5-2.1c-0.7-0.8-1.4-0.8-2.1,0l0,0
		c-0.8,0-1.4,0.7-1.4,0.7c-0.8,0.8-0.8,1.4,0,2.2c0.7,1.4,1.4,3.6,3.5,2.9C79.3,19.9,79.3,17.7,79.3,16.3L79.3,16.3z"/>
	<path fill-rule="evenodd" clip-rule="evenodd" fill="#201306" d="M72.1,23.6c-0.7,0-0.7,0-1.4,0c0,0-0.7,0.7-0.7,1.4l0,0
		c0,0,0.7,0.7,1.4,0.7c0.7,0,1.4,0,1.4-1.4C72.9,23.6,72.9,23.6,72.1,23.6L72.1,23.6z"/>
	<path fill-rule="evenodd" clip-rule="evenodd" fill="#201306" d="M85.7,9.7c0-0.7-0.7-0.7-1.4-0.7c-0.7,0-0.7,0.7-0.7,0.7
		s0,0,0,0.8l0,0l0,0c0,0.8,0,0.8,0.7,0.8c0,0,0.8,0.7,1.4,0C86.5,11.3,86.5,10.5,85.7,9.7L85.7,9.7z"/>
	<path fill-rule="evenodd" clip-rule="evenodd" fill="#201306" d="M85.1,17.7h-0.8h-0.7l0,0l0,0l0,0c-0.8,0.8-0.8,0.8-0.8,1.4l0,0
		c0,0,0,0,0,0.8c0,0,0,0.7,0.8,0.7h0.7l0.8-0.7c0.7,0,0.7-0.8,0.7-0.8C85.7,18.5,85.7,18.5,85.1,17.7L85.1,17.7z"/>
	<path fill-rule="evenodd" clip-rule="evenodd" fill="#201306" d="M95.1,16.3c-0.7-0.7-1.4,0-2.1,0.8c0,0.7,0,0.7,0.7,0.7
		c0,0.8,0,0.8,0.8,0.8l0,0c0.7,0,0.7,0,1.4-0.8v-0.7C95.9,16.3,95.9,16.3,95.1,16.3L95.1,16.3z"/>
	<path fill-rule="evenodd" clip-rule="evenodd" fill="#201306" d="M95.9,9.1h-0.8c0-0.8,0-0.8,0-0.8c-0.7,0-1.4-0.7-1.4,0
		c-1.4,0-1.4,0.8-1.4,1.4c0,0.8,0,0.8,0,1.6c0,0.7,0,1.4,0.8,1.4c0.7,0,1.4,0,1.4-0.8c0.7-0.7,0.7-0.7,0.7-0.7l0,0l0,0
		C95.9,11.3,96.5,9.7,95.9,9.1L95.9,9.1z"/>
	<path fill-rule="evenodd" clip-rule="evenodd" fill="#201306" d="M101.6,14.2c-0.8,0-1.4,0.7-1.4,1.4c0,0.7,0,1.4,0.7,1.4v0.7
		c0.8,0,2.2,0,3-0.7C104.4,15.6,103,14.2,101.6,14.2L101.6,14.2z"/>
	<path fill-rule="evenodd" clip-rule="evenodd" fill="#201306" d="M107.3,4.7c0-1.4-2.9-1.4-3.5-0.8c-0.8,0.8-1.5,1.4-1.5,2.2
		c-0.7,0.7,0,1.4,0.8,2.1c0,0,0.8,0,1.4,0h0.8c1.4,0,2.1,0,2.1-0.7C108.1,6.8,108.1,5.4,107.3,4.7L107.3,4.7z"/>
	<path fill-rule="evenodd" clip-rule="evenodd" fill="#201306" d="M111.6,12.7c-0.7,0-1.4,0-2.1,0c-0.8,0.7-1.4,0.7-1.4,1.4
		l-0.8,0.7c0,0.8,0,2.2,0.8,2.2c0.7,0.7,1.4,0.7,2.1,0.7c0.8-0.7,1.4-1.4,2.2-2.1C112.4,14.8,112.4,13.4,111.6,12.7L111.6,12.7z"/>
	<path fill-rule="evenodd" clip-rule="evenodd" fill="#201306" d="M101.6,23.6c-0.8-0.8-1.4-0.8-2.2,0c0,0.7,0,0.7,0,0.7
		c-0.7,0.8,0,2.2,0.8,2.2c0.7,0,2.1-1.4,2.1-2.2C102.2,24.3,102.2,23.6,101.6,23.6L101.6,23.6z"/>
	<path fill-rule="evenodd" clip-rule="evenodd" fill="#201306" d="M108.1,24.3c-0.8,0-2.2,0.8-1.4,1.4v0.8l0,0
		c0,0.7,0.7,0.7,1.4,0.7c0.7-0.7,0.7-1.4,0.7-2.1C108.7,25.1,108.7,24.3,108.1,24.3L108.1,24.3z"/>
	<path fill-rule="evenodd" clip-rule="evenodd" fill="#201306" d="M105.9,56.2c-0.7,0-0.7,0-0.7,0l-0.8,0.8l0,0l0,0l0,0l0,0l0,0
		c-0.7,0,0,1.4,0.8,1.4l0,0c1.4,0,1.4-0.8,1.4-1.4C106.6,56.2,105.9,56.2,105.9,56.2L105.9,56.2z"/>
	<polygon fill-rule="evenodd" clip-rule="evenodd" fill="#201306" points="104.4,57 104.4,57 104.4,57 104.4,57 104.4,57 	"/>
	<path fill-rule="evenodd" clip-rule="evenodd" fill="#201306" d="M104.4,57L104.4,57L104.4,57z"/>
	<path fill-rule="evenodd" clip-rule="evenodd" fill="#201306" d="M105.9,46.1L105.9,46.1L105.9,46.1L105.9,46.1L105.9,46.1
		c-0.7,0-0.7,0-0.7,0l0,0l0,0l0,0l0,0l0,0l0,0c0,0.7-0.8,0.7,0,1.4l0,0l0,0l0,0c0,0.7,0.7,0.7,0.7,0h0.8l0,0l0,0
		C106.6,46.7,106.6,46.7,105.9,46.1L105.9,46.1z"/>
	<path fill-rule="evenodd" clip-rule="evenodd" fill="#201306" d="M110.9,51.2c-0.8-0.8-0.8-0.8-1.4-1.4c-0.8,0-1.4,0-1.4,0.7
		c0,0-0.8,0-0.8,0.8l0,0v0.7v0.8c0,0.7,0,1.4,0.8,2.1c0.7,0,1.4,0,1.4-0.7c0.7,0,0.7-0.8,0.7-1.4C110.2,52.6,110.9,51.8,110.9,51.2
		L110.9,51.2z"/>
	<path fill-rule="evenodd" clip-rule="evenodd" fill="#201306" d="M79.3,45.3c-0.8,0-0.8-0.7-0.8-0.7c0-0.8-0.8-0.8-0.8-0.8h-0.7
		l-0.8,0.8c0,0.7,0.8,0.7,0.8,0.7l0,0c0,0.8,0,0.8,0,0.8c0,0.7,0.7,1.4,1.4,0.7c0.8,0,0.8,0,0.8-0.7V45.3L79.3,45.3z"/>
	<path fill-rule="evenodd" clip-rule="evenodd" fill="#201306" d="M72.1,88.2c0-1.4-0.7-3-2.9-3c-1.4-0.7-2.1,0.8-2.1,2.2
		c-0.8,0.8,0,1.4,0,2.2c0.7,0.7,1.4,1.4,1.4,1.4c1.4,1.4,2.9,0,3.5-0.8c0-0.7,0-1.4,0-1.4V88.2L72.1,88.2z M70,88.9L70,88.9L70,88.9
		c0,0,0,0,0-0.7V88.9L70,88.9L70,88.9L70,88.9z"/>
	<path fill-rule="evenodd" clip-rule="evenodd" fill="#201306" d="M64.2,74.4c0-0.8-0.7-0.8-0.7-1.6h-0.8h-0.7
		c-1.4,0.8-1.4,2.2-0.8,3.7c0,0.8,1.4,0.8,2.2,0c0,0,0.7-0.7,0.7-1.4l0,0V74.4L64.2,74.4z"/>
	<path fill-rule="evenodd" clip-rule="evenodd" fill="#201306" d="M73.5,78.7c0-0.8,0-0.8,0-0.8c-0.7-0.7-1.4-1.4-2.1-0.7
		c-0.8,0-1.4,0-1.4,0.7c0,0.8,0,0.8,0,1.4c0,0,0,0.8,0.7,0.8l0,0l0,0h0.8l0,0h0.7c0.8,0,0.8-0.8,0.8-0.8
		C73.5,79.4,73.5,78.7,73.5,78.7L73.5,78.7L73.5,78.7z"/>
	<path fill-rule="evenodd" clip-rule="evenodd" fill="#201306" d="M73.5,78c0,0,0,0,0,0.8C73.5,78.7,73.5,78.7,73.5,78L73.5,78z"/>
	<path fill-rule="evenodd" clip-rule="evenodd" fill="#201306" d="M58.4,94.6c-0.7-1.4-1.4-1.4-2.9-1.4c-0.7,0-2.1,0.8-2.9,1.4
		c-0.8,0-1.4,2.2-1.4,2.9c0.7,2.2,3.6,2.2,5.7,1.4c0.8-0.7,1.4-0.7,1.4-2.1C59.2,96.1,59.2,95.4,58.4,94.6L58.4,94.6z"/>
	<path fill-rule="evenodd" clip-rule="evenodd" fill="#201306" d="M71.4,101.2c0-0.7,0-1.4-0.8-1.4c-0.7,0-1.4,0-2.1,0.8v0.7
		c-0.8,0.8-0.8,1.4-0.8,1.4c0.8,1.4,1.4,1.4,2.2,1.4c0.7,0,1.4-0.7,1.4-1.4C71.4,102.6,71.4,102,71.4,101.2L71.4,101.2z"/>
	<path fill-rule="evenodd" clip-rule="evenodd" fill="#201306" d="M64.9,92.5c-0.8-0.8-1.4,0-2.2,0c0,0.7,0,1.4-0.7,2.1
		c0,0.8,0,1.4,0.7,1.4c0,0.8,0.8,0.8,0.8,0.8c0.7,0,0.7,0,0.7,0c1.5,0,2.2-1.4,2.2-2.9C66.4,93.2,65.7,92.5,64.9,92.5L64.9,92.5z"/>
	<path fill-rule="evenodd" clip-rule="evenodd" fill="#201306" d="M54.9,114.3c-1.4,0.7-1.4,2.1-0.8,2.9c0,0.7,0.8,0.7,1.4,0.7
		c0,0.8,0,0.8,0,0.8c1.4,0,2.9-0.8,3.6-1.4C59.9,114.3,56.3,112.1,54.9,114.3L54.9,114.3z"/>
	<path fill-rule="evenodd" clip-rule="evenodd" fill="#201306" d="M52.7,128.1c-0.8,0-1.4-0.8-2.2,0c-0.7-0.8-2.1,0-2.1,0
		c-1.4,0-2.2,0.7-2.2,2.1c0,1.4,1.4,2.2,2.2,2.9c2.1,0.8,5.7,0.8,5.7-2.1C54.1,130.2,53.5,128.8,52.7,128.1L52.7,128.1z"/>
	<path fill-rule="evenodd" clip-rule="evenodd" fill="#201306" d="M51.9,120.1c-0.7-0.8-1.4-0.8-2.1,0c-0.8,0.7-0.8,2.1,0,2.9
		c0.7,0,0.7,0,0.7,0c0.8,0,1.4,0,2.2-0.8c0,0,0.8-0.7,0.8-1.4C52.7,120.8,52.7,120.1,51.9,120.1L51.9,120.1z"/>
	<path fill-rule="evenodd" clip-rule="evenodd" fill="#201306" d="M62.7,133.1c0-0.7,0-0.7,0-1.4l0,0l0,0c0-0.7,0-1.4-0.7-1.4
		c-0.8,0-0.8,0-0.8,0c-0.7,0-0.7,0-1.4,0c-1.4,0.8-1.4,2.9-0.7,4.3c0.7,1.4,2.9,2.2,3.5,0.8C62.7,134.5,62.7,133.1,62.7,133.1
		L62.7,133.1z"/>
	<path fill-rule="evenodd" clip-rule="evenodd" fill="#201306" d="M57.8,139.7c0-0.7-1.4-0.7-2.2-0.7c-1.4,0-1.4,0.7-2.1,2.1l0,0
		c0,0.8,0,1.4,0,2.2c0.7,1.4,1.4,1.4,2.1,1.4c0.8,0,2.2-0.8,2.2-1.4C58.4,141.9,58.4,141.1,57.8,139.7L57.8,139.7z M55.6,141.1
		L55.6,141.1c0.8,0,0.8,0,0.8,0l0,0l0,0H55.6L55.6,141.1L55.6,141.1z"/>
	<path fill-rule="evenodd" clip-rule="evenodd" fill="#201306" d="M67.8,134.5c0,0,0-0.7-0.7-0.7c0,0,0,0-0.8,0c0,0-0.7,0-0.7,0.7
		c0,0,0,0,0,0.8c-0.8,0-0.8,0.7-0.8,1.4c0,0,0,0.8,0.8,0.8C67.1,137.5,68.6,136,67.8,134.5L67.8,134.5z"/>
	<path fill-rule="evenodd" clip-rule="evenodd" fill="#201306" d="M43.4,139c-0.7,0-1.4,0-2.1,0c-0.8,0-1.5,0.7-1.5,1.4
		c-0.7,1.4-0.7,2.9,0.8,3.6c0.8,0,1.4,0,2.2,0c0.7,0,0.7,0,1.4,0c0.7,0,0.7-0.7,1.4-1.4C45.6,141.1,44.8,139.7,43.4,139L43.4,139z"
		/>
	<path fill-rule="evenodd" clip-rule="evenodd" fill="#201306" d="M33.3,137.5h-0.8l-0.7,0.7v0.8c0,0.7,0,0.7,0.7,0.7c0,0,0,0,0.8,0
		l0,0l0,0L34,139C34,138.2,33.3,137.5,33.3,137.5L33.3,137.5z"/>
	<path fill-rule="evenodd" clip-rule="evenodd" fill="#201306" d="M46.2,170.9c-0.7-0.8-1.4-0.8-2.9-0.8c-0.7,0-1.4,0-2.1,0.8
		c-1.5,1.4-0.8,2.9,0,3.6c0,0.8,0.7,1.6,1.4,2.2c0.7,0.8,2.1,0.8,2.9,0C47.7,176,48.4,172.3,46.2,170.9L46.2,170.9z M44.1,173
		c0-0.7-0.8-0.7-0.8-0.7l0,0C43.4,172.3,44.1,172.3,44.1,173L44.1,173L44.1,173z"/>
	<path fill-rule="evenodd" clip-rule="evenodd" fill="#201306" d="M46.2,154.9c-1.4,0-4.3,0-4.3,2.2c-0.7,2.1,1.4,3.6,3.6,3.6
		c1.4,0,2.1,0,3.5-1.4C50.5,157.1,48.4,155.7,46.2,154.9L46.2,154.9z"/>
	<path fill-rule="evenodd" clip-rule="evenodd" fill="#201306" d="M33.3,161.4c-1.4-1.4-3.6,0-4.3,2.2c0,1.4,0.7,2.9,2.1,2.9
		c0.8,0.7,2.2,0,2.9-0.8c0.8-0.7,0.8-1.4,0.8-2.1C34.8,162.1,34.8,161.4,33.3,161.4L33.3,161.4z"/>
	<path fill-rule="evenodd" clip-rule="evenodd" fill="#201306" d="M39.1,148.3c-1.4-0.7-2.9-0.7-3.6,0.8c-0.7,1.4,0,2.9,0.8,3.7
		c0.7,0,0.7,0,1.4,0l0,0c1.4,0.7,2.1-0.8,2.9-1.4C41.3,149.9,39.7,148.3,39.1,148.3L39.1,148.3z"/>
	<path fill-rule="evenodd" clip-rule="evenodd" fill="#201306" d="M51.9,146.9c0,0-0.7,0-1.4,0c-0.7,0-1.4,1.4-1.4,2.2
		c0,0,0,0,0.8,0.8c-0.8,0-0.8,0.7,0,1.4c0.7,0,1.4,0,2.1-0.8C52.7,149.9,53.5,147.7,51.9,146.9L51.9,146.9z"/>
	<path fill-rule="evenodd" clip-rule="evenodd" fill="#201306" d="M57.8,165.1c-0.8-1.4-1.4-1.4-2.9-1.4c-0.8,0.7-1.4,1.4-1.4,2.9
		v0.7l0,0c-0.8,1.4,0.7,2.2,1.4,2.2c1.4,0,2.1-0.8,2.9-1.4C57.8,166.5,57.8,165.8,57.8,165.1L57.8,165.1z"/>
	<path fill-rule="evenodd" clip-rule="evenodd" fill="#201306" d="M23.2,179.6c0-1.4-2.1-1.4-2.9-1.4c-0.7,0.8-0.7,1.4-1.4,1.4
		c0,0.8,0,2.2,0,2.2l0.8,0.7c0,0.8,0.7,1.4,1.4,1.4c0.7,0,1.4-0.7,2.1-1.4C24,181.8,24,180.3,23.2,179.6L23.2,179.6z"/>
	<path fill-rule="evenodd" clip-rule="evenodd" fill="#201306" d="M24,168h-0.8c0,0-0.7,0-0.7,0.7c-0.8,0-1.4,1.4-1.4,2.2
		c0,0.7,0.7,1.4,1.4,2.1c0.7,0,2.1,0,2.9-0.7c0.7,0,1.4-0.8,1.4-2.2S25.4,168,24,168L24,168z"/>
	<path fill-rule="evenodd" clip-rule="evenodd" fill="#201306" d="M14.6,178.9c-0.8-0.8-0.8-2.2-1.4-2.2c-0.8,0-0.8,0-0.8-0.7
		c-0.7,0-1.4,0.7-1.4,1.4c0,0,0,0.7,0,1.4c0.8,0,0.8,0.7,1.4,0.7c0,0,0.8,0.8,1.4,0L14.6,178.9L14.6,178.9z"/>
	<path fill-rule="evenodd" clip-rule="evenodd" fill="#201306" d="M36.9,184.7c-0.7-0.8-1.4-1.4-2.1-1.4c-1.4,0-2.2,0-2.9,0.7
		c-0.8,0.8-0.8,2.2,0,2.9c0,0.8,0.7,0.8,0.7,0.8c0.8,0.8,0.8,0.8,0.8,0.8c0.7,0,1.4,0,2.9-0.8C36.9,186.8,36.9,186.1,36.9,184.7
		L36.9,184.7z M34,185.3L34,185.3c0,0-0.7,0-0.7,0.8c0-0.8,0-0.8,0-0.8S33.3,185.3,34,185.3L34,185.3z"/>
	<path fill-rule="evenodd" clip-rule="evenodd" fill="#201306" d="M31.9,174.4c0,0-0.8,0-1.4,0h-0.8c-1.4,0.8-2.2,3,0,3.7
		c0.8,0,0.8,0,1.4,0c0.8,0,1.4-0.7,2.2-1.4C33.3,176,32.6,174.4,31.9,174.4L31.9,174.4z"/>
	<path fill-rule="evenodd" clip-rule="evenodd" fill="#201306" d="M47,183.9c-0.8-0.7-1.4-0.7-2.2-0.7c-0.7,0-1.4,0-1.4,0
		c-0.7,0-0.7,0.7-0.7,1.4c-0.8,0.7-0.8,0.7,0,1.4l0,0c0,0.7,0,0.7,0,1.4c0.7,0,0.7,0.8,1.4,0.8c0.7,0,2.1,0,2.9-1.6
		C47,186.1,47.7,184.7,47,183.9L47,183.9z"/>
	<path fill-rule="evenodd" clip-rule="evenodd" fill="#201306" d="M43.4,194.1c-0.7-0.8-2.1-1.4-2.9-1.4c-0.8-0.8-2.2-0.8-3.6,0.7
		c-0.7,0.8-0.7,1.4,0,2.2c0.8,0.7,1.4,1.4,2.9,1.4c0.8,0,1.5,0,2.2,0C43.4,196.2,43.4,195.6,43.4,194.1L43.4,194.1z"/>
	<path fill-rule="evenodd" clip-rule="evenodd" fill="#201306" d="M28.3,188.3c-0.8,0-1.4,0-1.4,0c-0.8,0.7-0.8,1.4-0.8,1.4l0,0l0,0
		c0,0.7,0.8,0.7,0.8,0.7c0.7,0,0.7,0,0.7,0l0,0c0.8,0,0.8-0.7,0.8-0.7V189V188.3L28.3,188.3z"/>
	<path fill-rule="evenodd" clip-rule="evenodd" fill="#201306" d="M54.1,183.9c-1.4,0-2.2,0.8-2.2,2.2c-0.7,0.7-0.7,0.7-0.7,1.4
		c0,0.8-0.8,2.2,0,2.9c0.7,0.8,1.4,0.8,2.2,0C56.3,190.4,57.8,183.9,54.1,183.9L54.1,183.9z"/>
	<path fill-rule="evenodd" clip-rule="evenodd" fill="#201306" d="M56.3,177.4c-0.8-1.4-2.2-1.4-2.9-0.8c0,0,0,0.8-0.8,1.4
		c0,0.8,0,1.4,0.8,1.4h0.7l0,0h0.8C56.3,179.6,56.3,178.1,56.3,177.4L56.3,177.4z"/>
	<path fill-rule="evenodd" clip-rule="evenodd" fill="#201306" d="M40.5,163.7c0-0.8-0.8-0.8-0.8-0.8l0,0l0,0h-0.7c0,0,0,0-0.8-0.8
		l-0.7,0.8c-0.8,0.8-0.8,0.8,0,1.4v0.8l0,0c0,0.7,0,0.7,0,0c0,0.7,0,0.7,0.7,0.7c0,0,0,0.8,0.8,0.8c0.7,0,1.4-0.8,1.4-1.4
		C40.5,165.1,40.5,164.3,40.5,163.7L40.5,163.7z"/>
	<path fill-rule="evenodd" clip-rule="evenodd" fill="#201306" d="M39.7,162.9L39.7,162.9L39.7,162.9z"/>
	<path fill-rule="evenodd" clip-rule="evenodd" fill="#201306" d="M34,157.1c0-0.8,0-1.4-0.7-1.4l0,0l0,0c0-0.8-0.8-0.8-0.8-0.8l0,0
		v-0.7c-0.7,0-1.4,0-2.1,0v0.7l0,0c0,0,0,0.8-0.8,0.8c0,0.7,0,1.4,0.8,1.4c0,0.7,0.7,0.7,1.4,0.7c0,0,0.7,0,1.4,0
		C34,157.8,34,157.1,34,157.1L34,157.1L34,157.1z"/>
	<path fill-rule="evenodd" clip-rule="evenodd" fill="#201306" d="M57.8,160c0-0.8-0.8-0.8-1.4-0.8l0,0c-0.8-0.7-1.4-0.7-1.4-0.7
		c-0.8,0.7-0.8,2.1-0.8,2.9c0.8,0,0.8,0,1.4,0.7c0,0,0,0,0.8,0l0,0v-0.7l0,0C57,161.4,57.8,160.7,57.8,160L57.8,160z"/>
	<path fill-rule="evenodd" clip-rule="evenodd" fill="#201306" d="M67.1,192.7c-0.8,0-0.8,0-1.4-0.8c0,0-1.5,0-2.2,0
		c-1.4,0-2.2,1.4-2.2,2.9s1.4,1.4,2.9,1.4c1.5,0.8,3,0,3.6-1.4C68.6,194.1,67.8,193.3,67.1,192.7L67.1,192.7z"/>
	<path fill-rule="evenodd" clip-rule="evenodd" fill="#201306" d="M72.1,185.3c-1.4,0-3.5,0-4.3,1.4c0,0.8-0.7,0.8-0.7,0.8
		c0,1.4,0.7,2.2,1.4,2.2c1.4,0.7,2.9,0,3.5,0c0.8-0.8,1.4-1.4,1.4-2.2C73.5,186.8,72.9,186.1,72.1,185.3L72.1,185.3z"/>
	<path fill-rule="evenodd" clip-rule="evenodd" fill="#201306" d="M79.3,191.9c-0.8-0.7-2.2-0.7-3,0c-0.7,0-1.4,1.4-0.7,2.9
		c0,0,0,0.8,0.7,0.8c0,0,0,0,0.8,0c0.7,0.7,2.2,0,2.9-0.8C80.8,193.3,80,192.7,79.3,191.9L79.3,191.9z"/>
	<path fill-rule="evenodd" clip-rule="evenodd" fill="#201306" d="M86.5,188.3c0-2.2-2.2-2.2-3.6-2.2c-0.7,0-0.7,0-0.7,0
		c-0.8,0-1.4,0.7-0.8,1.4c0,0.8,0.8,1.4,1.4,1.4c0.8,0.8,2.2,0.8,3.6,0V188.3L86.5,188.3z"/>
	<path fill-rule="evenodd" clip-rule="evenodd" fill="#201306" d="M88.6,193.3c-0.7,0-1.4,0-2.1,0c-0.8,0-0.8,0.8-0.8,1.4
		c0,0,0,0,0,0.8c0,0.7,0.8,1.4,1.4,1.4c0.8,0,1.4-0.8,2.2-0.8c0-0.7,0.7-0.7,0.7-1.4C90,194.1,89.4,194.1,88.6,193.3L88.6,193.3z"/>
	<path fill-rule="evenodd" clip-rule="evenodd" fill="#201306" d="M95.1,189c0-0.7,0-0.7-0.7-0.7c-0.8-0.8-1.4-0.8-2.2,0
		c0,0,0,0.7,0,0c0,0.7-0.7,0.7-0.7,1.4c0,0,0.7,0.7,0.7,1.4H93c0.7,0,0.7,0,1.4,0c0-0.8,0.7-0.8,0.7-0.8
		C95.1,189.8,95.1,189.8,95.1,189L95.1,189z"/>
	<path fill-rule="evenodd" clip-rule="evenodd" fill="#201306" d="M99.4,194.1c0-0.8-0.7-1.4-1.4-1.4c-0.7,0-2.1,0-2.9,1.4l0,0
		c0,0.7,0,0.7,0,1.4c0,0,0,0,0.8,0.7c0.7,0,2.1,0,2.9-0.7C99.4,195.6,99.4,194.8,99.4,194.1L99.4,194.1z"/>
	<path fill-rule="evenodd" clip-rule="evenodd" fill="#201306" d="M104.4,185.3c-0.7-0.7-1.4-0.7-2.2,0c-1.4,0.8-2.1,2.2-2.9,3.7
		c0,0.8,0.8,0.8,0.8,1.4c0.7,0,1.4,0,1.4,0c0.7,0,1.4-0.7,1.4-1.4c0.8,0,0.8-0.7,0.8-0.7c0.7-0.8,0.7-0.8,0.7-0.8l0,0v-0.8
		C104.4,186.1,105.2,185.3,104.4,185.3L104.4,185.3z"/>
	<path fill-rule="evenodd" clip-rule="evenodd" fill="#201306" d="M107.3,175.2c-2.1-0.8-3.5,1.4-3.5,3.7l0,0c0,0.7,0,0.7,0,0.7
		c0,1.4,1.4,1.4,2.1,1.4c1.4,0,2.2-1.4,2.9-2.9C108.7,177.4,108.7,175.2,107.3,175.2L107.3,175.2z"/>
	<path fill-rule="evenodd" clip-rule="evenodd" fill="#201306" d="M107.3,167.2c0-0.7-0.7-0.7-1.4,0c-0.7,0-0.7,0.8-0.7,1.4
		c-0.8,0-0.8,0.8,0,1.4l0,0c0,0.8,0,0.8,0.7,0.8c0.8,0.7,1.4,0,1.4-0.8C108.1,169.4,108.7,168,107.3,167.2L107.3,167.2z"/>
	<path fill-rule="evenodd" clip-rule="evenodd" fill="#201306" d="M116.7,157.8c-0.7-1.4-2.2-1.4-3.6-1.4c-0.7,0-1.4,0.8-2.1,1.4
		c-0.8,0-1.4,0.8-2.2,1.4c-0.7,0.8,0,2.2,0.8,2.9c0.7,0.8,2.1,0.8,3.5,0C115.2,162.1,118.1,160,116.7,157.8L116.7,157.8z"/>
	<path fill-rule="evenodd" clip-rule="evenodd" fill="#201306" d="M116.7,167.2c-0.7-0.7-2.2-0.7-2.9-0.7c-1.4,0.7-2.9,3.6-0.8,4.3
		c0,0,0,0,0.8,0l0,0c1.4,0,2.2,0,2.9-1.4C116.7,168.7,117.4,168,116.7,167.2L116.7,167.2z"/>
	<path fill-rule="evenodd" clip-rule="evenodd" fill="#201306" d="M116.7,175.2c0-0.8-0.7-0.8-1.4-0.8s-1.4,0-2.2,0.8
		c-0.7,0-1.4,0-1.4,1.4c0,0.8,0.8,1.4,1.4,1.4c1.4,0,2.2,0,3-0.7C116.7,176.7,116.7,176,116.7,175.2L116.7,175.2z"/>
	<path fill-rule="evenodd" clip-rule="evenodd" fill="#201306" d="M127.4,162.9c-0.8-0.8-1.4-1.4-2.2-1.4c-0.7,0-2.1,0-2.9,0.7
		c0,0,0,1.6,0,2.2l0,0c0,0.8,0,1.4,0.8,2.2l0,0c0.7,0,0.7,0,0.7,0.7c1.4,0,2.9,0,3.6-1.4C128.2,165.1,128.9,163.7,127.4,162.9
		L127.4,162.9z"/>
	<path fill-rule="evenodd" clip-rule="evenodd" fill="#201306" d="M125.2,171.5c-0.7-0.7-2.9-1.4-3.5,0.8l0,0
		c-0.8,1.4-0.8,2.1,0,2.9c0.7,0.8,1.4,0.8,2.1,0.8c0.8-0.8,2.2-1.6,2.2-2.2C126.7,173,126,172.3,125.2,171.5L125.2,171.5z"/>
	<path fill-rule="evenodd" clip-rule="evenodd" fill="#201306" d="M123.8,154.9c-0.7,0-0.7-0.7-0.7-0.7c-0.8,0-0.8,0-1.4,0
		c-0.8-0.8-1.4-0.8-2.2,0c0,0.7,0,1.4,0.8,2.1c0,0,0.7,0.8,1.4,0.8c0.7,0,0.7,0,1.4,0C123.8,156.3,123.8,155.7,123.8,154.9
		L123.8,154.9z"/>
	<path fill-rule="evenodd" clip-rule="evenodd" fill="#201306" d="M138.9,170.1c-0.7-0.7-2.1-0.7-3.5,0.8l0,0
		c-0.8,0-1.4,0.7-0.8,1.4c0,2.1,4.3,3.7,5.7,1.4C141.1,172.3,140.3,170.9,138.9,170.1L138.9,170.1z"/>
	<path fill-rule="evenodd" clip-rule="evenodd" fill="#201306" d="M132.5,179.6h-0.8l0,0c-0.7,0-1.4,0-1.4,0.8l0,0
		c0,0-0.7,0-0.7,0.7c0,0.8,0,1.4,0.7,2.2c0.8,0.7,1.4,0.7,2.9,0.7C135.4,183.9,135.4,179.6,132.5,179.6L132.5,179.6z"/>
	<path fill-rule="evenodd" clip-rule="evenodd" fill="#201306" d="M133.2,162.9c0,0-0.7,0-1.4,0l0,0c-0.7,0-0.7,0.8-0.7,0.8
		c0,0.7,0,0.7,0,1.4c0,0,0,0,0,0.7c0.7,0,1.4,0,1.4,0c0.7,0,0.7,0,0.7,0c0-0.7,0.8-0.7,0.8-0.7l0,0v-0.8
		C134.6,163.7,133.9,162.9,133.2,162.9L133.2,162.9z"/>
	<polygon fill-rule="evenodd" clip-rule="evenodd" fill="#201306" points="130.3,172.3 130.3,172.3 130.3,172.3 	"/>
	<path fill-rule="evenodd" clip-rule="evenodd" fill="#201306" d="M131.1,173l-0.8-0.7h-0.7l0,0c0,0,0,0-0.8,0
		c0,0.7-0.7,0.7-0.7,0.7c0,0.8,0,1.4,0.7,2.2c0,0,0,0,0.8,0l0,0c0,0,0,0,0.7,0l0,0l0,0c0.8,0,0.8-0.8,0.8-0.8
		C131.1,173.8,131.1,173.8,131.1,173L131.1,173z"/>
	<path fill-rule="evenodd" clip-rule="evenodd" fill="#201306" d="M144.7,180.3c-1.4-1.4-4.4-3.7-5.8-1.4c-0.7,0.7,0,2.1,0.8,2.9
		l0,0c0,1.4,2.2,2.1,3.6,2.1C145.4,183.9,146.8,181.8,144.7,180.3L144.7,180.3z"/>
	<path fill-rule="evenodd" clip-rule="evenodd" fill="#201306" d="M145.4,173.8c-0.7,0-2.1,0-2.9,0.7c0,0.8,0,0.8,0,1.6
		c0.8,0,0.8,0.7,0.8,0.7l0,0l0,0c0.7,0.8,0.7,0.8,0.7,0.8c0.8,0,0.8,0,1.4,0c0.8,0,0.8-1.4,0.8-1.4
		C146.1,174.4,146.1,174.4,145.4,173.8L145.4,173.8z"/>
	<path fill-rule="evenodd" clip-rule="evenodd" fill="#201306" d="M150.4,187.6c-0.8-0.8-2.2-0.8-2.9-0.8c-1.4,0-2.9,0-2.9,1.6
		c-0.8,0-0.8,0,0,0c-0.8,0.7,0,1.4,0.7,1.4c0.8,0.7,2.2,0.7,2.9,1.4c1.4,0,2.9,0,3.6-1.4C152.5,189,151.1,188.3,150.4,187.6
		L150.4,187.6z"/>
	<path fill-rule="evenodd" clip-rule="evenodd" fill="#201306" d="M154.7,178.9c-0.7-0.8-2.2,0-2.2,0.7c-0.7,0.8-0.7,1.4,0,2.2
		c-0.7,0-0.7,0.7,0,1.4c0.8,0,2.2,0.7,3,0.7c1.4,0,2.9,0,3.5-1.4C159.8,180.3,156.9,178.9,154.7,178.9L154.7,178.9z"/>
	<path fill-rule="evenodd" clip-rule="evenodd" fill="#201306" d="M159.8,189L159.8,189c0-0.7-0.8-1.4-1.4-1.4
		c-1.4,0-3.6,1.4-2.9,2.9c0,2.2,2.9,1.4,3.5,0.8C159.8,190.4,159.8,189.8,159.8,189L159.8,189z"/>
	<path fill-rule="evenodd" clip-rule="evenodd" fill="#201306" d="M167.7,191.2c0-1.4-0.8-2.2-1.4-2.9l0,0c-0.8,0-1.5-0.8-1.5,0
		c-0.7,0-1.4,0.7-1.4,1.4c0,1.4,0,2.1,0,2.9c1.4,1.4,3.6,2.1,5.1,0.7C168.4,192.7,168.4,191.2,167.7,191.2L167.7,191.2z"/>
	<path fill-rule="evenodd" clip-rule="evenodd" fill="#201306" d="M166.9,179.6c-0.7-0.7-1.4-0.7-2.2-0.7c-2.1,0.7-2.9,2.1-1.4,3.6
		l0,0l0,0c0.8,0,0.8,0,0.8,0c0.7,0.8,0.7,0.8,0.7,0.8s0.8,0,1.5,0c0.7-0.8,1.4-1.4,1.4-2.2C167.7,180.3,167.7,179.6,166.9,179.6
		L166.9,179.6z"/>
	<path fill-rule="evenodd" clip-rule="evenodd" fill="#201306" d="M174.9,186.1c0-2.2-2.2-3.7-4.3-2.9c-1.4,0.7-1.4,2.9-0.8,3.6
		c0,0.8,0,1.6,0.8,2.2c0.7,0.8,1.4,1.4,2.1,0.8C174.9,189.8,175.5,187.6,174.9,186.1L174.9,186.1z"/>
</g>
</svg>
