<!-- Generator: Adobe Illustrator 22.0.1, SVG Export Plug-In  -->
<svg version="1.1"
	 xmlns="http://www.w3.org/2000/svg" xmlnsXlink="http://www.w3.org/1999/xlink" xmlnss="http://ns.adobe.com/AdobeSVGViewerExtensions/3.0/"
	 x="0px" y="0px" width="100%" height="100%" viewBox="0 0 152.1 200" overflow="scroll" enable-background="new 0 0 152.1 200"
	 xmlSpace="preserve">
<defs>
</defs>
<g>
	<g id="XMLID_2_">
		<g>
			<polygon fill="#DD0209" points="137.8,13.9 137.8,26.2 27.4,25.8 27.5,13.5 39.5,13.6 39.6,1.2 101,1.4 101,13.7 			"/>
		</g>
		<g>
			<g>
				<path fill="#000001" d="M139,27.4L26.2,27l0-14.7l12.1,0l0-12.3l63.9,0.2l0,12.3l36.8,0.1L139,27.4z M28.7,24.6l107.9,0.4l0-9.8
					L99.7,15l0-12.3l-59-0.2l0,12.3l-12.1,0L28.7,24.6z"/>
			</g>
		</g>
	</g>
	<g>
		<polygon fill="#6C1C10" points="38.4,63.7 38.5,39.2 26.1,39.2 26.2,24.6 65.3,24.7 65.2,39.4 53.1,39.4 53.1,49.1 65.2,49.1 
			65.1,63.8 		"/>
		<path fill="#000001" d="M27.4,25.8L64,25.9l0,12.3l-12.1,0l0,12.2l12.1,0l0,12.3l-24.2-0.1L39.7,38l-12.3,0L27.4,25.8 M25,23.3
			l0,2.5l0,12.2l0,2.5l2.5,0l9.9,0l-0.1,22l0,2.5l2.5,0l24.2,0.1l2.5,0l0-2.5l0-12.3l0-2.5l-2.5,0l-9.6,0l0-7.2l9.6,0l2.5,0l0-2.5
			l0-12.3l0-2.5l-2.5,0l-36.6-0.1L25,23.3L25,23.3z"/>
	</g>
	<g>
		<polygon fill="#6C1C10" points="13.7,75.9 13.8,36.7 28.6,36.7 28.5,61.2 40.9,61.3 40.8,76 		"/>
		<path fill="#000001" d="M15,37.9l12.3,0l-0.1,24.5l12.3,0l0,12.3l-24.7-0.1L15,37.9 M12.6,35.4l0,2.5l-0.1,36.8l0,2.5l2.5,0
			l24.7,0.1l2.5,0l0-2.5l0-12.3l0-2.5l-2.5,0l-9.9,0l0.1-22l0-2.5l-2.5,0l-12.3,0L12.6,35.4L12.6,35.4z"/>
	</g>
	<g>
		
			<rect x="81.3" y="31" transform="matrix(3.233674e-03 -1 1 3.233674e-03 56.1816 132.9729)" fill="#000001" width="27.1" height="14.6"/>
		<path fill="#000001" d="M88.8,26l12.2,0l-0.1,24.6l-12.2,0L88.8,26 M86.3,23.5l0,2.5l-0.1,24.6l0,2.5l2.5,0l12.2,0l2.5,0l0-2.5
			l0.1-24.6l0-2.5l-2.5,0l-12.2,0L86.3,23.5L86.3,23.5z"/>
	</g>
	<g>
		<polygon fill="#F09C43" points="38.3,88.2 38.4,61.3 62.7,61.3 62.7,51.6 50.6,51.5 50.7,36.9 62.7,36.9 62.8,24.7 90,24.8 
			89.9,49.3 123.1,49.4 123,67.1 89.9,67 89.8,73.7 121.4,73.8 121.4,88.5 		"/>
		<path fill="#000001" d="M64,25.9L88.8,26l-0.1,24.6l33.1,0l-0.1,15.3l-33.1-0.1l0,9.2l31.6,0.1l0,12.2L39.6,87l0.1-24.5l24.2,0.1
			l0-12.3l-12.1,0l0-12.2l12.1,0L64,25.9 M61.5,23.4l0,2.5l0,9.8l-9.6,0l-2.5,0l0,2.5l0,12.2l0,2.5l2.5,0l9.6,0l0,7.3L39.7,60
			l-2.5,0l0,2.5L37.1,87l0,2.5l2.5,0l80.6,0.3l2.5,0l0-2.5l0-12.2l0-2.5l-2.5,0l-29.1-0.1l0-4.2l30.6,0.1l2.5,0l0-2.5l0.1-15.3
			l0-2.5l-2.5,0l-30.7,0L91.2,26l0-2.5l-2.5,0L64,23.4L61.5,23.4L61.5,23.4z"/>
	</g>
	<g>
		
			<rect x="20" y="42.8" transform="matrix(3.242934e-03 -1 1 3.242934e-03 -16.8299 83.5856)" fill="#F09C43" width="27" height="14.8"/>
		<path fill="#000001" d="M27.4,38l12.3,0l-0.1,24.5l-12.3,0L27.4,38 M24.9,35.5l0,2.5l-0.1,24.5l0,2.5l2.5,0l12.3,0l2.5,0l0-2.5
			L42.2,38l0-2.5l-2.5,0l-12.3,0L24.9,35.5L24.9,35.5z"/>
	</g>
	<g>
		<polygon fill="#F09C43" points="99.6,51.9 99.7,24.8 114.5,24.8 114.5,37 139,37.1 138.9,51.8 113.2,51.9 		"/>
		<path fill="#000001" d="M100.9,26l12.4,0l0,12.2l24.5,0.1l0,12.3l-24.5,0.1l-12.4,0L100.9,26 M98.4,23.5l0,2.5l-0.1,24.6l0,2.5
			l2.5,0l12.4,0l24.5-0.1l2.5,0l0-2.5l0-12.3l0-2.5l-2.5,0l-22-0.1l0-9.7l0-2.5l-2.5,0l-12.4,0L98.4,23.5L98.4,23.5z"/>
	</g>
	<g>
		<polygon fill="#003F7A" points="86.8,174 86.9,162.2 65.1,162.1 65,173.9 25.9,173.8 26,146.8 38.1,146.9 38.2,122.2 50.4,122.2 
			50.5,85.8 65.1,85.8 65,110.2 87.2,110.2 87.3,85.9 102,86 101.8,122.5 114.1,122.7 114.1,147.2 126.2,147.3 126.1,174.1 		"/>
		<path fill="#000001" d="M51.7,87l12.1,0l-0.1,24.4l24.7,0l0.1-24.3l12.2,0l-0.1,36.5l12.2,0.1l0,24.6l12.1,0l-0.1,24.4l-36.8-0.1
			l0-11.8l-24.3-0.1l0,11.8l-36.6-0.1l0.1-24.5l12.1,0l0.1-24.7l12.2,0L51.7,87 M49.3,84.5l0,2.5l-0.1,34l-9.7,0l-2.5,0l0,2.5
			l-0.1,22.2l-9.6,0l-2.5,0l0,2.5l-0.1,24.5l0,2.5l2.5,0l36.6,0.1l2.5,0l0-2.5l0-9.4l19.3,0.1l0,9.4l0,2.5l2.5,0l36.8,0.1l2.5,0
			l0-2.5l0.1-24.4l0-2.5l-2.5,0l-9.7,0l0-22.1l0-2.5l-2.5,0l-9.8-0.1l0.1-34.1l0-2.5l-2.5,0l-12.2,0l-2.5,0l0,2.5L86,109l-19.8,0
			l0.1-21.9l0-2.5l-2.5,0l-12.1,0L49.3,84.5L49.3,84.5z"/>
	</g>
	<g id="XMLID_1_">
		<g>
			<polygon fill="#DD0209" points="149.7,111.7 149.6,124.1 125.1,124 125.1,136.4 112.8,136.4 112.8,123.9 100.6,123.7 100.7,87.2 
				125.2,87.3 125.2,97.4 137.5,97.5 137.5,111.7 			"/>
			<polygon fill="#DD0209" points="88.6,87.2 88.5,111.5 63.7,111.4 63.8,87.1 			"/>
			<polygon fill="#DD0209" points="51.7,87 51.6,123.5 39.4,123.4 39.4,135.7 27.1,135.6 27.1,123.5 2.7,123.4 2.8,111.4 
				15.1,111.4 15.1,99.1 27.4,99.1 27.4,87 			"/>
		</g>
		<g>
			<g>
				<path fill="#000001" d="M40.6,136.9l-14.8,0l0-12.1l-24.4-0.1l0-14.5l12.3,0l0-12.3l12.3,0l0-12.2L53,85.8l-0.1,38.9l-12.2,0
					L40.6,136.9z M28.3,134.4l9.9,0l0-12.2l12.2,0l0.1-34l-21.8-0.1l0,12.2l-12.3,0l0,12.3l-12.3,0l0,9.6l24.4,0.1L28.3,134.4z"/>
			</g>
			<g>
				<path fill="#000001" d="M89.7,112.7l-27.2,0l0.1-26.8l27.2,0.1L89.7,112.7z M65,110.2l22.3,0l0.1-21.8L65,88.3L65,110.2z"/>
			</g>
			<g>
				<path fill="#000001" d="M126.3,137.6l-14.7,0l0-12.5L99.4,125l0.1-39l27,0.1l0,10.1l12.4,0.1l0,14.1l12.2,0l0,14.9l-24.5-0.1
					L126.3,137.6z M114.1,135.1l9.7,0l0-12.4l24.6,0.1l0-9.9l-12.2,0l0-14.2l-12.4-0.1l0-10.1l-22-0.1l-0.1,34.1l12.2,0.1
					L114.1,135.1z"/>
			</g>
		</g>
	</g>
	<g>
		<polygon fill="#F09C43" points="123.7,162 123.7,149.7 111.6,149.7 111.6,135.1 123.8,135.2 123.8,122.8 150.9,122.9 150.7,162.1 
					"/>
		<path fill="#000001" d="M125.1,124l24.5,0.1l-0.1,36.8l-24.5-0.1l0-12.3l-12.1,0l0-12.1l12.2,0L125.1,124 M122.6,121.6l0,2.5
			l0,9.9l-9.7,0l-2.5,0l0,2.5l0,12.1l0,2.5l2.5,0l9.7,0l0,9.8l0,2.5l2.5,0l24.5,0.1l2.5,0l0-2.5l0.1-36.8l0-2.5l-2.5,0l-24.5-0.1
			L122.6,121.6L122.6,121.6z"/>
	</g>
	<g>
		<polygon fill="#F09C43" points="1.4,161.7 1.5,122.2 28.3,122.3 28.3,134.4 40.6,134.4 40.6,149.4 28.3,149.4 28.3,161.8 		"/>
		<path fill="#000001" d="M2.7,123.4l24.4,0.1l0,12.1l12.3,0l0,12.4l-12.3,0l0,12.4l-24.4-0.1L2.7,123.4 M0.3,120.9l0,2.5l-0.1,37
			l0,2.5l2.5,0L27,163l2.5,0l0-2.5l0-9.9l9.8,0l2.5,0l0-2.5l0-12.4l0-2.5l-2.5,0l-9.9,0l0-9.7l0-2.5l-2.5,0l-24.4-0.1L0.3,120.9
			L0.3,120.9z"/>
	</g>
	<g>
		<polygon fill="#6C1C10" points="99.1,198.6 99.2,171.6 138.6,171.7 138.5,184 150.7,184 150.6,198.8 		"/>
		<path fill="#000001" d="M100.4,172.8l36.9,0.1l0,12.3l12.1,0l0,12.3l-49-0.2L100.4,172.8 M98,170.3l0,2.5l-0.1,24.5l0,2.5l2.5,0
			l49,0.2l2.5,0l0-2.5l0-12.3l0-2.5l-2.5,0l-9.6,0l0-9.8l0-2.5l-2.5,0l-36.9-0.1L98,170.3L98,170.3z"/>
	</g>
	<g>
		<polygon fill="#6C1C10" points="1.2,198.3 1.3,183.5 13.6,183.6 13.6,171.3 52.7,171.4 52.6,198.4 		"/>
		<path fill="#000001" d="M14.9,172.5l36.6,0.1l-0.1,24.5L2.5,197l0-12.3l12.3,0L14.9,172.5 M12.4,170.1l0,2.5l0,9.8l-9.8,0l-2.5,0
			l0,2.5L0,197l0,2.5l2.5,0l48.9,0.2l2.5,0l0-2.5l0.1-24.5l0-2.5l-2.5,0l-36.6-0.1L12.4,170.1L12.4,170.1z"/>
	</g>
</g>
</svg>
