<?xml version="1.0" encoding="utf-8"?>
<!-- Generator: Adobe Illustrator 25.4.1, SVG Export Plug-In . SVG Version: 6.00 Build 0)  -->
<svg version="1.1" id="Layer_1" xmlns="http://www.w3.org/2000/svg" xmlns:xlink="http://www.w3.org/1999/xlink" x="0px" y="0px"
	 viewBox="0 0 324.2 201.59" enable-background="new 0 0 324.2 201.59" xml:space="preserve">
<g>
	<rect x="0.1" y="0.59" fill="#FAFBFB" width="324" height="200.1"/>
	<path fill="#ABDBF2" d="M324.1,200.69V60.09c-1.2,0.1-2.4,0.2-3.7,0.4h-0.8c-11.1,0-21.4-2-30.9-6c-4.1-2.3-8.3-4.6-12.4-6.9
		c-3.8-2.7-7-5.7-9.6-8.9c-8.3,17.2-31.4,29.9-57.9,29.9c-29.1,0-54-15.2-59.9-34.9c-0.7,0.6-1.4,1.3-2,1.9
		c-7.6,5.4-16.6,9.2-27,11.3l-16.3,1.6h-0.8c-11.1,0-21.4-2-30.9-6c-2.8-1.6-5.6-3.1-8.5-4.7c-1.3,5-3.7,9.8-7.4,14.3
		c-3.2,3-6.4,5.9-9.6,8.9c-7.6,5.4-16.6,9.2-27,11.3c-5.4,0.5-10.9,1-16.3,1.6H1.5c-0.5,0-0.9,0-1.4,0v127h324V200.69z"/>
	<g>
		<path fill="#99ABBF" d="M157.4,200.89v-11.5c0-0.1,0-0.2,0-0.3c0.8-0.1,1.7-0.1,2.9-0.2c-1.2,0-2.2-0.1-2.9-0.2
			c-0.4-10-8.6-18-18.7-18c-10.3,0-18.7,8.4-18.7,18.7v11.5H157.4z"/>
		<path fill="#99ABBF" d="M113.3,200.89v-40.2c0-1.7-0.2-3.4-0.5-5c-2.3-11.2-12.3-19.7-24.2-19.7c-13.2,0-24,10.4-24.7,23.4
			c0,0.4,0,0.8,0,1.3v40.2H113.3z"/>
		<path fill="#99ABBF" d="M56.3,200.89v-74.9c0-1.9-0.1-3.8-0.4-5.7c-1.8-12-9.4-22.1-19.8-27.5c0-0.1,0-0.1,0-0.2
			c0,0.1,0,0.1,0,0.2c-5.2-2.6-11-4.2-17.2-4.2c-6.8,0-13.3,1.9-18.8,5.1v107.2L56.3,200.89L56.3,200.89z"/>
		<path fill="#99ABBF" d="M166.2,189.39v11.5h37.4v-11.5c0-10.3-8.4-18.7-18.7-18.7c-10.1,0-18.3,8-18.7,18
			c-0.8,0.1-1.7,0.1-2.9,0.2c1.2,0,2.1,0.1,2.9,0.2C166.3,189.19,166.2,189.29,166.2,189.39z"/>
		<path fill="#99ABBF" d="M259.8,200.89v-40.2c0-2.1-0.3-4.2-0.8-6.2c-2.7-10.6-12.4-18.5-23.9-18.5c-11.9,0-21.9,8.5-24.2,19.7
			c-0.3,1.6-0.5,3.3-0.5,5v40.2H259.8z"/>
		<path fill="#99ABBF" d="M324.1,200.89V94.09c-5.7-3.4-12.3-5.4-19.4-5.4c-6.2,0-12,1.5-17.2,4.2c0-0.1,0-0.1,0-0.2
			c0,0.1,0,0.1,0,0.2c-10.4,5.4-17.9,15.5-19.8,27.5c-0.3,1.9-0.4,3.7-0.4,5.7v74.9h56.8V200.89z"/>
	</g>
	<g>
		<g>
			<g>
				<g>
					<g>
						<path fill="#A6CC77" d="M156.5,200.89v-6.6c0-9.8-8-17.8-17.8-17.8s-17.8,8-17.8,17.8v6.6H156.5z"/>
					</g>
					<g>
						<path fill="#682A7C" d="M121.9,200.89v-6.6c0-9.3,7.5-16.8,16.8-16.8s16.8,7.5,16.8,16.8v6.6h1.9v-6.6
							c0-10.3-8.4-18.7-18.7-18.7s-18.7,8.4-18.7,18.7v6.6H121.9z"/>
					</g>
				</g>
				<g>
					<path fill="#5C843B" d="M153.5,200.89c-2-0.5-3.3-2.8-3.2-4.8c0-1.8-2.8-1.8-2.8,0v0.1c0,0.1,0,0.1,0,0.2c0,1.7-0.6,4-2.5,4.5
						H153.5z"/>
					<path fill="#5C843B" d="M143.4,200.89c-2-0.5-3.3-2.8-3.2-4.8c0-1.8-2.8-1.8-2.8,0v0.1c0,0.1,0,0.1,0,0.2c0,1.7-0.6,4-2.5,4.5
						H143.4z"/>
					<path fill="#5C843B" d="M133.2,200.89c-2-0.5-3.3-2.8-3.2-4.8c0-1.8-2.8-1.8-2.8,0v0.1c0,0.1,0,0.1,0,0.2c0,1.7-0.6,4-2.5,4.5
						H133.2z"/>
				</g>
				<g>
					<path fill="#5C843B" d="M155,189.79c-0.1,0-0.2,0-0.2,0c-2.7,0.3-4.5-2.5-4.4-4.8c0-1.8-2.8-1.8-2.8,0v0.1c0,0.1,0,0.1,0,0.2
						c0,1.9-0.7,4.4-2.9,4.6c-2.7,0.3-4.5-2.5-4.4-4.8c0-1.8-2.8-1.8-2.8,0v0.1c0,0.1,0,0.1,0,0.2c0,1.9-0.7,4.4-2.9,4.6
						c-2.7,0.3-4.5-2.5-4.4-4.8c0-1.8-2.8-1.8-2.8,0v0.1c0,0.1,0,0.1,0,0.2c0,1.9-0.7,4.4-2.9,4.6c-0.6,0.1-1.2,0-1.7-0.2
						c-0.2,0.9-0.4,1.8-0.5,2.7c0.7,0.2,1.4,0.3,2.2,0.3c2.1,0,3.6-1.2,4.5-2.8c1.3,1.7,3.3,2.8,5.7,2.8c2.1,0,3.6-1.2,4.5-2.8
						c1.3,1.7,3.3,2.8,5.7,2.8c2.1,0,3.6-1.2,4.5-2.8c1.3,1.7,3.3,2.8,5.7,2.8c0.3,0,0.5,0,0.8-0.1
						C155.4,191.69,155.2,190.69,155,189.79z"/>
				</g>
				<g>
					<g>
						<path fill="#FAFBFB" d="M124.9,197.59c0-1.1,0-2.1,0.2-3.1c0.1-0.9-1.3-0.9-1.4,0c-0.1,1-0.2,2.1-0.2,3.1
							S124.9,198.59,124.9,197.59L124.9,197.59z"/>
					</g>
				</g>
				<g>
					<g>
						<path fill="#FAFBFB" d="M143.4,179.99c1,0.4,2,1,3,1.6c0.8,0.5,1.5-0.7,0.7-1.2c-0.9-0.6-2-1.1-3-1.6
							C143.3,178.39,142.6,179.59,143.4,179.99L143.4,179.99z"/>
					</g>
				</g>
				<g>
					<path fill="#682A7C" d="M121.9,200.89v-6.6c0-9.3,7.5-16.8,16.8-16.8s16.8,7.5,16.8,16.8v6.6h1.9v-6.6
						c0-10.3-8.4-18.7-18.7-18.7s-18.7,8.4-18.7,18.7v6.6H121.9z"/>
				</g>
			</g>
			<path fill="#FAFBFB" d="M154,200.89L154,200.89c0.2-6.8,0.7-7,6.3-7.1c-6-0.2-6.2-0.3-6.3-8.9c-0.1,8.5-0.2,8.7-6.3,8.9
				C153.4,193.89,153.9,194.09,154,200.89z"/>
		</g>
		<g>
			<g>
				<g>
					<g>
						<path fill="#A6CC77" d="M112.4,200.89v-35.4c0-13.1-10.7-23.8-23.8-23.8s-23.8,10.7-23.8,23.8v35.4L112.4,200.89L112.4,200.89
							z"/>
					</g>
					<g>
						<path fill="#682A7C" d="M65.8,200.89v-35.4c0-12.6,10.2-22.8,22.8-22.8s22.8,10.2,22.8,22.8v35.4h1.9v-35.4
							c0-13.6-11.1-24.7-24.7-24.7s-24.7,11.1-24.7,24.7v35.4L65.8,200.89L65.8,200.89z"/>
					</g>
				</g>
				<g>
					<path fill="#A6CC77" d="M71.7,170.19c0-0.1,0-0.3,0-0.4c-0.1,0.9-0.2,1.8-0.3,2.6C71.5,171.69,71.6,170.89,71.7,170.19z"/>
				</g>
				<g>
					<path fill="#5C843B" d="M111.4,191.09c-0.5,1.3-1.5,2.2-3.2,2.3c-2.7,0.1-3.6-2.4-3.3-4.7c0.1-1.1-0.7-1.7-1.6-1.7
						c-1-0.2-2.1,0.4-2.1,1.7c0.1,2.3-1,4.6-3.6,4.7c-2.7,0.1-3.6-2.4-3.3-4.7c0.1-1.1-0.7-1.7-1.6-1.7c-1-0.2-2.1,0.4-2.1,1.7
						c0.1,2.3-1,4.6-3.6,4.7c-2.7,0.1-3.6-2.4-3.3-4.7c0.1-1.1-0.7-1.7-1.6-1.7c-1-0.2-2.1,0.4-2.1,1.7c0.1,2.3-1,4.6-3.6,4.7
						c-2.7,0.1-3.6-2.4-3.3-4.7c0.1-1.1-0.7-1.7-1.6-1.7c-1-0.2-2.1,0.4-2.1,1.7c0.1,2.3-1,4.6-3.6,4.7c-0.1,0-0.3,0-0.4,0v3.5h0.1
						c2.3,0.2,4.2-0.9,5.5-2.5c1.1,1.4,2.9,2.3,5,2.5c2.3,0.2,4.2-0.9,5.5-2.5c1.1,1.4,2.9,2.3,5,2.5c2.3,0.2,4.2-0.9,5.5-2.5
						c1.1,1.4,2.9,2.3,5,2.5c2.3,0.2,4.2-0.9,5.5-2.5c1.1,1.4,2.9,2.3,5,2.5c1.3,0.1,2.5-0.2,3.5-0.7v-5.1H111.4z"/>
				</g>
				<g>
					<path fill="#5C843B" d="M111.4,177.19c-0.5,1.3-1.5,2.2-3.2,2.3c-2.7,0.1-3.6-2.4-3.3-4.7c0.1-1.1-0.7-1.7-1.6-1.7
						c-1-0.2-2.1,0.4-2.1,1.7c0.1,2.3-1,4.6-3.6,4.7c-2.7,0.1-3.6-2.4-3.3-4.7c0.1-1.1-0.7-1.7-1.6-1.7c-1-0.2-2.1,0.4-2.1,1.7
						c0.1,2.3-1,4.6-3.6,4.7c-2.7,0.1-3.6-2.4-3.3-4.7c0.1-1.1-0.7-1.7-1.6-1.7c-1-0.2-2.1,0.4-2.1,1.7c0.1,2.3-1,4.6-3.6,4.7
						c-2.7,0.1-3.6-2.4-3.3-4.7c0.1-1.1-0.7-1.7-1.6-1.7c-1-0.2-2.1,0.4-2.1,1.7c0.1,2.3-1,4.6-3.6,4.7c-0.1,0-0.3,0-0.4,0v3.5h0.1
						c2.3,0.2,4.2-0.9,5.5-2.5c1.1,1.4,2.9,2.3,5,2.5c2.3,0.2,4.2-0.9,5.5-2.5c1.1,1.4,2.9,2.3,5,2.5c2.3,0.2,4.2-0.9,5.5-2.5
						c1.1,1.4,2.9,2.3,5,2.5c2.3,0.2,4.2-0.9,5.5-2.5c1.1,1.4,2.9,2.3,5,2.5c1.3,0.1,2.5-0.2,3.5-0.7v-5.1H111.4z"/>
				</g>
				<g>
					<path fill="#5C843B" d="M111.4,165.49c0-0.7,0-1.3-0.1-2c-0.5,1.2-1.5,2-3.1,2.1c-2.7,0.1-3.6-2.4-3.3-4.7
						c0.1-1.1-0.7-1.7-1.6-1.7c-1-0.2-2.1,0.4-2.1,1.7c0.1,2.3-1,4.6-3.6,4.7c-2.7,0.1-3.6-2.4-3.3-4.7c0.1-1.1-0.7-1.7-1.6-1.7
						c-1-0.2-2.1,0.4-2.1,1.7c0.1,2.3-1,4.6-3.6,4.7c-2.7,0.1-3.6-2.4-3.3-4.7c0.1-1.1-0.7-1.7-1.6-1.7c-1-0.2-2.1,0.4-2.1,1.7
						c0.1,2.3-1,4.6-3.6,4.7c-2.7,0.1-3.6-2.4-3.3-4.7c0.1-1.1-0.7-1.7-1.6-1.7c-1-0.2-2.1,0.4-2.1,1.7c0.1,2.3-1,4.6-3.6,4.7
						c-0.1,0-0.3,0-0.4,0v3.5h0.1c2.3,0.2,4.2-0.9,5.5-2.5c1.1,1.4,2.9,2.3,5,2.5c2.3,0.2,4.2-0.9,5.5-2.5c1.1,1.4,2.9,2.3,5,2.5
						c2.3,0.2,4.2-0.9,5.5-2.5c1.1,1.4,2.9,2.3,5,2.5c2.3,0.2,4.2-0.9,5.5-2.5c1.1,1.4,2.9,2.3,5,2.5c1.3,0.1,2.5-0.2,3.5-0.7v-2.9
						H111.4z"/>
				</g>
				<g>
					<path fill="#5C843B" d="M106.5,151.39c-0.6-0.3-1-0.8-1.2-1.4c-1.2-1.3-2.5-2.4-3.9-3.4c0,0.1,0,0.3,0,0.5
						c0.1,2.3-1,4.6-3.6,4.7c-2.7,0.1-3.6-2.4-3.3-4.7c0.1-1.1-0.7-1.7-1.6-1.7c-1-0.2-2.1,0.4-2.1,1.7c0.1,2.3-1,4.6-3.6,4.7
						c-2.7,0.1-3.6-2.4-3.3-4.7c0.1-1.1-0.7-1.7-1.6-1.7c-1-0.2-2.1,0.4-2.1,1.7c0.1,2.3-1,4.6-3.6,4.7c-2.2,0.1-3.1-1.5-3.3-3.2
						c-2,1.8-3.8,4-5,6.5c1.2-0.4,2.3-1.2,3-2.1c1.1,1.4,2.9,2.3,5,2.5c2.3,0.2,4.2-0.9,5.5-2.5c1.1,1.4,2.9,2.3,5,2.5
						c2.3,0.2,4.2-0.9,5.5-2.5c1.1,1.4,2.9,2.3,5,2.5c2.3,0.2,4.2-0.9,5.5-2.5c1.1,1.4,2.9,2.3,5,2.5c0.4,0,0.7,0,1.1,0
						C108.3,153.89,107.5,152.59,106.5,151.39z"/>
				</g>
				<g>
					<g>
						<path fill="#FAFBFB" d="M68.4,162.49c-0.1-2.4,0.7-4.7,2.2-6.6c0.6-0.7-0.4-1.7-1-1c-1.7,2.2-2.7,4.8-2.6,7.6
							C67,163.39,68.4,163.39,68.4,162.49L68.4,162.49z"/>
					</g>
				</g>
				<g>
					<g>
						<path fill="#FAFBFB" d="M107.9,172.29c0,1.4,0,2.7,0,4.1c0,0.9,1.4,0.9,1.4,0c0-1.4,0-2.7,0-4.1
							C109.3,171.39,107.9,171.39,107.9,172.29L107.9,172.29z"/>
					</g>
				</g>
				<g>
					<path fill="#682A7C" d="M65.8,200.89v-35.4c0-12.6,10.2-22.8,22.8-22.8s22.8,10.2,22.8,22.8v35.4h1.9v-35.4
						c0-13.6-11.1-24.7-24.7-24.7s-24.7,11.1-24.7,24.7v35.4L65.8,200.89L65.8,200.89z"/>
				</g>
			</g>
			<path fill="#FAFBFB" d="M103.8,164.19c-6,0.2-6.1,0.3-6.3,8.9c-0.1-8.5-0.2-8.7-6.3-8.9c6-0.2,6.1-0.3,6.3-8.9
				C97.7,163.89,97.8,163.99,103.8,164.19z"/>
			<path fill="#FAFBFB" d="M71.8,200.89c-0.3-2.1-0.3-5-0.4-8.9c-0.1,4-0.1,6.8-0.4,8.9H71.8z"/>
		</g>
		<g>
			<g>
				<g>
					<g>
						<path fill="#A6CC77" d="M55.3,200.89v-70.1c0-20.1-16.3-36.4-36.4-36.4c-6.9,0-13.3,1.9-18.8,5.3v101.2L55.3,200.89
							L55.3,200.89z"/>
					</g>
					<g>
						<path fill="#682A7C" d="M54.4,130.79v70.1h1.9v-70.1c0-20.6-16.8-37.3-37.3-37.3c-6.9,0-13.4,1.8-18.9,5.1v2.2
							c5.5-3.4,11.9-5.4,18.8-5.4C38.5,95.39,54.4,111.19,54.4,130.79z"/>
					</g>
				</g>
				<g>
					<path fill="#5C843B" d="M42.3,200.89c-1.8-1.2-3.2-3-3.8-5.5c-0.5-2-3.7-2.1-4.1,0c-0.5,2.4-1.7,4.4-3.6,5.5H42.3z"/>
					<path fill="#5C843B" d="M54.4,200.89v-2.7c-0.4,1-1,2-1.8,2.7H54.4z"/>
					<path fill="#5C843B" d="M24.7,200.89c-2-1.1-3.3-3.3-3.8-5.6c-0.3-1.8-3.1-2.1-3.9-0.5c-0.8,1.8-1.6,3.9-2.9,5.5
						c-0.2,0.2-0.4,0.4-0.6,0.6H24.7z"/>
					<path fill="#5C843B" d="M3.4,200.89c-1.5-1.1-2.5-2.8-2.9-5.2c-0.1-0.3-0.2-0.6-0.4-0.9v6.1L3.4,200.89L3.4,200.89z"/>
				</g>
				<g>
					<path fill="#5C843B" d="M49.3,185.29c-5.1,0.6-9.6-1.8-10.8-6.9c-0.5-2-3.7-2.1-4.1,0c-0.7,3.5-2.9,6.3-6.8,6.2
						c-3.6,0-6.1-3-6.7-6.3c-0.3-1.8-3.1-2.1-3.9-0.5c-0.8,1.8-1.6,3.9-2.9,5.5c-1.4,1.8-3.5,2.1-5.6,2.1c-4.5,0-7.5-2.2-8.1-6.7
						c-0.1-0.3-0.2-0.6-0.4-0.9v8.9c2.1,1.7,4.9,2.7,8,2.9c3,0.2,5.7-0.5,8.1-2.3c1.1-0.8,1.9-2,2.6-3.2c1.9,2.7,4.9,4.4,8.4,4.8
						c3.9,0.4,7.2-1.6,9.3-4.6c2.8,3.9,7.6,5.6,12.8,5.3c1.9-0.1,3.6-0.7,5.1-1.6v-6.8C53.5,183.29,52.1,184.99,49.3,185.29z"/>
				</g>
				<g>
					<path fill="#5C843B" d="M49.3,168.29c-5.1,0.6-9.6-1.8-10.8-6.9c-0.5-2-3.7-2.1-4.1,0c-0.7,3.5-2.9,6.3-6.8,6.2
						c-3.6,0-6.1-3-6.7-6.3c-0.3-1.8-3.1-2.1-3.9-0.5c-0.8,1.8-1.6,3.9-2.9,5.5c-1.4,1.8-3.5,2.1-5.6,2.1c-4.5,0-7.5-2.2-8.1-6.7
						c-0.1-0.3-0.2-0.6-0.4-0.9v8.9c2.1,1.7,4.9,2.7,8,2.9c3,0.2,5.7-0.5,8.1-2.3c1.1-0.8,1.9-2,2.6-3.2c1.9,2.7,4.9,4.4,8.4,4.8
						c3.9,0.4,7.2-1.6,9.3-4.6c2.8,3.9,7.6,5.6,12.8,5.3c1.9-0.1,3.6-0.7,5.1-1.6v-6.8C53.5,166.29,52.1,167.99,49.3,168.29z"/>
				</g>
				<g>
					<path fill="#5C843B" d="M49.3,151.29c-5.1,0.6-9.6-1.8-10.8-6.9c-0.5-2-3.7-2.1-4.1,0c-0.7,3.5-2.9,6.3-6.8,6.2
						c-3.6,0-6.1-3-6.7-6.3c-0.3-1.8-3.1-2.1-3.9-0.5c-0.8,1.8-1.6,3.9-2.9,5.5c-1.4,1.8-3.5,2.1-5.6,2.1c-4.5,0-7.5-2.2-8.1-6.7
						c-0.1-0.3-0.2-0.6-0.4-0.9v8.9c2.1,1.7,4.9,2.7,8,2.9c3,0.2,5.7-0.5,8.1-2.3c1.1-0.8,1.9-2,2.6-3.2c1.9,2.7,4.9,4.4,8.4,4.8
						c3.9,0.4,7.2-1.6,9.3-4.6c2.8,3.9,7.6,5.6,12.8,5.3c1.9-0.1,3.6-0.7,5.1-1.6v-6.8C53.5,149.29,52.1,150.99,49.3,151.29z"/>
				</g>
				<g>
					<path fill="#5C843B" d="M49.3,134.29c-5.1,0.6-9.6-1.8-10.8-6.9c-0.5-2-3.7-2.1-4.1,0c-0.7,3.5-2.9,6.3-6.8,6.2
						c-3.6,0-6.1-3-6.7-6.3c-0.3-1.8-3.1-2.1-3.9-0.5c-0.8,1.8-1.6,3.9-2.9,5.5c-1.4,1.8-3.5,2.1-5.6,2.1c-4.5,0-7.5-2.2-8.1-6.7
						c-0.1-0.3-0.2-0.6-0.4-0.9v8.9c2.1,1.7,4.9,2.7,8,2.9c3,0.2,5.7-0.5,8.1-2.3c1.1-0.8,1.9-2,2.6-3.2c1.9,2.7,4.9,4.4,8.4,4.8
						c3.9,0.4,7.2-1.6,9.3-4.6c2.8,3.9,7.6,5.6,12.8,5.3c1.9-0.1,3.6-0.7,5.1-1.6v-6.8C53.5,132.29,52.1,133.99,49.3,134.29z"/>
				</g>
				<g>
					<path fill="#5C843B" d="M51.4,116.69c-0.6,0.3-1.3,0.5-2.1,0.6c-5.1,0.6-9.6-1.8-10.8-6.9c-0.5-2-3.7-2.1-4.1,0
						c-0.7,3.5-2.9,6.3-6.8,6.2c-3.6,0-6.1-3-6.7-6.3c-0.3-1.8-3.1-2.1-3.9-0.5c-0.8,1.8-1.6,3.9-2.9,5.5c-1.4,1.8-3.5,2.1-5.6,2.1
						c-4.5,0-7.5-2.2-8.1-6.7c-0.1-0.3-0.2-0.6-0.4-0.9v8.9c2.1,1.7,4.9,2.7,8,2.9c3,0.2,5.7-0.5,8.1-2.3c1.1-0.8,1.9-2,2.6-3.2
						c1.9,2.7,4.9,4.4,8.4,4.8c3.9,0.4,7.2-1.6,9.3-4.6c2.8,3.9,7.6,5.6,12.8,5.3c1.3-0.1,2.5-0.4,3.6-0.8
						C52.5,119.29,52,117.99,51.4,116.69z"/>
				</g>
				<g>
					<g>
						<path fill="#5C843B" d="M32.1,97.89c-1.1,1.1-2.6,1.7-4.5,1.7c-2.8,0-4.9-1.8-6-4.1c-0.9-0.1-1.8-0.1-2.7-0.1
							c-1,0-2.1,0.1-3.1,0.1c-0.5,1-1,1.9-1.6,2.7c-1.4,1.8-3.5,2.1-5.6,2.1s-3.8-0.5-5.2-1.4c-1.2,0.6-2.3,1.2-3.3,1.9v0.9
							c2.1,1.7,4.9,2.7,8,2.9c3,0.2,5.7-0.5,8.1-2.3c1.1-0.8,1.9-2,2.6-3.2c1.9,2.7,4.9,4.4,8.4,4.8c3.7,0.4,6.8-1.4,8.9-4.1
							C34.8,99.09,33.5,98.39,32.1,97.89z"/>
					</g>
					<g>
						<path fill="#5C843B" d="M40.5,102.69c-0.7-0.6-1.5-1.1-2.3-1.6C38.9,101.69,39.7,102.19,40.5,102.69z"/>
					</g>
				</g>
				<g>
					<g>
						<path fill="#FAFBFB" d="M51.4,125.69c0.3,1.4,0.3,2.8,0.4,4.2c0.1,0.9,1.5,0.9,1.4,0c-0.2-1.5-0.2-3.1-0.5-4.6
							C52.5,124.39,51.2,124.79,51.4,125.69L51.4,125.69z"/>
					</g>
				</g>
				<g>
					<path fill="#682A7C" d="M54.4,130.79v70.1h1.9v-70.1c0-20.6-16.8-37.3-37.3-37.3c-6.9,0-13.4,1.8-18.9,5.1v2.2
						c5.5-3.4,11.9-5.4,18.8-5.4C38.5,95.39,54.4,111.19,54.4,130.79z"/>
				</g>
			</g>
			<path fill="#FAFBFB" d="M2.9,173.09c-0.1,6.4-0.2,8.1-2.8,8.6v0.5c2.6,0.5,2.7,2.2,2.8,8.6c0.1-8.5,0.2-8.7,6.3-8.9
				C3.1,181.79,3,181.59,2.9,173.09z"/>
			<path fill="#FAFBFB" d="M46.6,112.29c-10.1,0.3-10.3,0.6-10.5,14.9c-0.2-14.3-0.4-14.5-10.5-14.9c10.1-0.3,10.3-0.6,10.5-14.9
				C36.3,111.69,36.5,111.99,46.6,112.29z"/>
			<path fill="#FAFBFB" d="M0.1,144.49v1c1.5-0.3,3.4-0.4,6.1-0.5C3.5,144.89,1.6,144.79,0.1,144.49z"/>
		</g>
	</g>
	<g>
		<g>
			<g>
				<g>
					<path fill="#A6CC77" d="M202.7,200.89v-6.6c0-9.8-8-17.8-17.8-17.8s-17.8,8-17.8,17.8v6.6H202.7z"/>
				</g>
				<g>
					<path fill="#682A7C" d="M168.1,200.89v-6.6c0-9.3,7.5-16.8,16.8-16.8s16.8,7.5,16.8,16.8v6.6h1.9v-6.6
						c0-10.3-8.4-18.7-18.7-18.7s-18.7,8.4-18.7,18.7v6.6H168.1z"/>
				</g>
			</g>
			<g>
				<path fill="#5C843B" d="M199.1,200.89c-1.9-0.5-2.5-2.8-2.5-4.5c0-0.1,0-0.1,0-0.2v-0.1c0-1.8-2.9-1.8-2.8,0
					c0,2-1.2,4.3-3.2,4.8H199.1z"/>
				<path fill="#5C843B" d="M178.7,200.89c-1.9-0.5-2.5-2.8-2.5-4.5c0-0.1,0-0.1,0-0.2v-0.1c0-1.8-2.9-1.8-2.8,0
					c0,2-1.2,4.3-3.2,4.8H178.7z"/>
				<path fill="#5C843B" d="M188.9,200.89c-1.9-0.5-2.5-2.8-2.5-4.5c0-0.1,0-0.1,0-0.2v-0.1c0-1.8-2.9-1.8-2.8,0
					c0,2-1.2,4.3-3.2,4.8H188.9z"/>
			</g>
			<g>
				<path fill="#5C843B" d="M168.7,189.79c0.1,0,0.2,0,0.2,0c2.7,0.3,4.5-2.5,4.4-4.8c0-1.8,2.8-1.8,2.8,0v0.1c0,0.1,0,0.1,0,0.2
					c0,1.9,0.7,4.4,2.9,4.6c2.7,0.3,4.5-2.5,4.4-4.8c0-1.8,2.8-1.8,2.8,0v0.1c0,0.1,0,0.1,0,0.2c0,1.9,0.7,4.4,2.9,4.6
					c2.7,0.3,4.5-2.5,4.4-4.8c0-1.8,2.8-1.8,2.8,0v0.1c0,0.1,0,0.1,0,0.2c0,1.9,0.7,4.4,2.9,4.6c0.6,0.1,1.2,0,1.7-0.2
					c0.3,0.9,0.4,1.8,0.5,2.7c-0.7,0.2-1.4,0.3-2.2,0.3c-2.1,0-3.6-1.2-4.5-2.8c-1.3,1.7-3.3,2.8-5.7,2.8c-2.1,0-3.6-1.2-4.5-2.8
					c-1.3,1.7-3.3,2.8-5.7,2.8c-2.1,0-3.6-1.2-4.5-2.8c-1.3,1.7-3.3,2.8-5.7,2.8c-0.3,0-0.5,0-0.8-0.1
					C168.3,191.69,168.5,190.69,168.7,189.79z"/>
			</g>
			<g>
				<g>
					<path fill="#FAFBFB" d="M198.8,197.59c0-1.1,0-2.1-0.2-3.1c-0.1-0.9,1.3-0.9,1.4,0c0.1,1,0.2,2.1,0.2,3.1
						C200.2,198.59,198.8,198.59,198.8,197.59L198.8,197.59z"/>
				</g>
			</g>
			<g>
				<g>
					<path fill="#FAFBFB" d="M180.3,179.99c-1,0.4-2,1-3,1.6c-0.8,0.5-1.5-0.7-0.7-1.2c0.9-0.6,2-1.1,3-1.6
						C180.4,178.39,181.1,179.59,180.3,179.99L180.3,179.99z"/>
				</g>
			</g>
			<g>
				<path fill="#682A7C" d="M168.1,200.89v-6.6c0-9.3,7.5-16.8,16.8-16.8s16.8,7.5,16.8,16.8v6.6h1.9v-6.6
					c0-10.3-8.4-18.7-18.7-18.7s-18.7,8.4-18.7,18.7v6.6H168.1z"/>
			</g>
		</g>
		<path fill="#FAFBFB" d="M169.6,200.89L169.6,200.89c0.2-6.8,0.7-7,6.3-7.1c-6-0.2-6.1-0.3-6.3-8.9c-0.1,8.5-0.2,8.7-6.3,8.9
			C168.9,193.89,169.4,194.09,169.6,200.89z"/>
	</g>
	<g>
		<g>
			<g>
				<g>
					<path fill="#A6CC77" d="M258.8,200.89v-35.4c0-13.1-10.7-23.8-23.8-23.8s-23.8,10.7-23.8,23.8v35.4L258.8,200.89L258.8,200.89z
						"/>
				</g>
				<g>
					<path fill="#682A7C" d="M212.2,200.89v-35.4c0-12.6,10.2-22.8,22.8-22.8s22.8,10.2,22.8,22.8v35.4h1.9v-35.4
						c0-13.6-11.1-24.7-24.7-24.7s-24.7,11.1-24.7,24.7v35.4L212.2,200.89L212.2,200.89z"/>
				</g>
			</g>
			<g>
				<path fill="#A6CC77" d="M252,170.19c0-0.1,0-0.3,0-0.4c0.1,0.9,0.2,1.8,0.3,2.6C252.2,171.69,252.1,170.89,252,170.19z"/>
			</g>
			<g>
				<path fill="#5C843B" d="M212.2,191.09c0.5,1.3,1.5,2.2,3.2,2.3c2.7,0.1,3.6-2.4,3.3-4.7c-0.1-1.1,0.7-1.7,1.6-1.7
					c1-0.2,2.1,0.4,2.1,1.7c-0.1,2.3,1,4.6,3.6,4.7c2.7,0.1,3.6-2.4,3.3-4.7c-0.1-1.1,0.7-1.7,1.6-1.7c1-0.2,2.1,0.4,2.1,1.7
					c-0.1,2.3,1,4.6,3.6,4.7c2.7,0.1,3.6-2.4,3.3-4.7c-0.1-1.1,0.7-1.7,1.6-1.7c1-0.2,2.1,0.4,2.1,1.7c-0.1,2.3,1,4.6,3.6,4.7
					c2.7,0.1,3.6-2.4,3.3-4.7c-0.1-1.1,0.7-1.7,1.6-1.7c1-0.2,2.1,0.4,2.1,1.7c-0.1,2.3,1,4.6,3.6,4.7c0.1,0,0.3,0,0.4,0v3.5h-0.1
					c-2.3,0.2-4.2-0.9-5.5-2.5c-1.1,1.4-2.9,2.3-5,2.5c-2.3,0.2-4.2-0.9-5.5-2.5c-1.1,1.4-2.9,2.3-5,2.5c-2.3,0.2-4.2-0.9-5.5-2.5
					c-1.1,1.4-2.9,2.3-5,2.5c-2.3,0.2-4.2-0.9-5.5-2.5c-1.1,1.4-2.9,2.3-5,2.5c-1.3,0.1-2.5-0.2-3.5-0.7v-5.1H212.2z"/>
			</g>
			<g>
				<path fill="#5C843B" d="M212.2,177.19c0.5,1.3,1.5,2.2,3.2,2.3c2.7,0.1,3.6-2.4,3.3-4.7c-0.1-1.1,0.7-1.7,1.6-1.7
					c1-0.2,2.1,0.4,2.1,1.7c-0.1,2.3,1,4.6,3.6,4.7c2.7,0.1,3.6-2.4,3.3-4.7c-0.1-1.1,0.7-1.7,1.6-1.7c1-0.2,2.1,0.4,2.1,1.7
					c-0.1,2.3,1,4.6,3.6,4.7c2.7,0.1,3.6-2.4,3.3-4.7c-0.1-1.1,0.7-1.7,1.6-1.7c1-0.2,2.1,0.4,2.1,1.7c-0.1,2.3,1,4.6,3.6,4.7
					c2.7,0.1,3.6-2.4,3.3-4.7c-0.1-1.1,0.7-1.7,1.6-1.7c1-0.2,2.1,0.4,2.1,1.7c-0.1,2.3,1,4.6,3.6,4.7c0.1,0,0.3,0,0.4,0v3.5h-0.1
					c-2.3,0.2-4.2-0.9-5.5-2.5c-1.1,1.4-2.9,2.3-5,2.5c-2.3,0.2-4.2-0.9-5.5-2.5c-1.1,1.4-2.9,2.3-5,2.5c-2.3,0.2-4.2-0.9-5.5-2.5
					c-1.1,1.4-2.9,2.3-5,2.5c-2.3,0.2-4.2-0.9-5.5-2.5c-1.1,1.4-2.9,2.3-5,2.5c-1.3,0.1-2.5-0.2-3.5-0.7v-5.1H212.2z"/>
			</g>
			<g>
				<path fill="#5C843B" d="M212.2,165.49c0-0.7,0-1.3,0.1-2c0.5,1.2,1.5,2,3.1,2.1c2.7,0.1,3.6-2.4,3.3-4.7
					c-0.1-1.1,0.7-1.7,1.6-1.7c1-0.2,2.1,0.4,2.1,1.7c-0.1,2.3,1,4.6,3.6,4.7c2.7,0.1,3.6-2.4,3.3-4.7c-0.1-1.1,0.7-1.7,1.6-1.7
					c1-0.2,2.1,0.4,2.1,1.7c-0.1,2.3,1,4.6,3.6,4.7c2.7,0.1,3.6-2.4,3.3-4.7c-0.1-1.1,0.7-1.7,1.6-1.7c1-0.2,2.1,0.4,2.1,1.7
					c-0.1,2.3,1,4.6,3.6,4.7c2.7,0.1,3.6-2.4,3.3-4.7c-0.1-1.1,0.7-1.7,1.6-1.7c1-0.2,2.1,0.4,2.1,1.7c-0.1,2.3,1,4.6,3.6,4.7
					c0.1,0,0.3,0,0.4,0v3.5h-0.1c-2.3,0.2-4.2-0.9-5.5-2.5c-1.1,1.4-2.9,2.3-5,2.5c-2.3,0.2-4.2-0.9-5.5-2.5c-1.1,1.4-2.9,2.3-5,2.5
					c-2.3,0.2-4.2-0.9-5.5-2.5c-1.1,1.4-2.9,2.3-5,2.5c-2.3,0.2-4.2-0.9-5.5-2.5c-1.1,1.4-2.9,2.3-5,2.5c-1.3,0.1-2.5-0.2-3.5-0.7
					v-2.9H212.2z"/>
			</g>
			<g>
				<path fill="#5C843B" d="M217.2,151.39c0.6-0.3,1-0.8,1.2-1.4c1.2-1.3,2.5-2.4,3.9-3.4c0,0.1,0,0.3,0,0.5c-0.1,2.3,1,4.6,3.6,4.7
					c2.7,0.1,3.6-2.4,3.3-4.7c-0.1-1.1,0.7-1.7,1.6-1.7c1-0.2,2.1,0.4,2.1,1.7c-0.1,2.3,1,4.6,3.6,4.7c2.7,0.1,3.6-2.4,3.3-4.7
					c-0.1-1.1,0.7-1.7,1.6-1.7c1-0.2,2.1,0.4,2.1,1.7c-0.1,2.3,1,4.6,3.6,4.7c2.2,0.1,3.1-1.5,3.3-3.2c2,1.8,3.8,4,5,6.5
					c-1.2-0.4-2.3-1.2-3-2.1c-1.1,1.4-2.9,2.3-5,2.5c-2.3,0.2-4.2-0.9-5.5-2.5c-1.1,1.4-2.9,2.3-5,2.5c-2.3,0.2-4.2-0.9-5.5-2.5
					c-1.1,1.4-2.9,2.3-5,2.5c-2.3,0.2-4.2-0.9-5.5-2.5c-1.1,1.4-2.9,2.3-5,2.5c-0.4,0-0.7,0-1.1,0
					C215.4,153.89,216.2,152.59,217.2,151.39z"/>
			</g>
			<g>
				<g>
					<path fill="#FAFBFB" d="M255.3,162.49c0.1-2.4-0.7-4.7-2.2-6.6c-0.6-0.7,0.4-1.7,1-1c1.7,2.2,2.7,4.8,2.6,7.6
						C256.7,163.39,255.3,163.39,255.3,162.49L255.3,162.49z"/>
				</g>
			</g>
			<g>
				<g>
					<path fill="#FAFBFB" d="M215.8,172.29c0,1.4,0,2.7,0,4.1c0,0.9-1.4,0.9-1.4,0c0-1.4,0-2.7,0-4.1
						C214.4,171.39,215.8,171.39,215.8,172.29L215.8,172.29z"/>
				</g>
			</g>
			<g>
				<path fill="#682A7C" d="M212.2,200.89v-35.4c0-12.6,10.2-22.8,22.8-22.8s22.8,10.2,22.8,22.8v35.4h1.9v-35.4
					c0-13.6-11.1-24.7-24.7-24.7s-24.7,11.1-24.7,24.7v35.4L212.2,200.89L212.2,200.89z"/>
			</g>
		</g>
		<path fill="#FAFBFB" d="M219.9,164.19c6,0.2,6.2,0.3,6.3,8.9c0.1-8.5,0.2-8.7,6.3-8.9c-6-0.2-6.1-0.3-6.3-8.9
			C226,163.89,225.9,163.99,219.9,164.19z"/>
		<path fill="#FAFBFB" d="M252.7,200.89c-0.3-2.1-0.3-5-0.4-8.9c-0.1,4-0.1,6.8-0.4,8.9H252.7z"/>
	</g>
	<g>
		<g>
			<g>
				<g>
					<path fill="#A6CC77" d="M324.1,200.89V99.99c-5.6-3.5-12.3-5.6-19.4-5.6c-20.1,0-36.4,16.3-36.4,36.4v70.1L324.1,200.89
						L324.1,200.89z"/>
				</g>
				<g>
					<path fill="#682A7C" d="M269.3,200.89v-70.1c0-19.6,15.9-35.5,35.5-35.5c7.2,0,13.8,2.1,19.4,5.8v-2.2
						c-5.7-3.4-12.3-5.4-19.4-5.4c-20.6,0-37.3,16.8-37.3,37.3v70.1L269.3,200.89L269.3,200.89z"/>
				</g>
			</g>
			<g>
				<path fill="#5C843B" d="M324.1,200.89v-6.5c-0.5,0.2-0.8,0.7-0.9,1.3c-0.4,2.4-1.4,4.1-2.9,5.2H324.1z"/>
				<path fill="#5C843B" d="M310.1,200.89c-0.2-0.2-0.4-0.4-0.6-0.6c-1.3-1.6-2-3.6-2.9-5.5c-0.7-1.6-3.6-1.2-3.9,0.5
					c-0.4,2.3-1.7,4.5-3.8,5.6H310.1z"/>
				<path fill="#5C843B" d="M271.1,200.89c-0.8-0.7-1.3-1.7-1.8-2.7v2.7H271.1z"/>
				<path fill="#5C843B" d="M292.9,200.89c-1.9-1-3.1-3.1-3.6-5.5c-0.4-2.1-3.6-2-4.1,0c-0.6,2.5-2,4.3-3.8,5.5H292.9z"/>
			</g>
			<g>
				<path fill="#5C843B" d="M324.1,177.39c-0.5,0.2-0.8,0.7-0.9,1.3c-0.7,4.6-3.6,6.7-8.1,6.7c-2.2,0-4.2-0.3-5.6-2.1
					c-1.3-1.6-2-3.6-2.9-5.5c-0.7-1.6-3.6-1.2-3.9,0.5c-0.6,3.3-3,6.3-6.7,6.3c-3.8,0-6-2.7-6.8-6.2c-0.4-2.1-3.6-2-4.1,0
					c-1.2,5.1-5.8,7.5-10.8,6.9c-2.8-0.3-4.2-2-5.1-4.1v6.8c1.5,1,3.2,1.5,5.1,1.6c5.2,0.3,10-1.5,12.8-5.3c2,3,5.3,5.1,9.3,4.6
					c3.5-0.4,6.5-2.1,8.4-4.8c0.7,1.2,1.5,2.4,2.6,3.2c2.4,1.8,5.1,2.5,8.1,2.3c3.4-0.2,6.4-1.3,8.6-3.4V177.39z"/>
			</g>
			<g>
				<path fill="#5C843B" d="M324.1,160.29c-0.5,0.2-0.8,0.7-0.9,1.3c-0.7,4.6-3.6,6.7-8.1,6.7c-2.2,0-4.2-0.3-5.6-2.1
					c-1.3-1.6-2-3.6-2.9-5.5c-0.7-1.6-3.6-1.2-3.9,0.5c-0.6,3.3-3,6.3-6.7,6.3c-3.8,0-6-2.7-6.8-6.2c-0.4-2.1-3.6-2-4.1,0
					c-1.2,5.1-5.8,7.5-10.8,6.9c-2.8-0.3-4.2-2-5.1-4.1v6.8c1.5,1,3.2,1.5,5.1,1.6c5.2,0.3,10-1.5,12.8-5.3c2,3,5.3,5.1,9.3,4.6
					c3.5-0.4,6.5-2.1,8.4-4.8c0.7,1.2,1.5,2.4,2.6,3.2c2.4,1.8,5.1,2.5,8.1,2.3c3.4-0.2,6.4-1.3,8.6-3.4V160.29z"/>
			</g>
			<g>
				<path fill="#5C843B" d="M324.1,143.29c-0.5,0.2-0.8,0.7-0.9,1.3c-0.7,4.6-3.6,6.7-8.1,6.7c-2.2,0-4.2-0.3-5.6-2.1
					c-1.3-1.6-2-3.6-2.9-5.5c-0.7-1.6-3.6-1.2-3.9,0.5c-0.6,3.3-3,6.3-6.7,6.3c-3.8,0-6-2.7-6.8-6.2c-0.4-2.1-3.6-2-4.1,0
					c-1.2,5.1-5.8,7.5-10.8,6.9c-2.8-0.3-4.2-2-5.1-4.1v6.8c1.5,1,3.2,1.5,5.1,1.6c5.2,0.3,10-1.5,12.8-5.3c2,3,5.3,5.1,9.3,4.6
					c3.5-0.4,6.5-2.1,8.4-4.8c0.7,1.2,1.5,2.4,2.6,3.2c2.4,1.8,5.1,2.5,8.1,2.3c3.4-0.2,6.4-1.3,8.6-3.4V143.29z"/>
			</g>
			<g>
				<path fill="#5C843B" d="M324.1,126.29c-0.5,0.2-0.8,0.7-0.9,1.3c-0.7,4.6-3.6,6.7-8.1,6.7c-2.2,0-4.2-0.3-5.6-2.1
					c-1.3-1.6-2-3.6-2.9-5.5c-0.7-1.6-3.6-1.2-3.9,0.5c-0.6,3.3-3,6.3-6.7,6.3c-3.8,0-6-2.7-6.8-6.2c-0.4-2.1-3.6-2-4.1,0
					c-1.2,5.1-5.8,7.5-10.8,6.9c-2.8-0.3-4.2-2-5.1-4.1v6.8c1.5,1,3.2,1.5,5.1,1.6c5.2,0.3,10-1.5,12.8-5.3c2,3,5.3,5.1,9.3,4.6
					c3.5-0.4,6.5-2.1,8.4-4.8c0.7,1.2,1.5,2.4,2.6,3.2c2.4,1.8,5.1,2.5,8.1,2.3c3.4-0.2,6.4-1.3,8.6-3.4V126.29z"/>
			</g>
			<g>
				<path fill="#5C843B" d="M324.1,109.29c-0.5,0.2-0.8,0.7-0.9,1.3c-0.7,4.6-3.6,6.7-8.1,6.7c-2.2,0-4.2-0.3-5.6-2.1
					c-1.3-1.6-2-3.6-2.9-5.5c-0.7-1.6-3.6-1.2-3.9,0.5c-0.6,3.3-3,6.3-6.7,6.3c-3.8,0-6-2.7-6.8-6.2c-0.4-2.1-3.6-2-4.1,0
					c-1.2,5.1-5.8,7.5-10.8,6.9c-0.8-0.1-1.5-0.3-2.1-0.6c-0.6,1.3-1.1,2.7-1.5,4c1.1,0.5,2.3,0.8,3.6,0.8c5.2,0.3,10-1.5,12.8-5.3
					c2,3,5.3,5.1,9.3,4.6c3.5-0.4,6.5-2.1,8.4-4.8c0.7,1.2,1.5,2.4,2.6,3.2c2.4,1.8,5.1,2.5,8.1,2.3c3.4-0.2,6.4-1.3,8.6-3.4V109.29
					z"/>
			</g>
			<g>
				<g>
					<path fill="#5C843B" d="M324.1,101.09c-1.2-0.8-2.5-1.6-3.9-2.2c-1.3,0.9-3.1,1.4-5.2,1.4c-2.2,0-4.2-0.3-5.6-2.1
						c-0.7-0.8-1.2-1.8-1.6-2.7c-1-0.1-2-0.1-3.1-0.1c-0.9,0-1.8,0-2.7,0.1c-1.1,2.3-3.2,4.1-6,4.1c-1.9,0-3.4-0.6-4.5-1.7
						c-1.4,0.5-2.7,1.2-4,1.9c2.1,2.7,5.2,4.4,8.9,4.1c3.5-0.4,6.5-2.1,8.4-4.8c0.7,1.2,1.5,2.4,2.6,3.2c2.4,1.8,5.1,2.5,8.1,2.3
						C319,104.39,322,103.29,324.1,101.09L324.1,101.09z"/>
				</g>
				<g>
					<path fill="#5C843B" d="M283.2,102.69c0.7-0.6,1.5-1.1,2.3-1.6C284.8,101.69,284,102.19,283.2,102.69z"/>
				</g>
			</g>
			<g>
				<g>
					<path fill="#FAFBFB" d="M272.3,125.69c-0.3,1.4-0.3,2.8-0.4,4.2c-0.1,0.9-1.5,0.9-1.4,0c0.2-1.5,0.2-3.1,0.5-4.6
						C271.2,124.39,272.5,124.79,272.3,125.69L272.3,125.69z"/>
				</g>
			</g>
			<g>
				<path fill="#682A7C" d="M269.3,200.89v-70.1c0-19.6,15.9-35.5,35.5-35.5c7.2,0,13.8,2.1,19.4,5.8v-2.2
					c-5.7-3.4-12.3-5.4-19.4-5.4c-20.6,0-37.3,16.8-37.3,37.3v70.1L269.3,200.89L269.3,200.89z"/>
			</g>
		</g>
		<path fill="#FAFBFB" d="M324.1,181.79c-3.1-0.4-3.2-1.9-3.3-8.7c-0.1,8.5-0.2,8.7-6.3,8.9c6,0.2,6.1,0.3,6.3,8.9
			c0.1-6.8,0.2-8.3,3.3-8.7V181.79z"/>
		<path fill="#FAFBFB" d="M277.1,112.29c10.1,0.3,10.3,0.6,10.5,14.9c0.2-14.3,0.4-14.5,10.5-14.9c-10.1-0.3-10.3-0.6-10.5-14.9
			C287.4,111.69,287.2,111.99,277.1,112.29z"/>
		<path fill="#FAFBFB" d="M324.1,144.39c-1.5,0.4-3.6,0.5-6.6,0.6c3,0.1,5.1,0.2,6.6,0.6V144.39z"/>
	</g>
	<g>
		<g>
			<g>
				<g>
					<path fill="#F6EC78" d="M110.3,56.69c-0.1,0-0.2,0-0.3-0.1l-9.5-5l-9.4,5c-0.1,0.1-0.2,0.1-0.3,0.1c-0.1,0-0.3,0-0.4-0.1
						c-0.2-0.1-0.3-0.4-0.3-0.7l1.8-10.5l-7.7-7.5c-0.2-0.2-0.2-0.4-0.2-0.7c0.1-0.2,0.3-0.4,0.5-0.5l10.6-1.5l4.7-9.6
						c0.1-0.2,0.3-0.4,0.6-0.4c0.3,0,0.5,0.1,0.6,0.4l4.7,9.6l10.6,1.5c0.3,0,0.5,0.2,0.5,0.5c0.1,0.2,0,0.5-0.2,0.7l-7.7,7.5
						l1.8,10.5c0,0.3-0.1,0.5-0.3,0.7C110.6,56.69,110.5,56.69,110.3,56.69z"/>
				</g>
				<g>
					<path fill="#682A7C" d="M100.5,25.89l4.9,9.9l10.9,1.6l-7.9,7.7l1.9,10.9l-9.8-5.1l-9.8,5.1l1.9-10.9l-7.9-7.7l10.9-1.6
						L100.5,25.89 M100.5,24.59c-0.5,0-1,0.3-1.2,0.7l-4.5,9.3l-10.2,1.5c-0.5,0.1-0.9,0.4-1.1,0.9s0,1,0.3,1.4l7.4,7.2l-1.7,10.2
						c-0.1,0.5,0.1,1,0.5,1.3c0.2,0.2,0.5,0.3,0.8,0.3c0.2,0,0.4-0.1,0.6-0.2l9.2-4.8l9.2,4.8c0.2,0.1,0.4,0.2,0.6,0.2
						c0.3,0,0.6-0.1,0.8-0.3c0.4-0.3,0.6-0.8,0.5-1.3l-1.8-10.2l7.4-7.2c0.4-0.4,0.5-0.9,0.3-1.4s-0.6-0.8-1.1-0.9l-10.2-1.5
						l-4.6-9.3C101.5,24.89,101,24.59,100.5,24.59L100.5,24.59z"/>
				</g>
			</g>
			<g>
				<path fill="#682A7C" d="M100.5,25.89l4.9,9.9l10.9,1.6l-7.9,7.7l1.9,10.9l-9.8-5.1l-9.8,5.1l1.9-10.9l-7.9-7.7l10.9-1.6
					L100.5,25.89 M100.5,24.59c-0.5,0-1,0.3-1.2,0.7l-4.5,9.3l-10.2,1.5c-0.5,0.1-0.9,0.4-1.1,0.9s0,1,0.3,1.4l7.4,7.2l-1.7,10.2
					c-0.1,0.5,0.1,1,0.5,1.3c0.2,0.2,0.5,0.3,0.8,0.3c0.2,0,0.4-0.1,0.6-0.2l9.2-4.8l9.2,4.8c0.2,0.1,0.4,0.2,0.6,0.2
					c0.3,0,0.6-0.1,0.8-0.3c0.4-0.3,0.6-0.8,0.5-1.3l-1.8-10.2l7.4-7.2c0.4-0.4,0.5-0.9,0.3-1.4s-0.6-0.8-1.1-0.9l-10.2-1.5
					l-4.6-9.3C101.5,24.89,101,24.59,100.5,24.59L100.5,24.59z"/>
			</g>
			<g>
				<g>
					<path fill="#FAFBFB" d="M93.7,40.09c-2,0.1-2.1,0.1-2.1,3.2c0-3-0.1-3.1-2.1-3.2c2-0.1,2.1-0.1,2.1-3.2
						C91.6,39.89,91.6,39.99,93.7,40.09z"/>
				</g>
			</g>
			<g>
				<g>
					<path fill="#FAFBFB" d="M107.3,51.49c-2,0.1-2.1,0.1-2.1,3.2c0-3-0.1-3.1-2.1-3.2c2-0.1,2.1-0.1,2.1-3.2
						C105.2,51.39,105.3,51.39,107.3,51.49z"/>
				</g>
			</g>
			<g>
				<g>
					<path fill="#FAFBFB" d="M112.4,38.39c-3.1,0.1-3.1,0.2-3.2,4.8c-0.1-4.6-0.1-4.7-3.2-4.8c3.1-0.1,3.1-0.2,3.2-4.8
						C109.3,38.29,109.3,38.29,112.4,38.39z"/>
				</g>
			</g>
			<g>
				<g>
					<path fill="#FAFBFB" d="M106.8,35.29c-3.1,0.1-3.1,0.2-3.2,4.8c-0.1-4.6-0.1-4.7-3.2-4.8c3.1-0.1,3.1-0.2,3.2-4.8
						C103.6,35.09,103.7,35.19,106.8,35.29z"/>
				</g>
			</g>
		</g>
		<g>
			<g>
				<path fill="#FAFBFB" d="M125.9,25.29c-7.3,0.2-7.5,0.3-7.6,9.1c-0.2-8.7-0.3-8.9-7.6-9.1c7.3-0.2,7.5-0.3,7.6-9.1
					C118.5,24.89,118.6,25.09,125.9,25.29z"/>
			</g>
		</g>
		<g>
			<g>
				<path fill="#FAFBFB" d="M91.3,27.39c-5.6,0.1-5.7,0.3-5.8,7c-0.1-6.7-0.2-6.8-5.8-7c5.6-0.1,5.7-0.3,5.8-7
					C85.6,27.09,85.7,27.19,91.3,27.39z"/>
			</g>
		</g>
		<g>
			<g>
				<path fill="#FAFBFB" d="M87.2,48.29c-5.6,0.1-5.7,0.3-5.8,7c-0.1-6.7-0.2-6.8-5.8-7c5.6-0.1,5.7-0.3,5.8-7
					C81.5,47.99,81.6,48.19,87.2,48.29z"/>
			</g>
		</g>
	</g>
	<g>
		<g>
			<path fill="#99ABBF" d="M121.8,82.49h-0.7h-17.6c-0.3,0-0.5,0.2-0.5,0.5l0,0v0.1v8.3c0,0.3,0.2,0.6,0.6,0.6H122
				c0.3,0,0.6-0.3,0.6-0.6v-8.3C122.4,82.79,122.1,82.49,121.8,82.49z"/>
			<path fill="#99ABBF" d="M101.4,61.49h-0.7H83c-0.3,0-0.5,0.2-0.5,0.5l0,0v0.1v8.3c0,0.3,0.3,0.6,0.6,0.6h18.4
				c0.3,0,0.6-0.3,0.6-0.6v-8.3C101.9,61.69,101.7,61.49,101.4,61.49z"/>
			<path fill="#99ABBF" d="M121.8,61.49h-1.7h-16.7c-0.3,0-0.6,0.3-0.6,0.6v4.5v3.8c0,0.3,0.2,0.6,0.6,0.6h18.4
				c0.3,0,0.6-0.3,0.6-0.6v-8.3C122.4,61.79,122.1,61.49,121.8,61.49z"/>
			<path fill="#99ABBF" d="M101.4,82.49H83c-0.2,0-0.3,0.1-0.4,0.2l0,0c0,0,0,0.1-0.1,0.1l0,0v0.1l0,0v0.1v0.1v8.3
				c0,0.3,0.3,0.6,0.6,0.6h18.4c0.3,0,0.6-0.3,0.6-0.6v-6.8v-1.5C101.9,82.79,101.7,82.49,101.4,82.49z"/>
			<path fill="#99ABBF" d="M101.4,72.09H83c-0.3,0-0.6,0.3-0.6,0.6v1v7.3c0,0.3,0.3,0.6,0.6,0.6h18.4c0.3,0,0.6-0.3,0.6-0.6v-4.2
				v-4.1C101.9,72.29,101.7,72.09,101.4,72.09z"/>
			<path fill="#99ABBF" d="M121.8,72.09h-18h-0.4c-0.3,0-0.6,0.3-0.6,0.6v2.6v2.3v3.4c0,0.3,0.2,0.6,0.6,0.6h18.4
				c0.3,0,0.6-0.3,0.6-0.6v-4.6v-3.8C122.4,72.29,122.1,72.09,121.8,72.09z"/>
		</g>
		<g>
			<g>
				<g>
					<path fill="#DC8F51" d="M101.9,89.99c-0.2,0-0.3-0.1-0.3-0.3v-8.3c0-0.2,0.1-0.3,0.3-0.3h18.4c0.2,0,0.3,0.1,0.3,0.3v8.3
						c0,0.2-0.1,0.3-0.3,0.3H101.9z"/>
					<path fill="#682A7C" d="M120.3,81.39v8.3h-18.4v-8.3H120.3 M120.3,80.79h-18.4c-0.3,0-0.6,0.3-0.6,0.6v8.3
						c0,0.3,0.2,0.6,0.6,0.6h18.4c0.3,0,0.6-0.3,0.6-0.6v-8.3C120.9,80.99,120.6,80.79,120.3,80.79L120.3,80.79z"/>
				</g>
				<g>
					<path fill="#682A7C" d="M105,88.39c0.5,0,1,0,1.5,0c0.3,0,0.3-0.5,0-0.5c-0.5,0-1,0-1.5,0C104.7,87.89,104.7,88.39,105,88.39
						L105,88.39z"/>
				</g>
				<g>
					<path fill="#682A7C" d="M103.9,85.69c1.8,0,3.5,0,5.3,0c0.3,0,0.3-0.5,0-0.5c-1.8,0-3.5,0-5.3,0
						C103.6,85.19,103.6,85.69,103.9,85.69L103.9,85.69z"/>
				</g>
				<g>
					<path fill="#682A7C" d="M117.2,87.59c-2.4,0-4.8,0-7.2,0c-0.3,0-0.3,0.5,0,0.5c2.4,0,4.8,0,7.2,0
						C117.5,88.09,117.5,87.59,117.2,87.59L117.2,87.59z"/>
				</g>
				<path fill="#682A7C" d="M120.3,81.39v8.3h-18.4v-8.3H120.3 M120.3,80.79h-18.4c-0.3,0-0.6,0.3-0.6,0.6v8.3
					c0,0.3,0.2,0.6,0.6,0.6h18.4c0.3,0,0.6-0.3,0.6-0.6v-8.3C120.9,80.99,120.6,80.79,120.3,80.79L120.3,80.79z"/>
			</g>
			<g>
				<g>
					<path fill="#DC8F51" d="M81.4,68.99c-0.2,0-0.3-0.1-0.3-0.3v-8.3c0-0.2,0.1-0.3,0.3-0.3h18.4c0.2,0,0.3,0.1,0.3,0.3v8.3
						c0,0.2-0.1,0.3-0.3,0.3H81.4z"/>
					<path fill="#682A7C" d="M99.8,60.39v8.3H81.4v-8.3H99.8 M99.8,59.69H81.4c-0.3,0-0.6,0.3-0.6,0.6v8.3c0,0.3,0.3,0.6,0.6,0.6
						h18.4c0.3,0,0.6-0.3,0.6-0.6v-8.3C100.4,59.99,100.1,59.69,99.8,59.69L99.8,59.69z"/>
				</g>
				<g>
					<path fill="#682A7C" d="M84.5,67.39c0.5,0,1,0,1.5,0c0.3,0,0.3-0.5,0-0.5c-0.5,0-1,0-1.5,0C84.2,66.89,84.2,67.39,84.5,67.39
						L84.5,67.39z"/>
				</g>
				<g>
					<path fill="#682A7C" d="M83.4,64.69c1.8,0,3.5,0,5.3,0c0.3,0,0.3-0.5,0-0.5c-1.8,0-3.5,0-5.3,0
						C83.1,64.19,83.1,64.69,83.4,64.69L83.4,64.69z"/>
				</g>
				<g>
					<path fill="#682A7C" d="M96.7,66.59c-2.4,0-4.8,0-7.2,0c-0.3,0-0.3,0.5,0,0.5c2.4,0,4.8,0,7.2,0C97,67.09,97,66.59,96.7,66.59
						L96.7,66.59z"/>
				</g>
				<path fill="#682A7C" d="M99.8,60.39v8.3H81.4v-8.3H99.8 M99.8,59.69H81.4c-0.3,0-0.6,0.3-0.6,0.6v8.3c0,0.3,0.3,0.6,0.6,0.6
					h18.4c0.3,0,0.6-0.3,0.6-0.6v-8.3C100.4,59.99,100.1,59.69,99.8,59.69L99.8,59.69z"/>
			</g>
			<g>
				<path fill="#EC7E23" d="M101.9,68.99c-0.2,0-0.3-0.1-0.3-0.3v-8.3c0-0.2,0.1-0.3,0.3-0.3h18.4c0.2,0,0.3,0.1,0.3,0.3v8.3
					c0,0.2-0.1,0.3-0.3,0.3H101.9z"/>
				<path fill="#682A7C" d="M120.3,60.39v8.3h-18.4v-8.3H120.3 M120.3,59.79h-18.4c-0.3,0-0.6,0.3-0.6,0.6v8.3
					c0,0.3,0.2,0.6,0.6,0.6h18.4c0.3,0,0.6-0.3,0.6-0.6v-8.3C120.9,60.09,120.6,59.79,120.3,59.79L120.3,59.79z"/>
				<g>
					<path fill="#682A7C" d="M105.9,67.29c0.9,0,1.9,0,2.8,0c0.3,0,0.3-0.5,0-0.5c-0.9,0-1.9,0-2.8,0
						C105.6,66.69,105.6,67.29,105.9,67.29L105.9,67.29z"/>
				</g>
				<g>
					<path fill="#682A7C" d="M103.8,65.09c0.5,0,0.9,0,1.4,0c0.3,0,0.3-0.5,0-0.5c-0.5,0-0.9,0-1.4,0
						C103.5,64.49,103.5,65.09,103.8,65.09L103.8,65.09z"/>
				</g>
				<g>
					<path fill="#682A7C" d="M104,62.49c0.5,0,0.9,0,1.4,0c0.3,0,0.3-0.5,0-0.5c-0.5,0-0.9,0-1.4,0
						C103.6,61.89,103.6,62.49,104,62.49L104,62.49z"/>
				</g>
				<g>
					<path fill="#682A7C" d="M118.3,66.79c-0.6,0-1.1,0-1.7,0c-0.3,0-0.3,0.5,0,0.5c0.6,0,1.1,0,1.7,0
						C118.6,67.39,118.6,66.79,118.3,66.79L118.3,66.79z"/>
				</g>
				<path fill="#682A7C" d="M120.3,60.39v8.3h-18.4v-8.3H120.3 M120.3,59.79h-18.4c-0.3,0-0.6,0.3-0.6,0.6v8.3
					c0,0.3,0.2,0.6,0.6,0.6h18.4c0.3,0,0.6-0.3,0.6-0.6v-8.3C120.9,60.09,120.6,59.79,120.3,59.79L120.3,59.79z"/>
				<path opacity="0.5" fill="#FAFBFB" enable-background="new    " d="M112.2,61.69c-0.9-0.6-2-0.5-3-0.6c-0.8-0.1-1.6-0.1-2.3,0.2
					c-0.5,0.2,0.3,0.5,0.4,0.6c0.2,0.1,0.4,0.1,0.7,0.2c0.6,0.1,1.2,0.2,1.9,0.2c0.6,0,1.1-0.1,1.7-0.1
					C111.6,61.99,112.6,61.89,112.2,61.69z"/>
			</g>
			<g>
				<g>
					<path fill="#935F36" d="M81.4,89.99c-0.2,0-0.3-0.1-0.3-0.3v-8.3c0-0.2,0.1-0.3,0.3-0.3h18.4c0.2,0,0.3,0.1,0.3,0.3v8.3
						c0,0.2-0.1,0.3-0.3,0.3H81.4z"/>
					<path fill="#682A7C" d="M99.8,81.39v8.3H81.4v-8.3H99.8 M99.8,80.79H81.4c-0.3,0-0.6,0.3-0.6,0.6v8.3c0,0.3,0.3,0.6,0.6,0.6
						h18.4c0.3,0,0.6-0.3,0.6-0.6v-8.3C100.4,80.99,100.1,80.79,99.8,80.79L99.8,80.79z"/>
				</g>
				<path fill="#682A7C" d="M99.8,81.39v8.3H81.4v-8.3H99.8 M99.8,80.79H81.4c-0.3,0-0.6,0.3-0.6,0.6v8.3c0,0.3,0.3,0.6,0.6,0.6
					h18.4c0.3,0,0.6-0.3,0.6-0.6v-8.3C100.4,80.99,100.1,80.79,99.8,80.79L99.8,80.79z"/>
				<path opacity="0.5" fill="#FAFBFB" enable-background="new    " d="M99,82.79c-0.7-0.4-1.5-0.5-2.3-0.6
					c-1.5-0.2-3.2-0.8-4.6,0.2l0,0c0.3,0.4,1.4,0.4,1.8,0.4c1.2,0,2.4,0.4,3.7,0.5c0.4,0,0.8,0,1.2,0c0,0,0.7-0.2,0.6-0.3
					C99.2,82.89,99.1,82.79,99,82.79z"/>
			</g>
			<path fill="#C6C6C5" d="M102.3,70.29h-0.4c-0.3,0-0.6,0.3-0.6,0.6v2.6C101.9,72.59,102.2,71.49,102.3,70.29z"/>
			<g>
				<g>
					<path fill="#B46128" d="M81.4,79.59c-0.2,0-0.3-0.1-0.3-0.3v-8.3c0-0.2,0.1-0.3,0.3-0.3h18.4c0.2,0,0.3,0.1,0.3,0.3v8.3
						c0,0.2-0.1,0.3-0.3,0.3H81.4z"/>
					<g>
						<path fill="#682A7C" d="M99.8,70.99v8.3H81.4v-8.3H99.8 M99.8,70.29H81.4c-0.3,0-0.6,0.3-0.6,0.6v8.3c0,0.3,0.3,0.6,0.6,0.6
							h18.4c0.3,0,0.6-0.3,0.6-0.6v-8.3C100.4,70.59,100.1,70.29,99.8,70.29L99.8,70.29z"/>
					</g>
				</g>
				<g>
					<path fill="#682A7C" d="M84.7,77.29c0.6,0,1.1,0,1.7,0c0.3,0,0.3-0.5,0-0.5c-0.6,0-1.1,0-1.7,0
						C84.4,76.69,84.4,77.29,84.7,77.29L84.7,77.29z"/>
				</g>
				<g>
					<path fill="#682A7C" d="M88,74.29c0.4,0,0.9,0,1.3,0c0.3,0,0.3-0.5,0-0.5c-0.4,0-0.9,0-1.3,0C87.6,73.69,87.6,74.29,88,74.29
						L88,74.29z"/>
				</g>
				<g>
					<path fill="#682A7C" d="M92.6,76.89c1.6,0,3.1,0,4.7,0c0.3,0,0.3-0.5,0-0.5c-1.6,0-3.1,0-4.7,0
						C92.3,76.29,92.3,76.89,92.6,76.89L92.6,76.89z"/>
				</g>
				<g>
					<path fill="#682A7C" d="M99.8,70.99v8.3H81.4v-8.3H99.8 M99.8,70.29H81.4c-0.3,0-0.6,0.3-0.6,0.6v8.3c0,0.3,0.3,0.6,0.6,0.6
						h18.4c0.3,0,0.6-0.3,0.6-0.6v-8.3C100.4,70.59,100.1,70.29,99.8,70.29L99.8,70.29z"/>
				</g>
			</g>
			<g>
				<g>
					<path fill="#935F36" d="M101.9,79.59c-0.2,0-0.3-0.1-0.3-0.3v-8.3c0-0.2,0.1-0.3,0.3-0.3h18.4c0.2,0,0.3,0.1,0.3,0.3v8.3
						c0,0.2-0.1,0.3-0.3,0.3H101.9z"/>
					<path fill="#682A7C" d="M120.3,70.99v8.3h-18.4v-8.3H120.3 M120.3,70.29h-18.4c-0.3,0-0.6,0.3-0.6,0.6v8.3
						c0,0.3,0.2,0.6,0.6,0.6h18.4c0.3,0,0.6-0.3,0.6-0.6v-8.3C120.9,70.59,120.6,70.29,120.3,70.29L120.3,70.29z"/>
				</g>
				<g>
					<path fill="#682A7C" d="M117.4,77.19c-1.8,0-3.7,0-5.5,0c-0.3,0-0.3,0.5,0,0.5c1.8,0,3.7,0,5.5,0
						C117.7,77.69,117.7,77.19,117.4,77.19L117.4,77.19z"/>
				</g>
				<g>
					<path fill="#682A7C" d="M104.7,77.59c0.6,0,1.2,0,1.9,0c0.3,0,0.3-0.5,0-0.5c-0.6,0-1.2,0-1.9,0
						C104.4,76.99,104.4,77.59,104.7,77.59L104.7,77.59z"/>
				</g>
				<g>
					<path fill="#682A7C" d="M104.4,74.99c0.3,0,0.6,0,0.8,0c0.3,0,0.3-0.5,0-0.5s-0.6,0-0.8,0C104.1,74.39,104.1,74.99,104.4,74.99
						L104.4,74.99z"/>
				</g>
				<g>
					<path fill="#682A7C" d="M108.4,75.59c0.3,0,0.6,0,0.8,0c0.3,0,0.3-0.5,0-0.5s-0.6,0-0.8,0C108.1,75.09,108.1,75.59,108.4,75.59
						L108.4,75.59z"/>
				</g>
				<path fill="#682A7C" d="M120.3,70.99v8.3h-18.4v-8.3H120.3 M120.3,70.29h-18.4c-0.3,0-0.6,0.3-0.6,0.6v8.3
					c0,0.3,0.2,0.6,0.6,0.6h18.4c0.3,0,0.6-0.3,0.6-0.6v-8.3C120.9,70.59,120.6,70.29,120.3,70.29L120.3,70.29z"/>
				<path opacity="0.5" fill="#FAFBFB" enable-background="new    " d="M116.5,71.39c-0.7-0.1-1.8-0.2-2.5,0.3c0.1,0,0.1,0,0.2,0
					s0.1,0.2,0,0.2s-0.3,0-0.4,0c0,0-0.1,0.1-0.1,0.2s-0.1,0.1-0.1,0c-0.1,0.1-0.1,0.2,0,0.3c0.2,0.1,0.5,0.1,0.7,0.2
					c0.4,0,0.8,0,1.2,0c1.3,0.1,2.7,0.6,3.9,0C118.7,71.69,117.3,71.49,116.5,71.39z"/>
			</g>
		</g>
	</g>
	<g>
		<g>
			<g>
				<g>
					<path fill="#F6EC78" d="M207.4,56.69c0.1,0,0.2,0,0.3-0.1l9.5-5l9.5,5c0.1,0.1,0.2,0.1,0.3,0.1s0.3,0,0.4-0.1
						c0.2-0.1,0.3-0.4,0.3-0.7l-1.8-10.5l7.7-7.5c0.2-0.2,0.2-0.4,0.2-0.7c-0.1-0.2-0.3-0.4-0.5-0.5l-10.6-1.5l-4.7-9.6
						c-0.1-0.2-0.3-0.4-0.6-0.4s-0.5,0.1-0.6,0.4l-4.7,9.6l-10.6,1.5c-0.3,0-0.5,0.2-0.5,0.5c-0.1,0.2,0,0.5,0.2,0.7l7.7,7.5
						l-1.8,10.5c0,0.3,0.1,0.5,0.3,0.7C207.1,56.69,207.2,56.69,207.4,56.69z"/>
				</g>
				<g>
					<path fill="#682A7C" d="M217.1,25.89l4.9,9.9l10.9,1.6l-7.9,7.7l1.9,10.9l-9.8-5.1l-9.8,5.1l1.9-10.9l-7.9-7.7l10.9-1.6
						L217.1,25.89 M217.1,24.59c-0.5,0-1,0.3-1.2,0.7l-4.6,9.3l-10.2,1.5c-0.5,0.1-0.9,0.4-1.1,0.9c-0.2,0.5,0,1,0.3,1.4l7.4,7.2
						l-1.7,10.2c-0.1,0.5,0.1,1,0.5,1.3c0.2,0.2,0.5,0.3,0.8,0.3c0.2,0,0.4-0.1,0.6-0.2l9.2-4.8l9.2,4.8c0.2,0.1,0.4,0.2,0.6,0.2
						c0.3,0,0.6-0.1,0.8-0.3c0.4-0.3,0.6-0.8,0.5-1.3l-1.7-10.2l7.4-7.2c0.4-0.4,0.5-0.9,0.3-1.4s-0.6-0.8-1.1-0.9l-10.2-1.5
						l-4.6-9.3C218.1,24.89,217.6,24.59,217.1,24.59L217.1,24.59z"/>
				</g>
			</g>
			<g>
				<path fill="#682A7C" d="M217.1,25.89l4.9,9.9l10.9,1.6l-7.9,7.7l1.9,10.9l-9.8-5.1l-9.8,5.1l1.9-10.9l-7.9-7.7l10.9-1.6
					L217.1,25.89 M217.1,24.59c-0.5,0-1,0.3-1.2,0.7l-4.6,9.3l-10.2,1.5c-0.5,0.1-0.9,0.4-1.1,0.9c-0.2,0.5,0,1,0.3,1.4l7.4,7.2
					l-1.7,10.2c-0.1,0.5,0.1,1,0.5,1.3c0.2,0.2,0.5,0.3,0.8,0.3c0.2,0,0.4-0.1,0.6-0.2l9.2-4.8l9.2,4.8c0.2,0.1,0.4,0.2,0.6,0.2
					c0.3,0,0.6-0.1,0.8-0.3c0.4-0.3,0.6-0.8,0.5-1.3l-1.7-10.2l7.4-7.2c0.4-0.4,0.5-0.9,0.3-1.4s-0.6-0.8-1.1-0.9l-10.2-1.5
					l-4.6-9.3C218.1,24.89,217.6,24.59,217.1,24.59L217.1,24.59z"/>
			</g>
			<g>
				<g>
					<path fill="#FAFBFB" d="M224,40.09c2,0.1,2.1,0.1,2.1,3.2c0-3,0.1-3.1,2.1-3.2c-2-0.1-2.1-0.1-2.1-3.2
						C226.1,39.89,226.1,39.99,224,40.09z"/>
				</g>
			</g>
			<g>
				<g>
					<path fill="#FAFBFB" d="M210.4,51.49c2,0.1,2.1,0.1,2.1,3.2c0-3,0.1-3.1,2.1-3.2c-2-0.1-2.1-0.1-2.1-3.2
						C212.4,51.39,212.4,51.39,210.4,51.49z"/>
				</g>
			</g>
			<g>
				<g>
					<path fill="#FAFBFB" d="M205.3,38.39c3.1,0.1,3.1,0.2,3.2,4.8c0.1-4.6,0.1-4.7,3.2-4.8c-3.1-0.1-3.1-0.2-3.2-4.8
						C208.4,38.29,208.4,38.29,205.3,38.39z"/>
				</g>
			</g>
			<g>
				<g>
					<path fill="#FAFBFB" d="M210.9,35.29c3.1,0.1,3.1,0.2,3.2,4.8c0.1-4.6,0.1-4.7,3.2-4.8c-3.1-0.1-3.1-0.2-3.2-4.8
						C214.1,35.09,214,35.19,210.9,35.29z"/>
				</g>
			</g>
		</g>
		<g>
			<g>
				<path fill="#FAFBFB" d="M191.8,25.29c7.3,0.2,7.5,0.3,7.6,9.1c0.2-8.7,0.3-8.9,7.6-9.1c-7.3-0.2-7.5-0.3-7.6-9.1
					C199.2,24.89,199.1,25.09,191.8,25.29z"/>
			</g>
		</g>
		<g>
			<g>
				<path fill="#FAFBFB" d="M226.4,27.39c5.6,0.1,5.7,0.3,5.8,7c0.1-6.7,0.2-6.8,5.8-7c-5.6-0.1-5.7-0.3-5.8-7
					C232.1,27.09,232,27.19,226.4,27.39z"/>
			</g>
		</g>
		<g>
			<g>
				<path fill="#FAFBFB" d="M230.5,48.29c5.6,0.1,5.7,0.3,5.8,7c0.1-6.7,0.2-6.8,5.8-7c-5.6-0.1-5.7-0.3-5.8-7
					C236.2,47.99,236.1,48.19,230.5,48.29z"/>
			</g>
		</g>
	</g>
	<g>
		<g>
			<path fill="#99ABBF" d="M195.8,82.49h0.7h17.6c0.3,0,0.5,0.2,0.5,0.5l0,0v0.1v8.3c0,0.3-0.2,0.6-0.6,0.6h-18.4
				c-0.3,0-0.6-0.3-0.6-0.6v-8.3C195.3,82.79,195.5,82.49,195.8,82.49z"/>
			<path fill="#99ABBF" d="M216.3,61.49h0.7h17.6c0.3,0,0.5,0.2,0.5,0.5l0,0v0.1v8.3c0,0.3-0.3,0.6-0.6,0.6h-18.4
				c-0.3,0-0.6-0.3-0.6-0.6v-8.3C215.8,61.69,216,61.49,216.3,61.49z"/>
			<path fill="#99ABBF" d="M195.8,61.49h1.7h16.7c0.3,0,0.6,0.3,0.6,0.6v4.5v3.8c0,0.3-0.2,0.6-0.6,0.6h-18.4
				c-0.3,0-0.6-0.3-0.6-0.6v-8.3C195.3,61.79,195.5,61.49,195.8,61.49z"/>
			<path fill="#99ABBF" d="M216.3,82.49h18.4c0.2,0,0.3,0.1,0.4,0.2l0,0c0,0,0,0.1,0.1,0.1l0,0v0.1l0,0v0.1v0.1v8.3
				c0,0.3-0.3,0.6-0.6,0.6h-18.4c-0.3,0-0.6-0.3-0.6-0.6v-6.8v-1.5C215.8,82.79,216,82.49,216.3,82.49z"/>
			<path fill="#99ABBF" d="M216.3,72.09h18.4c0.3,0,0.6,0.3,0.6,0.6v1v7.3c0,0.3-0.3,0.6-0.6,0.6h-18.4c-0.3,0-0.6-0.3-0.6-0.6v-4.2
				v-4.1C215.8,72.29,216,72.09,216.3,72.09z"/>
			<path fill="#99ABBF" d="M195.8,72.09h18h0.4c0.3,0,0.6,0.3,0.6,0.6v2.6v2.3v3.4c0,0.3-0.2,0.6-0.6,0.6h-18.4
				c-0.3,0-0.6-0.3-0.6-0.6v-4.6v-3.8C195.3,72.29,195.5,72.09,195.8,72.09z"/>
		</g>
		<g>
			<g>
				<g>
					<path fill="#DC8F51" d="M215.8,89.99c0.2,0,0.3-0.1,0.3-0.3v-8.3c0-0.2-0.1-0.3-0.3-0.3h-18.4c-0.2,0-0.3,0.1-0.3,0.3v8.3
						c0,0.2,0.1,0.3,0.3,0.3H215.8z"/>
					<path fill="#682A7C" d="M197.4,81.39h18.4v8.3h-18.4V81.39 M197.4,80.79c-0.3,0-0.6,0.3-0.6,0.6v8.3c0,0.3,0.2,0.6,0.6,0.6
						h18.4c0.3,0,0.6-0.3,0.6-0.6v-8.3c0-0.3-0.2-0.6-0.6-0.6H197.4L197.4,80.79z"/>
				</g>
				<g>
					<path fill="#682A7C" d="M212.7,88.39c-0.5,0-1,0-1.5,0c-0.3,0-0.3-0.5,0-0.5c0.5,0,1,0,1.5,0C213,87.89,213,88.39,212.7,88.39
						L212.7,88.39z"/>
				</g>
				<g>
					<path fill="#682A7C" d="M213.8,85.69c-1.8,0-3.5,0-5.3,0c-0.3,0-0.3-0.5,0-0.5c1.8,0,3.5,0,5.3,0
						C214.1,85.19,214.1,85.69,213.8,85.69L213.8,85.69z"/>
				</g>
				<g>
					<path fill="#682A7C" d="M200.5,87.59c2.4,0,4.8,0,7.2,0c0.3,0,0.3,0.5,0,0.5c-2.4,0-4.8,0-7.2,0
						C200.2,88.09,200.2,87.59,200.5,87.59L200.5,87.59z"/>
				</g>
				<path fill="#682A7C" d="M197.4,81.39h18.4v8.3h-18.4V81.39 M197.4,80.79c-0.3,0-0.6,0.3-0.6,0.6v8.3c0,0.3,0.2,0.6,0.6,0.6h18.4
					c0.3,0,0.6-0.3,0.6-0.6v-8.3c0-0.3-0.2-0.6-0.6-0.6H197.4L197.4,80.79z"/>
			</g>
			<g>
				<g>
					<path fill="#DC8F51" d="M236.2,68.99c0.2,0,0.3-0.1,0.3-0.3v-8.3c0-0.2-0.1-0.3-0.3-0.3h-18.4c-0.2,0-0.3,0.1-0.3,0.3v8.3
						c0,0.2,0.1,0.3,0.3,0.3H236.2z"/>
					<path fill="#682A7C" d="M217.9,60.39h18.4v8.3h-18.4V60.39 M217.9,59.69c-0.3,0-0.6,0.3-0.6,0.6v8.3c0,0.3,0.3,0.6,0.6,0.6
						h18.4c0.3,0,0.6-0.3,0.6-0.6v-8.3c0-0.3-0.3-0.6-0.6-0.6L217.9,59.69L217.9,59.69z"/>
				</g>
				<g>
					<path fill="#682A7C" d="M233.2,67.39c-0.5,0-1,0-1.5,0c-0.3,0-0.3-0.5,0-0.5c0.5,0,1,0,1.5,0
						C233.5,66.89,233.5,67.39,233.2,67.39L233.2,67.39z"/>
				</g>
				<g>
					<path fill="#682A7C" d="M234.3,64.69c-1.8,0-3.5,0-5.3,0c-0.3,0-0.3-0.5,0-0.5c1.8,0,3.5,0,5.3,0
						C234.6,64.19,234.6,64.69,234.3,64.69L234.3,64.69z"/>
				</g>
				<g>
					<path fill="#682A7C" d="M221,66.59c2.4,0,4.8,0,7.2,0c0.3,0,0.3,0.5,0,0.5c-2.4,0-4.8,0-7.2,0
						C220.7,67.09,220.7,66.59,221,66.59L221,66.59z"/>
				</g>
				<path fill="#682A7C" d="M217.9,60.39h18.4v8.3h-18.4V60.39 M217.9,59.69c-0.3,0-0.6,0.3-0.6,0.6v8.3c0,0.3,0.3,0.6,0.6,0.6h18.4
					c0.3,0,0.6-0.3,0.6-0.6v-8.3c0-0.3-0.3-0.6-0.6-0.6L217.9,59.69L217.9,59.69z"/>
			</g>
			<g>
				<path fill="#EC7E23" d="M215.8,68.99c0.2,0,0.3-0.1,0.3-0.3v-8.3c0-0.2-0.1-0.3-0.3-0.3h-18.4c-0.2,0-0.3,0.1-0.3,0.3v8.3
					c0,0.2,0.1,0.3,0.3,0.3H215.8z"/>
				<path fill="#682A7C" d="M197.4,60.39h18.4v8.3h-18.4V60.39 M197.4,59.79c-0.3,0-0.6,0.3-0.6,0.6v8.3c0,0.3,0.2,0.6,0.6,0.6h18.4
					c0.3,0,0.6-0.3,0.6-0.6v-8.3c0-0.3-0.2-0.6-0.6-0.6H197.4L197.4,59.79z"/>
				<g>
					<path fill="#682A7C" d="M211.8,67.29c-0.9,0-1.9,0-2.8,0c-0.3,0-0.3-0.5,0-0.5c0.9,0,1.9,0,2.8,0
						C212.1,66.69,212.1,67.29,211.8,67.29L211.8,67.29z"/>
				</g>
				<g>
					<path fill="#682A7C" d="M213.9,65.09c-0.5,0-0.9,0-1.4,0c-0.3,0-0.3-0.5,0-0.5c0.5,0,0.9,0,1.4,0
						C214.2,64.49,214.2,65.09,213.9,65.09L213.9,65.09z"/>
				</g>
				<g>
					<path fill="#682A7C" d="M213.7,62.49c-0.5,0-0.9,0-1.4,0c-0.3,0-0.3-0.5,0-0.5c0.5,0,0.9,0,1.4,0
						C214,61.89,214,62.49,213.7,62.49L213.7,62.49z"/>
				</g>
				<g>
					<path fill="#682A7C" d="M199.4,66.79c0.6,0,1.1,0,1.7,0c0.3,0,0.3,0.5,0,0.5c-0.6,0-1.1,0-1.7,0
						C199.1,67.39,199.1,66.79,199.4,66.79L199.4,66.79z"/>
				</g>
				<path fill="#682A7C" d="M197.4,60.39h18.4v8.3h-18.4V60.39 M197.4,59.79c-0.3,0-0.6,0.3-0.6,0.6v8.3c0,0.3,0.2,0.6,0.6,0.6h18.4
					c0.3,0,0.6-0.3,0.6-0.6v-8.3c0-0.3-0.2-0.6-0.6-0.6H197.4L197.4,59.79z"/>
				<path opacity="0.5" fill="#FAFBFB" enable-background="new    " d="M205.5,61.69c0.9-0.6,2-0.5,3-0.6c0.8-0.1,1.6-0.1,2.3,0.2
					c0.5,0.2-0.3,0.5-0.4,0.6c-0.2,0.1-0.4,0.1-0.7,0.2c-0.6,0.1-1.2,0.2-1.9,0.2c-0.6,0-1.1-0.1-1.7-0.1
					C206.1,61.99,205.1,61.89,205.5,61.69z"/>
			</g>
			<g>
				<g>
					<path fill="#935F36" d="M236.2,89.99c0.2,0,0.3-0.1,0.3-0.3v-8.3c0-0.2-0.1-0.3-0.3-0.3h-18.4c-0.2,0-0.3,0.1-0.3,0.3v8.3
						c0,0.2,0.1,0.3,0.3,0.3H236.2z"/>
					<path fill="#682A7C" d="M217.9,81.39h18.4v8.3h-18.4V81.39 M217.9,80.79c-0.3,0-0.6,0.3-0.6,0.6v8.3c0,0.3,0.2,0.6,0.6,0.6
						h18.4c0.3,0,0.6-0.3,0.6-0.6v-8.3c0-0.3-0.3-0.6-0.6-0.6H217.9L217.9,80.79z"/>
				</g>
				<path fill="#682A7C" d="M217.9,81.39h18.4v8.3h-18.4V81.39 M217.9,80.79c-0.3,0-0.6,0.3-0.6,0.6v8.3c0,0.3,0.2,0.6,0.6,0.6h18.4
					c0.3,0,0.6-0.3,0.6-0.6v-8.3c0-0.3-0.3-0.6-0.6-0.6H217.9L217.9,80.79z"/>
				<path opacity="0.5" fill="#FAFBFB" enable-background="new    " d="M218.7,82.79c0.7-0.4,1.5-0.5,2.3-0.6
					c1.5-0.2,3.2-0.8,4.6,0.2l0,0c-0.3,0.4-1.4,0.4-1.8,0.4c-1.2,0-2.4,0.4-3.7,0.5c-0.4,0-0.8,0-1.2,0c0,0-0.7-0.2-0.6-0.3
					C218.5,82.89,218.6,82.79,218.7,82.79z"/>
			</g>
			<path fill="#C6C6C5" d="M215.4,70.29h0.4c0.3,0,0.6,0.3,0.6,0.6v2.6C215.8,72.59,215.5,71.49,215.4,70.29z"/>
			<g>
				<g>
					<path fill="#B46128" d="M236.2,79.59c0.2,0,0.3-0.1,0.3-0.3v-8.3c0-0.2-0.1-0.3-0.3-0.3h-18.4c-0.2,0-0.3,0.1-0.3,0.3v8.3
						c0,0.2,0.1,0.3,0.3,0.3H236.2z"/>
					<g>
						<path fill="#682A7C" d="M217.9,70.99h18.4v8.3h-18.4V70.99 M217.9,70.29c-0.3,0-0.6,0.3-0.6,0.6v8.3c0,0.3,0.3,0.6,0.6,0.6
							h18.4c0.3,0,0.6-0.3,0.6-0.6v-8.3c0-0.3-0.3-0.6-0.6-0.6H217.9L217.9,70.29z"/>
					</g>
				</g>
				<g>
					<path fill="#682A7C" d="M233,77.29c-0.6,0-1.1,0-1.7,0c-0.3,0-0.3-0.5,0-0.5c0.6,0,1.1,0,1.7,0
						C233.3,76.69,233.3,77.29,233,77.29L233,77.29z"/>
				</g>
				<g>
					<path fill="#682A7C" d="M229.7,74.29c-0.4,0-0.9,0-1.3,0c-0.3,0-0.3-0.5,0-0.5c0.4,0,0.9,0,1.3,0
						C230,73.69,230,74.29,229.7,74.29L229.7,74.29z"/>
				</g>
				<g>
					<path fill="#682A7C" d="M225.1,76.89c-1.6,0-3.1,0-4.7,0c-0.3,0-0.3-0.5,0-0.5c1.6,0,3.1,0,4.7,0
						C225.4,76.29,225.4,76.89,225.1,76.89L225.1,76.89z"/>
				</g>
				<g>
					<path fill="#682A7C" d="M217.9,70.99h18.4v8.3h-18.4V70.99 M217.9,70.29c-0.3,0-0.6,0.3-0.6,0.6v8.3c0,0.3,0.3,0.6,0.6,0.6
						h18.4c0.3,0,0.6-0.3,0.6-0.6v-8.3c0-0.3-0.3-0.6-0.6-0.6H217.9L217.9,70.29z"/>
				</g>
			</g>
			<g>
				<g>
					<path fill="#935F36" d="M215.8,79.59c0.2,0,0.3-0.1,0.3-0.3v-8.3c0-0.2-0.1-0.3-0.3-0.3h-18.4c-0.2,0-0.3,0.1-0.3,0.3v8.3
						c0,0.2,0.1,0.3,0.3,0.3H215.8z"/>
					<path fill="#682A7C" d="M197.4,70.99h18.4v8.3h-18.4V70.99 M197.4,70.29c-0.3,0-0.6,0.3-0.6,0.6v8.3c0,0.3,0.2,0.6,0.6,0.6
						h18.4c0.3,0,0.6-0.3,0.6-0.6v-8.3c0-0.3-0.2-0.6-0.6-0.6H197.4L197.4,70.29z"/>
				</g>
				<g>
					<path fill="#682A7C" d="M200.3,77.19c1.8,0,3.7,0,5.5,0c0.3,0,0.3,0.5,0,0.5c-1.8,0-3.7,0-5.5,0
						C200,77.69,200,77.19,200.3,77.19L200.3,77.19z"/>
				</g>
				<g>
					<path fill="#682A7C" d="M213,77.59c-0.6,0-1.2,0-1.9,0c-0.3,0-0.3-0.5,0-0.5c0.6,0,1.2,0,1.9,0
						C213.3,76.99,213.3,77.59,213,77.59L213,77.59z"/>
				</g>
				<g>
					<path fill="#682A7C" d="M213.2,74.99c-0.3,0-0.6,0-0.8,0c-0.3,0-0.3-0.5,0-0.5s0.6,0,0.8,0
						C213.6,74.39,213.6,74.99,213.2,74.99L213.2,74.99z"/>
				</g>
				<g>
					<path fill="#682A7C" d="M209.2,75.59c-0.3,0-0.6,0-0.8,0c-0.3,0-0.3-0.5,0-0.5s0.6,0,0.8,0
						C209.6,75.09,209.6,75.59,209.2,75.59L209.2,75.59z"/>
				</g>
				<path fill="#682A7C" d="M197.4,70.99h18.4v8.3h-18.4V70.99 M197.4,70.29c-0.3,0-0.6,0.3-0.6,0.6v8.3c0,0.3,0.2,0.6,0.6,0.6h18.4
					c0.3,0,0.6-0.3,0.6-0.6v-8.3c0-0.3-0.2-0.6-0.6-0.6H197.4L197.4,70.29z"/>
				<path opacity="0.5" fill="#FAFBFB" enable-background="new    " d="M201.2,71.39c0.7-0.1,1.8-0.2,2.5,0.3c-0.1,0-0.1,0-0.2,0
					c-0.1,0-0.1,0.2,0,0.2s0.3,0,0.4,0c0,0,0.1,0.1,0.1,0.2s0.1,0.1,0.1,0c0.1,0.1,0.1,0.2,0,0.3c-0.2,0.1-0.5,0.1-0.7,0.2
					c-0.4,0-0.8,0-1.2,0c-1.3,0.1-2.7,0.6-3.9,0C199,71.69,200.3,71.49,201.2,71.39z"/>
			</g>
		</g>
	</g>
	<g>
		<g>
			<g>
				<g>
					<path fill="#DC8F51" d="M161.6,80.89c-0.2,0-0.3-0.2-0.3-0.3v-9.1c0-0.2,0.1-0.3,0.3-0.3h20c0.2,0,0.3,0.2,0.3,0.3v9.1
						c0,0.2-0.1,0.3-0.3,0.3H161.6z"/>
					<path fill="#682A7C" d="M181.6,71.49v9.1h-20v-9.1H181.6 M181.6,70.89h-20c-0.3,0-0.6,0.3-0.6,0.7v9c0,0.4,0.3,0.7,0.6,0.7h20
						c0.3,0,0.6-0.3,0.6-0.7v-9.1C182.3,71.19,182,70.89,181.6,70.89L181.6,70.89z"/>
				</g>
				<g>
					<path fill="#682A7C" d="M165,79.19c0.5,0,1.1,0,1.6,0c0.3,0,0.3-0.6,0-0.6c-0.5,0-1.1,0-1.6,0
						C164.6,78.59,164.6,79.19,165,79.19L165,79.19z"/>
				</g>
				<g>
					<path fill="#682A7C" d="M163.8,76.29c1.9,0,3.9,0,5.8,0c0.3,0,0.3-0.6,0-0.6c-1.9,0-3.9,0-5.8,0
						C163.4,75.69,163.4,76.29,163.8,76.29L163.8,76.29z"/>
				</g>
				<g>
					<path fill="#682A7C" d="M178.3,78.29c-2.6,0-5.2,0-7.8,0c-0.3,0-0.3,0.6,0,0.6c2.6,0,5.2,0,7.8,0
						C178.6,78.89,178.6,78.29,178.3,78.29L178.3,78.29z"/>
				</g>
				<path fill="#682A7C" d="M181.6,71.49v9.1h-20v-9.1H181.6 M181.6,70.89h-20c-0.3,0-0.6,0.3-0.6,0.7v9c0,0.4,0.3,0.7,0.6,0.7h20
					c0.3,0,0.6-0.3,0.6-0.7v-9.1C182.3,71.19,182,70.89,181.6,70.89L181.6,70.89z"/>
			</g>
			<g>
				<g>
					<path fill="#DC8F51" d="M139.3,57.99c-0.2,0-0.3-0.2-0.3-0.3v-9.1c0-0.2,0.1-0.3,0.3-0.3h20c0.2,0,0.3,0.2,0.3,0.3v9.1
						c0,0.2-0.1,0.3-0.3,0.3C159.3,57.99,139.3,57.99,139.3,57.99z"/>
					<path fill="#682A7C" d="M159.3,48.59v9.1h-20v-9.1H159.3 M159.3,47.99h-20c-0.3,0-0.6,0.3-0.6,0.7v9.1c0,0.4,0.3,0.7,0.6,0.7
						h20c0.3,0,0.6-0.3,0.6-0.7v-9.2C159.9,48.29,159.7,47.99,159.3,47.99L159.3,47.99z"/>
				</g>
				<g>
					<path fill="#682A7C" d="M142.6,56.29c0.5,0,1.1,0,1.6,0c0.3,0,0.3-0.6,0-0.6c-0.5,0-1.1,0-1.6,0
						C142.3,55.69,142.3,56.29,142.6,56.29L142.6,56.29z"/>
				</g>
				<g>
					<path fill="#682A7C" d="M141.4,53.39c1.9,0,3.9,0,5.8,0c0.3,0,0.3-0.6,0-0.6c-1.9,0-3.9,0-5.8,0
						C141.1,52.79,141.1,53.39,141.4,53.39L141.4,53.39z"/>
				</g>
				<g>
					<path fill="#682A7C" d="M155.9,55.39c-2.6,0-5.2,0-7.8,0c-0.3,0-0.3,0.6,0,0.6c2.6,0,5.2,0,7.8,0
						C156.3,55.99,156.3,55.39,155.9,55.39L155.9,55.39z"/>
				</g>
				<path fill="#682A7C" d="M159.3,48.59v9.1h-20v-9.1H159.3 M159.3,47.99h-20c-0.3,0-0.6,0.3-0.6,0.7v9.1c0,0.4,0.3,0.7,0.6,0.7h20
					c0.3,0,0.6-0.3,0.6-0.7v-9.2C159.9,48.29,159.7,47.99,159.3,47.99L159.3,47.99z"/>
			</g>
			<g>
				<path fill="#EC7E23" d="M161.6,58.09c-0.2,0-0.3-0.2-0.3-0.3v-9.1c0-0.2,0.1-0.3,0.3-0.3h20c0.2,0,0.3,0.2,0.3,0.3v9.1
					c0,0.2-0.1,0.3-0.3,0.3C181.6,58.09,161.6,58.09,161.6,58.09z"/>
				<path fill="#682A7C" d="M181.6,48.69v9.1h-20v-9.1H181.6 M181.6,47.99h-20c-0.3,0-0.6,0.3-0.6,0.7v9.1c0,0.4,0.3,0.7,0.6,0.7h20
					c0.3,0,0.6-0.3,0.6-0.7v-9.1C182.3,48.29,182,47.99,181.6,47.99L181.6,47.99z"/>
				<g>
					<path fill="#682A7C" d="M166,56.09c1,0,2,0,3,0c0.3,0,0.3-0.6,0-0.6c-1,0-2,0-3,0C165.6,55.59,165.6,56.09,166,56.09L166,56.09
						z"/>
				</g>
				<g>
					<path fill="#682A7C" d="M163.7,53.79c0.5,0,1,0,1.5,0c0.3,0,0.3-0.6,0-0.6c-0.5,0-1,0-1.5,0
						C163.3,53.19,163.3,53.79,163.7,53.79L163.7,53.79z"/>
				</g>
				<g>
					<path fill="#682A7C" d="M163.9,50.89c0.5,0,1,0,1.5,0c0.3,0,0.3-0.6,0-0.6c-0.5,0-1,0-1.5,0
						C163.5,50.29,163.5,50.89,163.9,50.89L163.9,50.89z"/>
				</g>
				<g>
					<path fill="#682A7C" d="M179.5,55.69c-0.6,0-1.2,0-1.8,0c-0.3,0-0.3,0.6,0,0.6c0.6,0,1.2,0,1.8,0
						C179.8,56.29,179.8,55.69,179.5,55.69L179.5,55.69z"/>
				</g>
				<path fill="#682A7C" d="M181.6,48.69v9.1h-20v-9.1H181.6 M181.6,47.99h-20c-0.3,0-0.6,0.3-0.6,0.7v9.1c0,0.4,0.3,0.7,0.6,0.7h20
					c0.3,0,0.6-0.3,0.6-0.7v-9.1C182.3,48.29,182,47.99,181.6,47.99L181.6,47.99z"/>
				<path opacity="0.5" fill="#FAFBFB" enable-background="new    " d="M172.8,50.09c-0.9-0.7-2.2-0.6-3.3-0.7
					c-0.8-0.1-1.8-0.2-2.6,0.2c-0.5,0.3,0.3,0.6,0.5,0.6c0.2,0.1,0.5,0.2,0.7,0.2c0.7,0.1,1.4,0.2,2,0.2s1.2-0.1,1.8-0.1
					C172.2,50.39,173.2,50.39,172.8,50.09z"/>
			</g>
			<g>
				<g>
					<path fill="#935F36" d="M139.3,80.89c-0.2,0-0.3-0.2-0.3-0.3v-9.1c0-0.2,0.1-0.3,0.3-0.3h20c0.2,0,0.3,0.2,0.3,0.3v9.1
						c0,0.2-0.1,0.3-0.3,0.3H139.3z"/>
					<path fill="#682A7C" d="M159.3,71.49v9.1h-20v-9.1H159.3 M159.3,70.89h-20c-0.3,0-0.6,0.3-0.6,0.7v9c0,0.4,0.3,0.7,0.6,0.7h20
						c0.3,0,0.6-0.3,0.6-0.7v-9.1C159.9,71.19,159.7,70.89,159.3,70.89L159.3,70.89z"/>
				</g>
				<path fill="#682A7C" d="M159.3,71.49v9.1h-20v-9.1H159.3 M159.3,70.89h-20c-0.3,0-0.6,0.3-0.6,0.7v9c0,0.4,0.3,0.7,0.6,0.7h20
					c0.3,0,0.6-0.3,0.6-0.7v-9.1C159.9,71.19,159.7,70.89,159.3,70.89L159.3,70.89z"/>
				<path opacity="0.5" fill="#FAFBFB" enable-background="new    " d="M158.4,73.09c-0.8-0.4-1.7-0.5-2.5-0.6
					c-1.6-0.2-3.5-0.8-5,0.2l0,0c0.3,0.4,1.6,0.4,1.9,0.4c1.4,0,2.7,0.4,4,0.5c0.4,0,0.9,0,1.3-0.1c0,0,0.8-0.2,0.6-0.3
					C158.7,73.19,158.6,73.09,158.4,73.09z"/>
			</g>
			<path fill="#C6C6C5" d="M162,59.49h-0.4c-0.3,0-0.6,0.3-0.6,0.7v2.8C161.6,61.99,162,60.79,162,59.49z"/>
			<g>
				<g>
					<path fill="#B46128" d="M139.3,69.59c-0.2,0-0.3-0.2-0.3-0.3v-9.1c0-0.2,0.1-0.3,0.3-0.3h20c0.2,0,0.3,0.2,0.3,0.3v9.1
						c0,0.2-0.1,0.3-0.3,0.3H139.3z"/>
					<g>
						<path fill="#682A7C" d="M159.3,60.19v9.1h-20v-9.1H159.3 M159.3,59.49h-20c-0.3,0-0.6,0.3-0.6,0.7v9.1c0,0.4,0.3,0.7,0.6,0.7
							h20c0.3,0,0.6-0.3,0.6-0.7v-9.1C159.9,59.79,159.7,59.49,159.3,59.49L159.3,59.49z"/>
					</g>
				</g>
				<g>
					<path fill="#682A7C" d="M142.9,67.09c0.6,0,1.2,0,1.8,0c0.3,0,0.3-0.6,0-0.6c-0.6,0-1.2,0-1.8,0
						C142.5,66.49,142.5,67.09,142.9,67.09L142.9,67.09z"/>
				</g>
				<g>
					<path fill="#682A7C" d="M146.4,63.79c0.5,0,0.9,0,1.4,0c0.3,0,0.3-0.6,0-0.6c-0.5,0-0.9,0-1.4,0
						C146.1,63.19,146.1,63.79,146.4,63.79L146.4,63.79z"/>
				</g>
				<g>
					<path fill="#682A7C" d="M151.5,66.59c1.7,0,3.4,0,5.1,0c0.3,0,0.3-0.6,0-0.6c-1.7,0-3.4,0-5.1,0
						C151.1,65.99,151.1,66.59,151.5,66.59L151.5,66.59z"/>
				</g>
				<g>
					<path fill="#682A7C" d="M159.3,60.19v9.1h-20v-9.1H159.3 M159.3,59.49h-20c-0.3,0-0.6,0.3-0.6,0.7v9.1c0,0.4,0.3,0.7,0.6,0.7
						h20c0.3,0,0.6-0.3,0.6-0.7v-9.1C159.9,59.79,159.7,59.49,159.3,59.49L159.3,59.49z"/>
				</g>
			</g>
			<g>
				<g>
					<path fill="#935F36" d="M161.6,69.59c-0.2,0-0.3-0.2-0.3-0.3v-9.1c0-0.2,0.1-0.3,0.3-0.3h20c0.2,0,0.3,0.2,0.3,0.3v9.1
						c0,0.2-0.1,0.3-0.3,0.3H161.6z"/>
					<path fill="#682A7C" d="M181.6,60.19v9.1h-20v-9.1H181.6 M181.6,59.49h-20c-0.3,0-0.6,0.3-0.6,0.7v9.1c0,0.4,0.3,0.7,0.6,0.7
						h20c0.3,0,0.6-0.3,0.6-0.7v-9.1C182.3,59.79,182,59.49,181.6,59.49L181.6,59.49z"/>
				</g>
				<g>
					<path fill="#682A7C" d="M178.5,66.89c-2,0-4,0-6,0c-0.3,0-0.3,0.6,0,0.6c2,0,4,0,6,0C178.8,67.49,178.8,66.89,178.5,66.89
						L178.5,66.89z"/>
				</g>
				<g>
					<path fill="#682A7C" d="M164.7,67.39c0.7,0,1.4,0,2,0c0.3,0,0.3-0.6,0-0.6c-0.7,0-1.4,0-2,0
						C164.3,66.79,164.3,67.39,164.7,67.39L164.7,67.39z"/>
				</g>
				<g>
					<path fill="#682A7C" d="M164.4,64.59c0.3,0,0.6,0,0.9,0c0.3,0,0.3-0.6,0-0.6s-0.6,0-0.9,0C164,63.99,164,64.59,164.4,64.59
						L164.4,64.59z"/>
				</g>
				<g>
					<path fill="#682A7C" d="M168.7,65.29c0.3,0,0.6,0,0.9,0c0.3,0,0.3-0.6,0-0.6s-0.6,0-0.9,0C168.4,64.69,168.4,65.29,168.7,65.29
						L168.7,65.29z"/>
				</g>
				<path fill="#682A7C" d="M181.6,60.19v9.1h-20v-9.1H181.6 M181.6,59.49h-20c-0.3,0-0.6,0.3-0.6,0.7v9.1c0,0.4,0.3,0.7,0.6,0.7h20
					c0.3,0,0.6-0.3,0.6-0.7v-9.1C182.3,59.79,182,59.49,181.6,59.49L181.6,59.49z"/>
				<path opacity="0.5" fill="#FAFBFB" enable-background="new    " d="M177.5,60.59c-0.8-0.1-2-0.2-2.8,0.3c0.1,0,0.2,0,0.2,0
					c0.1,0,0.1,0.2-0.1,0.2c-0.1,0-0.3,0-0.4,0c0,0.1-0.1,0.1-0.1,0.2c0,0.1-0.1,0.1-0.1,0c-0.1,0.1-0.1,0.2,0.1,0.3
					c0.2,0.1,0.5,0.2,0.8,0.2c0.4,0,0.8,0,1.3,0c1.4,0.1,2.9,0.6,4.2,0C179.9,60.99,178.4,60.69,177.5,60.59z"/>
			</g>
		</g>
		<g>
			<g>
				<path fill="#F6EC78" d="M161.4,42.69c-4.2,0-7.6-3.4-7.6-7.6v-13.3c0-4.2,3.4-7.6,7.6-7.6h2.7c4.2,0,7.6,3.4,7.6,7.6v13.4
					c0,4.2-3.4,7.6-7.6,7.6h-2.7V42.69z"/>
				<path fill="#682A7C" d="M164.2,14.49c4,0,7.3,3.3,7.3,7.3v13.4c0,4-3.3,7.3-7.3,7.3h-2.7c-4,0-7.3-3.3-7.3-7.3v-13.4
					c0-4,3.3-7.3,7.3-7.3L164.2,14.49 M164.2,13.89h-2.7c-4.4,0-7.9,3.5-7.9,7.9v13.4c0,4.4,3.5,7.9,7.9,7.9h2.7
					c4.4,0,7.9-3.5,7.9-7.9v-13.4C172.1,17.39,168.5,13.89,164.2,13.89L164.2,13.89z"/>
			</g>
			<g>
				<path fill="#F6EC78" d="M159.6,43.69c-4.2,0-7.6-3.4-7.6-7.6v-13.3c0-4.2,3.4-7.6,7.6-7.6h2.7c4.2,0,7.6,3.4,7.6,7.6v13.4
					c0,4.2-3.4,7.6-7.6,7.6h-2.7V43.69z"/>
				<path fill="#682A7C" d="M162.3,15.49c4,0,7.3,3.3,7.3,7.3v13.4c0,4-3.3,7.3-7.3,7.3h-2.7c-4,0-7.3-3.3-7.3-7.3v-13.4
					c0-4,3.3-7.3,7.3-7.3L162.3,15.49 M162.3,14.89h-2.7c-4.4,0-7.9,3.5-7.9,7.9v13.4c0,4.4,3.5,7.9,7.9,7.9h2.7
					c4.4,0,7.9-3.5,7.9-7.9v-13.4C170.2,18.39,166.7,14.89,162.3,14.89L162.3,14.89z"/>
			</g>
			<path fill="#F6EC78" d="M162,41.09c-3.7-1.3-7.1-4.2-7.8-8.3c-0.5-3-0.8-6.6,0.2-9.6c0.9-2.3,2-4.2,4.2-5.5
				c2.1-1.2,4.7-1.6,7.1-0.9c1.1,0.3,2.2,0.8,3.1,1.5c-1.4-2.1-3.8-3.5-6.6-3.5h-2.7c-4.4,0-7.9,3.5-7.9,7.9v13.4
				c0,4.4,3.5,7.9,7.9,7.9h2.7c2.4,0,4.6-1.1,6-2.8C166.3,41.79,164.2,41.79,162,41.09z"/>
			<g>
				<g>
					<path fill="#682A7C" d="M169.1,39.69c0.2,0.1,0.4,0.2,0.7,0.4c0.6,0.3,1.2-0.6,0.6-1c-0.2-0.1-0.4-0.2-0.7-0.4
						C169,38.39,168.4,39.39,169.1,39.69L169.1,39.69z"/>
				</g>
			</g>
			<g>
				<g>
					<path fill="#682A7C" d="M169.3,38.39c0.3,0.3,0.7,0.5,1,0.7c0.6,0.3,1.2-0.6,0.6-1c-0.3-0.2-0.6-0.3-0.8-0.5
						C169.5,37.19,168.7,37.99,169.3,38.39L169.3,38.39z"/>
				</g>
			</g>
			<g>
				<g>
					<path fill="#682A7C" d="M169.6,37.39c0.4,0.3,0.8,0.5,1.2,0.8c0.6,0.4,1.2-0.6,0.6-1c-0.3-0.2-0.8-0.4-1-0.6
						C169.8,36.09,169,36.89,169.6,37.39L169.6,37.39z"/>
				</g>
			</g>
			<g>
				<g>
					<path fill="#682A7C" d="M169.7,35.89c0.5,0.3,1,0.5,1.4,0.8c0.5,0.5,1.3-0.3,0.8-0.8c-0.5-0.4-1.1-0.7-1.7-1
						C169.7,34.59,169.1,35.49,169.7,35.89L169.7,35.89z"/>
				</g>
			</g>
			<g>
				<g>
					<path fill="#682A7C" d="M169.6,34.39c0.5,0.6,1.3,0.7,1.9,1.2c0.6,0.4,1.2-0.6,0.6-1c-0.5-0.4-1.2-0.5-1.6-1
						C169.9,32.99,169.1,33.89,169.6,34.39L169.6,34.39z"/>
				</g>
			</g>
			<g>
				<g>
					<path fill="#682A7C" d="M169.8,33.19c0.5,0.3,1,0.5,1.5,0.8c0.6,0.4,1.2-0.6,0.6-1c-0.5-0.3-1-0.5-1.5-0.8
						C169.8,31.79,169.2,32.79,169.8,33.19L169.8,33.19z"/>
				</g>
			</g>
			<g>
				<g>
					<path fill="#682A7C" d="M169.8,31.79c0.6,0.3,1.2,0.5,1.7,0.8c0.7,0.3,1-0.8,0.3-1.1c-0.5-0.2-1-0.4-1.5-0.7
						C169.7,30.49,169.1,31.49,169.8,31.79L169.8,31.79z"/>
				</g>
			</g>
			<g>
				<g>
					<path fill="#682A7C" d="M169.8,30.09c0.5,0.3,1.1,0.5,1.6,0.8c0.6,0.4,1.2-0.6,0.6-1c-0.5-0.3-1.1-0.5-1.6-0.8
						C169.7,28.69,169.2,29.69,169.8,30.09L169.8,30.09z"/>
				</g>
			</g>
			<g>
				<g>
					<path fill="#682A7C" d="M169.7,28.49c0.5,0.4,1.1,0.6,1.7,0.9c0.7,0.3,1.2-0.7,0.6-1c-0.5-0.2-1.1-0.4-1.5-0.7
						C170,27.29,169.2,28.09,169.7,28.49L169.7,28.49z"/>
				</g>
			</g>
			<g>
				<g>
					<path fill="#682A7C" d="M169.8,26.99c0.5,0.2,1.1,0.5,1.6,0.8c0.6,0.4,1.2-0.6,0.6-1c-0.6-0.3-1.2-0.6-1.9-0.9
						C169.5,25.69,169.2,26.79,169.8,26.99L169.8,26.99z"/>
				</g>
			</g>
			<g>
				<g>
					<path fill="#682A7C" d="M169.9,25.59c0.5,0.1,0.9,0.4,1.4,0.6c0.6,0.3,1.2-0.6,0.6-1c-0.5-0.3-1.1-0.6-1.7-0.7
						C169.5,24.39,169.2,25.39,169.9,25.59L169.9,25.59z"/>
				</g>
			</g>
			<g>
				<g>
					<path fill="#682A7C" d="M169.8,23.99c0.6,0.2,1.2,0.5,1.7,0.7c0.7,0.3,1-0.8,0.3-1.1c-0.6-0.2-1.2-0.5-1.7-0.7
						C169.4,22.59,169.1,23.69,169.8,23.99L169.8,23.99z"/>
				</g>
			</g>
			<g>
				<g>
					<path fill="#682A7C" d="M169.9,22.69c0.6,0.1,1,0.4,1.5,0.7c0.6,0.4,1.2-0.6,0.6-1c-0.6-0.3-1.1-0.7-1.8-0.8
						C169.4,21.49,169.1,22.59,169.9,22.69L169.9,22.69z"/>
				</g>
			</g>
			<g>
				<g>
					<path fill="#682A7C" d="M169.4,21.29c0.6,0.3,1.3,0.5,1.9,0.8c0.7,0.3,1.2-0.7,0.6-1c-0.6-0.3-1.3-0.4-1.9-0.8
						C169.4,19.89,168.8,20.89,169.4,21.29L169.4,21.29z"/>
				</g>
			</g>
			<g>
				<g>
					<path fill="#682A7C" d="M169.1,19.89c0.7,0.2,1.5,0.4,2.2,0.6s1-0.9,0.3-1.1s-1.4-0.5-2.2-0.6
						C168.7,18.69,168.4,19.79,169.1,19.89L169.1,19.89z"/>
				</g>
			</g>
			<g>
				<g>
					<path fill="#682A7C" d="M168.4,18.69c0.7,0,1.6,0.1,2.2,0.4c0.7,0.3,1.2-0.7,0.6-1c-0.9-0.4-1.9-0.6-2.8-0.5
						C167.6,17.59,167.6,18.69,168.4,18.69L168.4,18.69z"/>
				</g>
			</g>
			<g>
				<g>
					<path fill="#682A7C" d="M167.5,17.69c0.8,0,1.7,0,2.5,0.1c0.7,0.1,1-1,0.3-1.1c-0.9-0.2-1.9-0.2-2.8-0.1
						C166.7,16.59,166.7,17.69,167.5,17.69L167.5,17.69z"/>
				</g>
			</g>
			<g>
				<g>
					<path fill="#682A7C" d="M166.7,16.99c0.7-0.2,1.5-0.3,2.3-0.4c0.7-0.1,0.4-1.2-0.3-1.1c-0.8,0.1-1.5,0.2-2.3,0.4
						C165.7,16.09,166,17.19,166.7,16.99L166.7,16.99z"/>
				</g>
			</g>
			<g>
				<g>
					<path fill="#682A7C" d="M165.7,16.09c0.6-0.3,1.3-0.2,2-0.5s0.4-1.4-0.3-1.1c-0.7,0.3-1.5,0.2-2.2,0.6
						C164.5,15.39,165.1,16.39,165.7,16.09L165.7,16.09z"/>
				</g>
			</g>
			<g>
				<g>
					<path fill="#682A7C" d="M163.8,15.69c0.4-0.1,0.7-0.1,1-0.3c0.3-0.1,0.5-0.3,0.8-0.4c0.7-0.2,0.4-1.3-0.3-1.1
						c-0.3,0.1-0.6,0.3-0.8,0.4c-0.3,0.2-0.7,0.2-1,0.3C162.8,14.69,163.1,15.79,163.8,15.69L163.8,15.69z"/>
				</g>
			</g>
			<g>
				<g>
					<path fill="#682A7C" d="M162.5,15.39c0.3-0.3,0.7-0.5,1-0.8c0.6-0.5-0.3-1.3-0.8-0.8c-0.3,0.3-0.7,0.5-1,0.8
						C161.1,15.09,161.9,15.89,162.5,15.39L162.5,15.39z"/>
				</g>
			</g>
			<g>
				<g>
					<path fill="#682A7C" d="M160.8,15.59c0.5-0.2,0.8-0.6,1.1-1.1c0.4-0.6-0.6-1.2-1-0.6c-0.2,0.3-0.4,0.5-0.7,0.7
						C159.5,14.89,160.1,15.89,160.8,15.59L160.8,15.59z"/>
				</g>
			</g>
			<g>
				<path fill="#682A7C" d="M162.3,15.49c4,0,7.3,3.3,7.3,7.3v13.4c0,4-3.3,7.3-7.3,7.3h-2.7c-4,0-7.3-3.3-7.3-7.3v-13.4
					c0-4,3.3-7.3,7.3-7.3L162.3,15.49 M162.3,14.89h-2.7c-4.4,0-7.9,3.5-7.9,7.9v13.4c0,4.4,3.5,7.9,7.9,7.9h2.7
					c4.4,0,7.9-3.5,7.9-7.9v-13.4C170.2,18.39,166.7,14.89,162.3,14.89L162.3,14.89z"/>
			</g>
			<path fill="#F19220" d="M162.9,20.39h-1.5c-2.4,0-4.4,2.3-4.4,5.2v8.9c0,2.9,2,5.2,4.4,5.2h1.5c2.4,0,4.4-2.3,4.4-5.2v-8.9
				C167.3,22.79,165.3,20.39,162.9,20.39z"/>
			<path fill="#DCC824" d="M161.7,19.79h-1.5c-2.4,0-4.4,2.3-4.4,5.2v8.9c0,2.9,2,5.2,4.4,5.2h1.5c2.4,0,4.4-2.3,4.4-5.2v-8.9
				C166.1,22.19,164.1,19.79,161.7,19.79z"/>
			<path fill="#FAFBFB" d="M170.1,20.69c-2.7,0.1-2.7,0.1-2.8,3.9c-0.1-3.8-0.1-3.8-2.8-3.9c2.7-0.1,2.7-0.1,2.8-3.9
				C167.4,20.49,167.4,20.59,170.1,20.69z"/>
			<path fill="#FAFBFB" d="M157.2,20.39c-2.7,0.1-2.7,0.1-2.8,3.9c-0.1-3.8-0.1-3.8-2.8-3.9c2.7-0.1,2.7-0.1,2.8-3.9
				C154.5,20.29,154.6,20.39,157.2,20.39z"/>
			<path fill="#FAFBFB" d="M158.9,25.59c-1.8,0.1-1.8,0.1-1.8,2.6c0-2.5-0.1-2.5-1.8-2.6c1.8-0.1,1.8-0.1,1.8-2.6
				C157.1,25.59,157.1,25.59,158.9,25.59z"/>
			<path fill="#FAFBFB" d="M158.5,40.59c-1.8,0.1-1.8,0.1-1.8,2.6c0-2.5-0.1-2.5-1.8-2.6c1.8-0.1,1.8-0.1,1.8-2.6
				C156.7,40.49,156.8,40.59,158.5,40.59z"/>
		</g>
	</g>
</g>
</svg>
