<?xml version="1.0" encoding="utf-8"?>
<!-- Generator: Adobe Illustrator 25.4.1, SVG Export Plug-In . SVG Version: 6.00 Build 0)  -->
<svg version="1.1" id="Layer_1" xmlns="http://www.w3.org/2000/svg" xmlns:xlink="http://www.w3.org/1999/xlink" x="0px" y="0px"
	 viewBox="0 0 175.75 62.36" enable-background="new 0 0 175.75 62.36" xml:space="preserve">
<path id="BLEED" fill="#FFFFFF" stroke="#000000" stroke-width="0.2835" stroke-miterlimit="10" d="M172.93,62.36H2.82
	C1.26,62.36,0,61.1,0,59.54V2.82C0,1.26,1.26,0,2.82,0h170.1c1.56,0,2.82,1.26,2.82,2.82v56.72
	C175.75,61.1,174.48,62.36,172.93,62.36z"/>
<g id="BACKGROUND">
	<defs>
		<path id="SVGID_1_" d="M172.93,62.36H2.82C1.26,62.36,0,61.1,0,59.54V2.82C0,1.26,1.26,0,2.82,0h170.1c1.56,0,2.82,1.26,2.82,2.82
			v56.72C175.75,61.1,174.48,62.36,172.93,62.36z"/>
	</defs>
	<clipPath id="SVGID_00000007411319959583004010000002298349094845270932_">
		<use xlink:href="#SVGID_1_"  overflow="visible"/>
	</clipPath>
	<g clip-path="url(#SVGID_00000007411319959583004010000002298349094845270932_)">
		<path fill="#F1CCBD" d="M8.6,2.86c0-0.54-0.05-1.03-0.11-1.57C7.95-2.12,6.98-5.42,6.01-8.72C4-8.83,1.95-8.83,0-8.88V6.48
			c1.95-0.11,3.9-0.22,5.84-0.22c0.11,0,0.16,0,0.27,0C6.92,5.13,7.79,3.99,8.6,2.86z"/>
		<path fill="#70B8B3" d="M15.64-13.21c0-0.05,0.05-0.05,0.05-0.11c0.16-0.27,0.38-0.49,0.54-0.76c-0.27-0.7-0.49-1.35-0.76-2.06
			c-0.43-1.14-0.81-2.27-1.24-3.35c-1.03,1.03-2,2.06-3.03,3.08c-0.65,0.65-1.3,1.24-1.89,1.95c0.49,0.81,1.03,1.57,1.51,2.38
			c0.22,0.32,0.43,0.65,0.65,0.92l0,0c0.43,0.54,0.38,0.49,0.27,0.32l0,0c0.32,0.43,0.65,0.87,1.03,1.3c0.76-1.03,1.51-2,2.27-2.98
			C15.26-12.67,15.42-12.94,15.64-13.21z"/>
		<path fill="#413F37" d="M16.01,13.03c-0.22,0.05-0.49,0.11-0.7,0.11h-0.05c-0.6-0.11-1.19-0.05-1.73,0c-0.11,0-0.05,0.16,0,0.16
			c0.76,0.05,1.51,0.05,2.27,0.27c0.65,0.22,1.14,0.54,1.57,1.08c0.11,0.16,0.38,0,0.27-0.16c0.05-0.11,0.05-0.22,0.16-0.32
			c0.11-0.11,0.27-0.22,0.38-0.27c0.32-0.16,0.7-0.27,1.03-0.43c0.32-0.11,0.7-0.22,1.08-0.32c0.16-0.05,0.32-0.11,0.49-0.11
			c0.16-0.05,0.38,0,0.49-0.16c0.05-0.05,0.05-0.16,0-0.22c-0.16-0.11-0.38,0-0.54,0.05c-0.22,0.05-0.43,0.11-0.65,0.16
			c-0.22,0.05-0.43,0.11-0.7,0.22c0,0,0,0-0.05,0c-0.38,0-0.7-0.11-1.03-0.22c-0.16-0.05-0.32-0.16-0.43-0.27
			c-0.11-0.05-0.22-0.16-0.32-0.27c0-0.11-0.16-0.27-0.27-0.11C16.88,12.65,16.5,12.86,16.01,13.03z"/>
		<path fill="#C1E0D8" d="M33.49,86.93c-0.7,0.43-1.41,0.97-2.11,1.35h3.41v-0.92C34.3,87.2,33.87,87.04,33.49,86.93z"/>
		<path fill="#D4ECE6" d="M16.01,84.55c0-0.54-0.05-1.03-0.11-1.57c-0.22-1.24-0.43-2.49-0.76-3.73c-2.06,1.24-4.17,2.43-6.28,3.52
			c-1.84,0.92-3.68,1.79-5.46,2.76c0.97,0.92,1.95,1.84,2.87,2.76c2.33-0.16,4.65-0.27,6.98-0.27c0.11,0,0.22,0,0.27,0
			C14.34,86.82,15.15,85.68,16.01,84.55z"/>
		<path fill="#EBB6B1" d="M21.64,32.5c-2.98,0.11-5.95,0.27-8.93,0.65c-2.92,0.43-5.73,1.14-8.66,1.68
			c-0.87,0.6-1.79,1.24-2.65,1.84c-0.16,0.11-0.27,0.16-0.43,0.27c0.11,0.92,0.16,1.89,0.22,2.81c0.16,2.54,0.22,5.03,0.43,7.57
			c0.05,0,0.11,0.05,0.16,0.05c1.89,0.92,3.84,1.73,5.73,2.65c0.49,0.22,1.03,0.49,1.51,0.7c1.57-0.76,3.08-1.68,4.54-2.6
			c3.57-2.33,6.87-4.98,10.39-7.3c0.92-0.65,1.89-1.24,2.92-1.79c-0.81-2.22-1.62-4.38-2.43-6.6C23.53,32.45,22.61,32.45,21.64,32.5
			z"/>
		<path fill="#413F37" d="M1.68,65.99c0.16-0.22,0.32-0.43,0.49-0.65c-0.7-0.49-1.51-0.92-2.16-1.41v4.22
			C0.54,67.51,1.14,66.75,1.68,65.99z"/>
		<path fill="#F1CCBD" d="M168.04-9.15c-0.16,1.19-0.32,2.43-0.54,3.62c-0.32,1.51-0.65,3.03-0.97,4.54
			c2.76,2.49,5.46,5.03,8.12,7.63c0.38,0,0.7-0.05,1.08-0.05V-8.88c-0.32,0-0.65,0-0.97,0C172.47-8.94,170.25-8.99,168.04-9.15z"/>
		<path fill="#413F37" d="M171.61,64.04c0.49,0.81,1.03,1.57,1.51,2.38c0.22,0.32,0.43,0.65,0.65,0.92l0,0
			c0.43,0.54,0.38,0.49,0.27,0.32l0,0c0.32,0.43,0.65,0.87,1.03,1.3c0.22-0.27,0.38-0.54,0.6-0.81v-4.22
			c-0.87-0.49-1.68-1.03-2.54-1.51C172.63,62.96,172.15,63.5,171.61,64.04z"/>
		<path fill="#C1E0D8" d="M135.52,28.17c0.05-0.05,0.11-0.11,0.11-0.16c0.27-0.43,0.65-0.87,0.97-1.3
			c-0.43-1.19-0.87-2.38-1.35-3.57c-0.87-2.38-1.73-4.76-2.65-7.14c-3.73-1.3-7.52-2.54-11.31-3.84c-4,2.54-7.84,5.36-11.74,8.01
			c-2.11,1.41-4.22,2.87-6.38,4.11c-0.05,0.27-0.11,0.54-0.16,0.87c0.65,4.06,1.84,7.95,3.35,11.74c0.32,0.65,0.65,1.35,0.97,2
			c0.16,0.16,0.27,0.27,0.43,0.43c6.71-0.54,13.42-1.35,20.18-1.41c0.11,0,0.22,0,0.27,0c1.95-2.92,4.17-5.68,6.28-8.44
			C134.82,29.04,135.14,28.61,135.52,28.17z"/>
		<path fill="#EBB6B1" d="M133.2,75.67c0.11-0.16,0.22-0.27,0.32-0.43c-0.38-0.43-0.7-0.87-1.08-1.3c-1.73-2.11-3.46-4.22-5.19-6.33
			c-1.35-1.57-2.71-3.14-3.95-4.71c-5.03,1.84-9.95,3.9-15.15,5.14c0.05,1.89,0,3.79,0.05,5.68c3.95,3.46,7.74,6.98,11.52,10.66
			c2.33-0.16,4.65-0.27,6.98-0.27c0.11,0,0.22,0,0.27,0C128.87,81.25,131.09,78.49,133.2,75.67z"/>
		<path fill="#F1CCBD" d="M96.46,77.62c0-0.54-0.05-1.03-0.11-1.57c-0.54-3.41-1.51-6.71-2.49-10.01c-2.33-0.11-4.65-0.16-6.98-0.16
			c-2.22-0.05-4.44-0.11-6.65-0.27c-0.16,1.19-0.32,2.43-0.54,3.62c-0.32,1.51-0.65,3.03-0.97,4.54c2.76,2.49,5.46,5.03,8.12,7.63
			c2.33-0.16,4.65-0.27,6.98-0.27c0.11,0,0.22,0,0.27,0C94.78,79.95,95.65,78.76,96.46,77.62z"/>
		<path fill="#C1E0D8" d="M161.27,57.12c0-0.54-0.05-1.03-0.11-1.57c-0.22-1.57-0.54-3.08-0.97-4.54c-3.08-0.27-6.17-0.49-9.25-0.65
			c-1.19-0.05-2.38-0.11-3.57-0.16c-0.22,1.03-0.38,2.06-0.49,3.08c-0.11,0.97-0.22,2-0.22,2.98c1.62,1.51,3.25,3.08,4.87,4.65
			c2.33-0.16,4.65-0.27,6.98-0.27c0.11,0,0.22,0,0.27,0C159.6,59.39,160.41,58.25,161.27,57.12z"/>
		<path fill="#D4ECE6" d="M96.73,7.94c-1.84,0.92-3.68,1.79-5.46,2.76c0.97,0.92,1.95,1.84,2.87,2.76c2.33-0.16,4.65-0.27,6.98-0.27
			c0.11,0,0.22,0,0.27,0c0.81-1.19,1.62-2.33,2.49-3.46c0-0.54-0.05-1.03-0.11-1.57c-0.22-1.24-0.43-2.49-0.76-3.73
			C100.95,5.67,98.9,6.86,96.73,7.94z"/>
		<path fill="#F5DEDD" d="M122.7-26.14c-2.98,0.11-5.95,0.27-8.93,0.65c-2.92,0.43-5.73,1.14-8.66,1.68
			c-0.87,0.6-1.79,1.24-2.65,1.84c-0.16,0.11-0.27,0.16-0.43,0.27c0.11,0.92,0.16,1.89,0.22,2.81c0.16,2.54,0.22,5.03,0.43,7.57
			c0.05,0,0.11,0.05,0.16,0.05c1.89,0.92,3.84,1.73,5.73,2.65c1.79,0.81,3.52,1.79,5.3,2.54c1.62,0.65,3.3,1.24,4.92,1.84
			c0.65,0,1.3,0,1.95,0c0.11,0,0.22,0,0.27,0c1.95-2.92,4.17-5.68,6.28-8.44c0.32-0.43,0.7-0.87,1.03-1.3
			c0.05-0.05,0.11-0.11,0.11-0.16c0.27-0.43,0.65-0.87,0.97-1.3c-0.43-1.19-0.87-2.38-1.35-3.57c-0.87-2.38-1.73-4.76-2.65-7.09
			C124.59-26.2,123.67-26.2,122.7-26.14z"/>
		<path fill="#E69889" d="M163.06,13.68c0.92-0.65,1.89-1.24,2.92-1.79c-0.81-2.22-1.62-4.38-2.43-6.6c-0.92,0-1.89,0-2.81,0.05
			c-2.98,0.11-5.95,0.27-8.93,0.65c-0.43,0.05-0.92,0.16-1.35,0.22c-0.32,0.43-0.7,0.81-1.03,1.24c-0.05,0.05-0.05,0.05-0.11,0.11
			c-0.22,0.32-0.43,0.65-0.65,0.92c-1.14,1.73-2.22,3.41-3.46,5.03c1.35,1.41,2.54,2.92,3.73,4.49c0.92,1.19,1.79,2.43,2.54,3.73
			c0.43-0.27,0.81-0.49,1.19-0.76C156.24,18.65,159.54,16,163.06,13.68z"/>
		<path fill="#EBF6F3" d="M94.51,38.08c-2,1.84-4.17,3.46-6.49,4.81c0.11,1.19,0.22,2.33,0.16,3.52c0.65,0.65,1.3,1.24,1.95,1.89
			c2.33-0.16,4.65-0.27,6.98-0.27c0.11,0,0.22,0,0.27,0c0.81-1.19,1.62-2.33,2.49-3.46c0-0.54-0.05-1.03-0.11-1.57
			c-0.22-1.57-0.54-3.08-0.97-4.54C97.38,38.29,95.97,38.18,94.51,38.08z"/>
		<path fill="#70B8B3" d="M137.04,49.92c0.16-0.27,0.38-0.49,0.54-0.76c-0.27-0.7-0.49-1.35-0.76-2.06
			c-0.49-1.35-0.97-2.71-1.51-4.06c-1.46-0.49-2.92-1.03-4.38-1.51c-0.22,0.97-0.43,2-0.6,2.98c-0.11,1.19-0.22,2.33-0.16,3.52
			c0.65,1.03,1.3,2.06,1.95,3.08c0.22,0.32,0.43,0.65,0.65,0.92l0,0c0.43,0.54,0.38,0.49,0.27,0.32l0,0
			c0.32,0.43,0.65,0.87,1.03,1.3c0.76-1.03,1.51-2,2.27-2.98c0.22-0.27,0.38-0.49,0.6-0.76C136.98,49.98,136.98,49.92,137.04,49.92z
			"/>
		<path fill="#70B8B3" d="M103.49,61.61c0-0.05,0.05-0.05,0.05-0.11c0.16-0.27,0.38-0.49,0.54-0.76c-0.27-0.7-0.49-1.35-0.76-2.06
			c-0.43-1.14-0.81-2.27-1.24-3.35c-1.03,1.03-2,2.06-3.03,3.08c-0.65,0.65-1.3,1.24-1.89,1.95c0.49,0.81,1.03,1.57,1.51,2.38
			c0.22,0.32,0.43,0.65,0.65,0.92l0,0c0.43,0.54,0.38,0.49,0.27,0.32l0,0c0.32,0.43,0.65,0.87,1.03,1.3c0.76-1.03,1.51-2,2.27-2.98
			C103.12,62.1,103.33,61.88,103.49,61.61z"/>
		<path fill="#413F37" d="M86.24-7.1c0.32,0.43,0.65,0.87,1.03,1.3c0.76-1.03,1.51-2,2.27-2.98c0.16-0.22,0.32-0.43,0.49-0.65
			c-1.51-1.03-3.14-1.95-4.71-2.92c-0.54,0.49-1.03,1.03-1.57,1.57c0.49,0.81,1.03,1.57,1.51,2.38c0.22,0.32,0.43,0.65,0.65,0.92
			l0,0C86.4-6.94,86.34-6.94,86.24-7.1L86.24-7.1z"/>
		<path fill="#413F37" d="M168.36-22.9c-0.11-0.11-0.27-0.22-0.32-0.38c-0.05-0.11-0.11-0.16-0.11-0.27l0,0
			c0-0.11-0.05-0.16-0.11-0.22c0,0-0.05,0-0.11,0s-0.11,0.05-0.11,0.11c-0.16,0.6-0.65,0.97-1.24,1.14
			c-0.32,0.11-0.65,0.11-0.97,0.11c-0.05,0-0.05,0-0.11,0c-0.16-0.05-0.32-0.05-0.49-0.05s-0.32,0-0.43,0c-0.05,0-0.05,0.05,0,0.11
			c-0.05,0-0.11,0.05-0.11,0.05c-0.11,0.05-0.05,0.27,0.11,0.22c0.32-0.11,0.65-0.11,0.97-0.05c0.32,0.05,0.65,0.22,0.87,0.43
			c0.54,0.49,0.81,1.14,1.14,1.79c0.05,0.16,0.32,0.05,0.32-0.05l0,0c0.22-0.43,0.49-0.7,0.97-0.87c0.49-0.16,1.03-0.22,1.57-0.32
			c0.54-0.11,1.08-0.22,1.62-0.32c0.27-0.05,0.54-0.11,0.81-0.16c0.11,0,0.27-0.05,0.38-0.05c0.16-0.05,0.32-0.05,0.43-0.11
			c0.11-0.11,0.11-0.27-0.05-0.32c-0.16-0.05-0.27,0-0.43,0c-0.16,0.05-0.32,0.05-0.49,0.11c-0.27,0.05-0.54,0.11-0.76,0.16
			c-0.7-0.27-1.46-0.32-2.22-0.49C169.06-22.46,168.68-22.63,168.36-22.9z"/>
		<path fill="#413F37" d="M106.14,87.69c-0.16-0.05-0.32-0.16-0.43-0.27c-0.11-0.05-0.22-0.16-0.32-0.27c0-0.11-0.16-0.27-0.27-0.11
			c-0.32,0.38-0.7,0.65-1.19,0.76c-0.22,0.05-0.49,0.11-0.7,0.11h-0.05c-0.6-0.11-1.19-0.05-1.73,0c-0.11,0-0.05,0.11,0,0.11
			c0.7,0.05,1.41,0.05,2.06,0.22h3.62l0,0c0.32-0.11,0.7-0.22,1.08-0.32c0.16-0.05,0.32-0.05,0.49-0.11c0.16-0.05,0.38,0,0.49-0.16
			c0.05-0.05,0.05-0.16,0-0.22c-0.16-0.11-0.38,0-0.54,0.05c-0.22,0.05-0.43,0.11-0.65,0.16c-0.22,0.05-0.43,0.11-0.7,0.22
			c0,0,0,0-0.05,0C106.79,87.9,106.47,87.85,106.14,87.69z"/>
		<path fill="#413F37" d="M131.36-3.85c-0.16-0.22-0.22-0.49-0.32-0.7c0.05-0.22-0.27-0.27-0.32-0.11c-0.22,0.6-0.43,1.24-0.92,1.68
			c-0.22,0.22-0.54,0.38-0.87,0.43c-0.05,0-0.11,0.05-0.16,0.05c-0.22-0.05-0.54,0-0.76,0l0,0l0,0c0,0-0.05,0-0.05,0.05
			c-0.05,0.05-0.05,0.11,0,0.11c0.16,0.05,0.32,0.05,0.54,0.05c0.11,0,0.16,0,0.27,0l0,0c0.27,0.05,0.6,0.16,0.87,0.27
			c0.49,0.22,1.03,0.65,1.3,1.14c0.11,0.16,0.38,0.05,0.32-0.16c0,0,0,0,0-0.05c-0.16-0.49,0.54-0.65,0.87-0.81
			c0.43-0.16,0.87-0.32,1.3-0.43c0.22-0.05,0.43-0.11,0.65-0.16l0,0c0.05,0,0.05,0,0.11,0c0.16-0.05,0.38-0.05,0.54-0.11
			c0.22-0.05,0.43-0.05,0.7-0.05c0.22,0,0.43,0.05,0.6-0.05c0.11-0.05,0.11-0.22,0-0.27c-0.22-0.11-0.49-0.05-0.76,0
			c-0.27,0-0.54,0.05-0.76,0.11c-0.22,0.05-0.38,0.05-0.6,0.11c-0.65-0.05-1.3-0.22-1.84-0.54C131.73-3.42,131.52-3.64,131.36-3.85z
			"/>
		<path fill="#EDBE47" d="M153.1,31.26c-0.16-0.16-0.32-0.38-0.6-0.49c-0.05-0.27-0.49-0.32-0.6,0c-0.22,0.81-0.49,1.46-1.14,2
			c-0.32,0.27-0.7,0.43-1.08,0.54c-0.32,0.11-0.7,0.05-1.03,0.16c-0.32-0.11-0.49,0.43-0.16,0.49c0.65,0.11,1.3,0.6,1.68,1.14
			c0.16,0.27,0.32,0.54,0.43,0.81c0.05,0.22,0.11,0.38,0.22,0.6c0,0.11,0.05,0.16,0.05,0.27c0.05,0.11,0.22,0.05,0.22-0.05
			c0.16-0.43,0.27-0.87,0.6-1.19c0.27-0.32,0.7-0.54,1.08-0.65c0.87-0.32,1.79-0.49,2.65-0.65c1.35-0.27,2.71-0.38,4.06-0.43
			c0.6,0,1.14,0,1.73,0c0.43,0,0.43-0.65,0-0.65c-0.49,0-1.03,0-1.51,0c-2.27,0-4.65-0.22-6.49-1.68
			C153.21,31.26,153.16,31.26,153.1,31.26z M153.43,33.21c0,0.27-0.43,0.27-0.43,0C152.94,32.83,153.43,32.83,153.43,33.21z
			 M152.51,32.5c0.22,0.05,0.27,0.32,0.11,0.49l-0.05,0.05c-0.11,0.16-0.22,0.27-0.38,0.32c-0.05,0.05-0.11,0.05-0.16,0.05
			c0,0,0,0-0.05,0c-0.05,0-0.11,0-0.16-0.05c-0.11-0.05-0.22-0.22-0.16-0.32C151.75,32.61,152.13,32.39,152.51,32.5z"/>
		<path fill="#FAFBFB" d="M151.64,32.99c-0.05,0.16,0.05,0.32,0.16,0.32c0.05,0.05,0.11,0.05,0.16,0.05c0,0,0,0,0.05,0
			s0.11,0,0.16-0.05c0.16-0.05,0.27-0.16,0.38-0.32l0.05-0.05c0.16-0.16,0.05-0.43-0.11-0.49
			C152.13,32.39,151.75,32.61,151.64,32.99z"/>
		<path fill="#FAFBFB" d="M152.94,33.21c0,0.27,0.43,0.27,0.43,0C153.43,32.83,152.94,32.83,152.94,33.21z"/>
		<path fill="#EDBE47" d="M146.07-14.89c-0.05-0.11-0.16-0.16-0.22-0.16c0.11-0.32-0.43-0.65-0.54-0.27
			c-0.16,0.43-0.38,0.87-0.65,1.19c-0.38,0.38-0.92,0.49-1.46,0.54c-0.54,0-1.08-0.11-1.62-0.11c-0.49,0-0.97,0.05-1.41,0.27
			c-0.11,0.05-0.05,0.22,0.05,0.22c1.03,0.11,2,0.05,2.92,0.54c0.81,0.43,1.41,1.14,1.84,1.95c0.16,0.32,0.65,0.05,0.54-0.27
			c0.32-0.22,0.6-0.49,0.97-0.7c0.38-0.22,0.76-0.38,1.19-0.49c0.87-0.27,1.79-0.32,2.71-0.43c1.14-0.11,2.33-0.22,3.46-0.32
			c1.08-0.05,2.16-0.16,3.25-0.32l0,0l0,0c0.16,0,0.11,0,0.11,0c0.32-0.05,0.27-0.65-0.05-0.6c-0.76,0.05-1.51,0.16-2.22,0.22
			c-1.35,0.11-2.76,0.16-4.11,0.11C149.32-13.54,146.88-13.37,146.07-14.89z M145.53-13.32c-0.05,0.05-0.11,0.16-0.22,0.16
			c-0.27,0.05-0.49-0.22-0.38-0.43c0-0.05,0.05-0.05,0.11-0.11c0,0,0.05-0.05,0.11-0.05c0.16-0.05,0.27,0,0.38,0.11
			C145.58-13.59,145.58-13.43,145.53-13.32z"/>
		<path fill="#FAFBFB" d="M145.15-13.81c-0.05,0-0.05,0.05-0.11,0.05s-0.11,0.05-0.11,0.11c-0.11,0.22,0.11,0.54,0.38,0.43
			c0.11,0,0.16-0.11,0.22-0.16c0.05-0.11,0.05-0.22,0-0.32S145.31-13.86,145.15-13.81z"/>
		<path fill="#EBB6B1" d="M34.73-11.59c-4.76,1.79-9.52,3.68-14.44,4.87c0.05,1.89,0,3.79,0.05,5.68
			c3.95,3.46,7.74,6.98,11.52,10.66c0.97-0.05,1.95-0.11,2.92-0.16c1.35-0.05,2.71-0.11,4.06-0.11c0.11,0,0.22,0,0.27,0
			c1.95-2.92,4.17-5.68,6.28-8.44c0.11-0.16,0.22-0.27,0.32-0.43c-0.38-0.43-0.7-0.87-1.08-1.3c-1.73-2.11-3.46-4.22-5.19-6.33
			c-1.35-1.57-2.71-3.14-3.95-4.71C35.22-11.81,34.95-11.7,34.73-11.59z"/>
		<path fill="#C1E0D8" d="M73.36-17.7c0-0.54-0.05-1.03-0.11-1.57c-0.22-1.57-0.54-3.08-0.97-4.54c-3.08-0.27-6.17-0.49-9.25-0.65
			c-1.19-0.05-2.38-0.11-3.57-0.16c-0.22,1.03-0.38,2.06-0.49,3.08c-0.11,0.97-0.22,2-0.22,2.98c1.62,1.51,3.25,3.08,4.87,4.65
			c2.33-0.16,4.65-0.27,6.98-0.27c0.11,0,0.22,0,0.27,0C71.68-15.38,72.55-16.57,73.36-17.7z"/>
		<path fill="#70B8B3" d="M78.93,21.68c0-0.54-0.05-1.03-0.11-1.57c-0.22-1.57-0.54-3.08-0.97-4.54c-1.41-0.11-2.87-0.22-4.27-0.32
			c-1.08,0.97-2.22,1.95-3.41,2.76c-0.05,1.19,0.05,2.38,0.16,3.57c0.11,0.54,0.27,1.14,0.43,1.68c0.27,0.54,0.54,1.08,0.92,1.57
			c0.05,0.11,0.16,0.22,0.22,0.32c0.05,0.05,0.11,0.11,0.16,0.16c1.35-0.05,2.76-0.11,4.11-0.11c0.11,0,0.22,0,0.27,0
			C77.26,23.95,78.12,22.82,78.93,21.68z"/>
		<path fill="#EDBE47" d="M45.28,17.35c-0.11-0.11-0.38-0.16-0.49,0.05c-1.19,1.84-3.14,2.87-5.19,3.41c-0.11,0-0.11,0.11-0.05,0.16
			c0,0.11,0.05,0.27,0.16,0.32c1.84,0.38,3.46,1.24,4.71,2.65c0.11,0.16,0.38,0.11,0.49-0.05c0.7-1.3,2.22-1.62,3.52-1.95
			c1.79-0.43,3.57-0.92,5.36-1.35c0.43-0.11,0.22-0.76-0.16-0.65c-2.92,0.65-6.01-0.32-8.12-2.38
			C45.44,17.35,45.39,17.35,45.28,17.35z M46.15,20.33c0,0.16-0.16,0.27-0.32,0.32c-0.16,0-0.32-0.16-0.32-0.32
			c0-0.16,0.16-0.27,0.32-0.32C45.99,20.01,46.15,20.17,46.15,20.33z M44.85,19.79c0.05,0,0.11,0.05,0.16,0.05
			c0.05,0.05,0.05,0.11,0.11,0.16c0.05,0.11,0,0.16-0.05,0.27c-0.11,0.22-0.38,0.43-0.65,0.38c-0.11,0-0.22-0.05-0.27-0.16
			c0-0.05-0.05-0.11-0.05-0.11c0-0.05,0-0.11,0-0.16C44.2,19.9,44.52,19.68,44.85,19.79z"/>
		<path fill="#FAFBFB" d="M44.09,20.22c0,0.05,0,0.11,0,0.16c0,0.05,0,0.11,0.05,0.11c0.05,0.11,0.16,0.16,0.27,0.16
			c0.27,0.05,0.54-0.16,0.65-0.38c0.05-0.05,0.05-0.16,0.05-0.27c0-0.05-0.05-0.11-0.11-0.16c-0.05-0.05-0.11-0.05-0.16-0.05
			C44.52,19.68,44.2,19.9,44.09,20.22z"/>
		<path fill="#FAFBFB" d="M45.5,20.33c0,0.16,0.16,0.32,0.32,0.32s0.32-0.11,0.32-0.32c0-0.16-0.16-0.32-0.32-0.32
			C45.66,20.06,45.5,20.17,45.5,20.33z"/>
		<path fill="#F5DEDD" d="M34.84,48.62c-0.05,0-0.05,0-0.11,0c-2.92,0.11-5.9,0.27-8.82,0.65c-2.92,0.43-5.73,1.14-8.66,1.68
			c-0.87,0.6-1.79,1.24-2.65,1.84c-0.16,0.11-0.27,0.16-0.43,0.27c0.11,0.92,0.16,1.89,0.22,2.81c0.16,2.54,0.22,5.03,0.43,7.57
			c0.05,0,0.11,0.05,0.16,0.05c1.89,0.92,3.84,1.73,5.73,2.65c1.79,0.81,3.52,1.79,5.3,2.54c1.62,0.65,3.3,1.24,4.92,1.84
			c0.65,0,1.3,0,1.95,0c0.11,0,0.22,0,0.27,0c0.49-0.7,0.97-1.46,1.51-2.16c1.57-2.16,3.19-4.22,4.76-6.33
			c0.32-0.43,0.7-0.87,1.03-1.3c0.05-0.05,0.11-0.11,0.11-0.16c0.27-0.43,0.65-0.87,0.97-1.3c-0.43-1.19-0.87-2.38-1.35-3.57
			c-0.87-2.38-1.73-4.76-2.65-7.09C36.73,48.57,35.76,48.62,34.84,48.62z"/>
		<path fill="#413F37" d="M72.06,43.43c-0.81-2.22-1.62-4.38-2.43-6.6c-0.92,0-1.89,0-2.81,0.05c-2.81,0.11-5.68,0.27-8.49,0.6
			c-0.05,0.05-0.05,0.11-0.11,0.16c-0.11,0.11-0.16,0.22-0.27,0.32c-0.54,0.7-1.03,1.41-1.46,2.16c1.14,2.54,1.84,5.3,2.87,7.9
			c0.32,0.7,0.65,1.41,1.08,2.06c0.11,0.16,0.22,0.32,0.32,0.49c0.11,0.16,0.22,0.27,0.38,0.38c2.71-1.89,5.3-3.9,8.06-5.68
			C70.11,44.62,71.09,44.03,72.06,43.43z"/>
		<path fill="#F1CCBD" d="M42.96,30.66c-2.76,0.11-5.52,0.27-8.22,0.54c-0.11,0-0.16,0-0.27,0.05c-0.05,0.05-0.05,0.11-0.11,0.16
			c-0.11,0.11-0.16,0.22-0.27,0.32c-0.54,0.7-1.03,1.41-1.46,2.16c0.7,1.51,1.19,3.14,1.73,4.71c0.11,0,0.22,0,0.38-0.05
			c0.43-0.05,0.87-0.05,1.3-0.11c2.49-0.38,4.92-0.92,7.36-1.57c0.27-1.35,0.7-2.71,1.14-4.06c0.27-0.76,0.54-1.46,0.81-2.22
			C44.52,30.66,43.77,30.66,42.96,30.66z"/>
		<path fill="#413F37" d="M80.5,51.92c-0.11-0.11-0.27-0.22-0.32-0.38c-0.05-0.11-0.11-0.16-0.11-0.27l0,0
			c0-0.11-0.05-0.16-0.11-0.22c0,0-0.05,0-0.11,0s-0.11,0.05-0.11,0.11c-0.16,0.6-0.65,0.97-1.24,1.14
			c-0.32,0.11-0.65,0.11-0.97,0.11c-0.05,0-0.05,0-0.11,0c-0.16-0.05-0.32-0.05-0.49-0.05c-0.16,0-0.32,0-0.43,0
			c-0.05,0-0.05,0.05,0,0.11c-0.05,0-0.11,0.05-0.11,0.05c-0.11,0.05-0.05,0.27,0.11,0.22c0.32-0.11,0.65-0.11,0.97-0.05
			c0.32,0.05,0.65,0.22,0.87,0.43c0.54,0.49,0.81,1.14,1.14,1.79c0.05,0.16,0.32,0.05,0.32-0.05l0,0c0.22-0.43,0.49-0.7,0.97-0.87
			c0.49-0.16,1.03-0.22,1.57-0.32c0.54-0.11,1.08-0.22,1.62-0.32c0.27-0.05,0.54-0.11,0.81-0.16c0.11,0,0.27-0.05,0.38-0.05
			c0.16-0.05,0.32-0.05,0.43-0.11c0.11-0.11,0.11-0.27-0.05-0.32c-0.16-0.05-0.27,0-0.43,0c-0.16,0.05-0.32,0.05-0.49,0.11
			c-0.27,0.05-0.54,0.11-0.76,0.16c-0.7-0.27-1.46-0.32-2.22-0.49C81.2,52.3,80.83,52.2,80.5,51.92z"/>
		<path fill="#413F37" d="M43.28,73.78L43.28,73.78c-0.16-0.54,0.49-0.7,0.81-0.81c0.43-0.16,0.87-0.32,1.3-0.43
			c0.22-0.05,0.43-0.11,0.65-0.16l0,0c0.05,0,0.05,0,0.11,0c0.16-0.05,0.38-0.05,0.54-0.11c0.22-0.05,0.43-0.05,0.7-0.05
			c0.22,0,0.43,0.05,0.6-0.05c0.11-0.05,0.11-0.22,0-0.27c-0.22-0.11-0.49-0.05-0.76,0c-0.27,0-0.54,0.05-0.76,0.11
			c-0.22,0.05-0.38,0.05-0.6,0.11c-0.65-0.05-1.3-0.22-1.84-0.54c-0.27-0.16-0.49-0.38-0.65-0.6c-0.16-0.22-0.22-0.49-0.32-0.7
			c0.05-0.22-0.27-0.27-0.32-0.11c-0.22,0.6-0.43,1.24-0.92,1.68c-0.22,0.22-0.54,0.38-0.87,0.43c-0.05,0-0.11,0.05-0.16,0.05
			c-0.22-0.05-0.54,0.05-0.76,0.05l0,0v-0.05h-0.05c-0.05,0.05-0.05,0.11,0,0.11c0.16,0.05,0.32,0.05,0.54,0.05
			c0.11,0,0.16,0,0.27,0l0,0c0.27,0.05,0.6,0.16,0.87,0.27c0.49,0.22,1.03,0.65,1.3,1.14C43.12,74.11,43.39,74,43.28,73.78z"/>
		<path fill="#EDBE47" d="M58.21,59.88c-0.05-0.11-0.16-0.16-0.22-0.16c0.11-0.32-0.43-0.65-0.54-0.27
			c-0.16,0.43-0.38,0.87-0.65,1.19c-0.38,0.38-0.92,0.49-1.46,0.54c-0.54,0-1.08-0.11-1.62-0.11c-0.49,0-0.97,0.05-1.41,0.27
			c-0.11,0.05-0.05,0.22,0.05,0.22c1.03,0.11,2,0.05,2.92,0.54c0.81,0.43,1.41,1.14,1.84,1.95c0.16,0.32,0.65,0.05,0.54-0.27
			c0.32-0.22,0.6-0.49,0.97-0.7c0.38-0.22,0.76-0.38,1.19-0.49c0.87-0.27,1.79-0.32,2.71-0.43c1.14-0.11,2.33-0.22,3.46-0.32
			c1.08-0.05,2.16-0.16,3.25-0.32l0,0l0,0c0.16,0,0.05,0,0.11,0c0.32-0.05,0.27-0.65-0.05-0.6c-0.76,0.05-1.51,0.16-2.22,0.22
			c-1.35,0.11-2.76,0.16-4.11,0.11C61.4,61.23,59.02,61.39,58.21,59.88z M57.67,61.45c-0.05,0.05-0.11,0.16-0.22,0.16
			c-0.27,0.05-0.49-0.22-0.38-0.43c0-0.05,0.05-0.05,0.11-0.11c0,0,0.05-0.05,0.11-0.05c0.16-0.05,0.27,0,0.38,0.11
			C57.73,61.23,57.73,61.34,57.67,61.45z"/>
		<path fill="#FAFBFB" d="M57.29,61.01c-0.05,0-0.05,0.05-0.11,0.05s-0.11,0.05-0.11,0.11c-0.11,0.22,0.11,0.54,0.38,0.43
			c0.11,0,0.16-0.11,0.22-0.16c0.05-0.11,0.05-0.22,0-0.32C57.56,61.01,57.45,60.96,57.29,61.01z"/>
		<path fill="#E69889" d="M72.82,80.11c-2.98,0.11-5.95,0.27-8.93,0.65c-0.43,0.05-0.92,0.16-1.35,0.22
			c-0.32,0.43-0.7,0.81-1.03,1.24c-0.05,0.05-0.05,0.05-0.11,0.11c-0.22,0.32-0.43,0.65-0.65,0.92c-1.14,1.73-2.22,3.41-3.46,5.03
			c0,0,0,0,0.05,0h18.12c0.87-0.54,1.73-1.08,2.65-1.62c-0.81-2.22-1.62-4.38-2.43-6.6C74.71,80.06,73.79,80.11,72.82,80.11z"/>
	</g>
</g>
<g id="ICON">
	<polygon points="28.66,14.7 32.76,27.29 45.99,27.29 35.28,35.07 39.37,47.66 28.66,39.88 17.95,47.66 22.04,35.07 11.33,27.29 
		24.57,27.29 	"/>
</g>
<g id="TEXT1">
	<text transform="matrix(1 0 0 1 84.5597 24.4177)" font-family="'MyriadPro-Regular'" font-size="16px">Jens</text>
</g>
<g id="TEXT2">
	<text transform="matrix(1 0 0 1 59.28 47.568)" font-family="'MyriadPro-Regular'" font-size="16px">De Schryver</text>
</g>
<g id="LOGO">
	<path fill="#FFFFFF" d="M172.93,62.36h-15.77V0h15.77c1.56,0,2.82,1.26,2.82,2.82v56.72C175.75,61.1,174.48,62.36,172.93,62.36z"/>
	<g>
		<g>
			<path d="M168.7,8.33v0.74l-4.47,2.58h4.47v0.81h-6.26v-0.71l4.52-2.62h-4.52V8.33H168.7z"/>
			<path d="M168.7,15.97l-6.26,2.28v-0.86l2.22-0.81v-1.66l-2.22-0.8v-0.86l6.26,2.28V15.97z M165.46,16.29l1.47-0.54l-1.47-0.53
				V16.29z"/>
			<path d="M168.7,19.96l-3.51,2.03l3.51,2.02v0.74h-6.26v-0.81h4.52l-3.38-1.95l3.38-1.96h-4.52v-0.81h6.26V19.96z"/>
			<path d="M168.7,29.49h-0.81v-2.56h-1.91v2.56h-0.81v-2.56h-1.91v2.56h-0.81v-3.37h6.26V29.49z"/>
		</g>
		<g>
			<path d="M167.84,38.44c-0.63,0.63-1.38,0.94-2.27,0.94c-0.88,0-1.64-0.31-2.27-0.94c-0.63-0.63-0.94-1.38-0.94-2.27
				c0-0.88,0.31-1.64,0.94-2.27c0.63-0.63,1.38-0.94,2.27-0.94c0.88,0,1.64,0.31,2.27,0.94c0.63,0.63,0.94,1.38,0.94,2.27
				C168.77,37.06,168.46,37.81,167.84,38.44z M167.96,36.17c0-0.66-0.23-1.22-0.7-1.69c-0.47-0.47-1.03-0.7-1.69-0.7
				c-0.66,0-1.22,0.23-1.69,0.7c-0.47,0.47-0.7,1.03-0.7,1.69c0,0.66,0.23,1.22,0.7,1.69c0.47,0.47,1.03,0.7,1.69,0.7
				c0.66,0,1.22-0.23,1.69-0.7C167.72,37.4,167.96,36.83,167.96,36.17z"/>
			<path d="M168.69,40.46v0.74l-4.47,2.58h4.47v0.81h-6.26v-0.71l4.52-2.62h-4.52v-0.81H168.69z"/>
			<path d="M168.69,49.43h-6.26v-0.81h6.26V49.43z"/>
			<path d="M167.88,52.57h-5.45v-0.81h5.45v-1.46h0.81v3.73h-0.81V52.57z"/>
		</g>
	</g>
</g>
<path id="CUTCONTOUR" fill="none" stroke="#EC008C" stroke-width="0.283" stroke-miterlimit="10" d="M170.09,59.53H5.66
	c-1.56,0-2.82-1.26-2.82-2.82V5.66c0-1.56,1.26-2.82,2.82-2.82h164.43c1.56,0,2.82,1.26,2.82,2.82v51.05
	C172.91,58.26,171.65,59.53,170.09,59.53z"/>
</svg>
